<?xml version="1.0" encoding="UTF-8"?>
<svg width="64px" height="64px" viewBox="0 0 64 64" version="1.1" xmlns="http://www.w3.org/2000/svg" xmlns:xlink="http://www.w3.org/1999/xlink">
    <title>B747A85A-C80C-4A57-BC8C-C2D7E1CFECA3</title>
    <defs>
        <polygon id="path-1" points="0 0 7.78484472 0 7.78484472 18.4151201 0 18.4151201"></polygon>
        <polygon id="path-3" points="0 0 8.55594877 0 8.55594877 8.38655388 0 8.38655388"></polygon>
        <polygon id="path-5" points="0 0 8.55594877 0 8.55594877 8.38655388 0 8.38655388"></polygon>
    </defs>
    <g id="Dashboard" stroke="none" stroke-width="1" fill="none" fill-rule="evenodd">
        <g id="Job-Fulfillments-02" transform="translate(-193, -342)">
            <g id="Group-26" transform="translate(193, 342)">
                <rect id="Rectangle" fill="#F5F5F5" x="0" y="0" width="64" height="64" rx="20"></rect>
                <g id="Group-32" transform="translate(12.3492, 12.1379)">
                    <g id="Group-3" transform="translate(33.0115, 21.2498)">
                        <mask id="mask-2" fill="white">
                            <use xlink:href="#path-1"></use>
                        </mask>
                        <g id="Clip-2"></g>
                        <path d="M6.20246418,18.4151201 C5.32854485,18.4151201 4.62004144,17.7206509 4.62004144,16.8640423 L4.62004144,3.8152379 C4.62004144,3.42198796 4.29364037,3.10215571 3.89244346,3.10215571 C3.49124655,3.10215571 3.16484548,3.42198796 3.16484548,3.8152379 L3.16484548,4.55396458 C3.16484548,5.41057318 2.45634207,6.10493903 1.58242274,6.10493903 C0.708503409,6.10493903 0,5.41057318 0,4.55396458 L0,3.8152379 C0,1.71145931 1.74615075,0 3.89244346,0 C6.03873617,0 7.78488692,1.71145931 7.78488692,3.8152379 L7.78488692,16.8640423 C7.78488692,17.7206509 7.07638351,18.4151201 6.20246418,18.4151201" id="Fill-1" fill="#52341A" mask="url(#mask-2)"></path>
                    </g>
                    <path d="M2.4395051,39.6579483 C2.22419011,39.6579483 2.0052883,39.6289948 1.78786341,39.568296 C0.527199961,39.2162013 -0.203668356,37.9289101 0.155541606,36.6931147 L2.82941406,27.4948093 C3.18862402,26.2592207 4.50182391,25.5425194 5.76259285,25.8948208 C7.0233618,26.2470189 7.75423012,27.5342067 7.39502015,28.7700022 L4.72104221,37.9683075 C4.42386321,38.9909848 3.47303814,39.6579483 2.4395051,39.6579483" id="Fill-4" fill="#000000"></path>
                    <path d="M11.5350389,39.6579483 C10.5014004,39.6579483 9.5507863,38.9910882 9.25350182,37.9683075 L6.57952387,28.7700022 C6.22031391,27.5342067 6.95107673,26.2470189 8.21184567,25.8948208 C9.47250912,25.5427262 10.785709,26.2591173 11.1450245,27.4948093 L13.8190024,36.6931147 C14.1782124,37.9289101 13.4474496,39.2162013 12.1866806,39.568296 C11.9693612,39.6289948 11.7503539,39.6579483 11.5350389,39.6579483" id="Fill-6" fill="#000000"></path>
                    <path d="M13.1678671,13.0569734 L12.883031,17.3379483 L12.8735365,17.4765112 L12.8735365,28.1262118 L2.44220576,28.1262118 C1.09292664,28.1262118 0,27.054934 0,25.7334157 L0,16.6440994 C0,8.43889759 6.54912025,7.58373666 6.54912025,7.58373666 L10.0251755,7.59821339 L13.1678671,13.0569734 Z" id="Fill-8" fill="#0F385A"></path>
                    <path d="M33.2509005,18.1372704 L33.2487906,18.1455428 L32.646415,20.8247713 L31.0059701,28.1262118 L21.7962697,28.1262118 C20.4480456,28.1262118 19.354064,27.0507978 19.354064,25.7241092 L19.354064,16.6027374 C19.354064,16.3421563 19.3614486,16.0877795 19.374108,15.8416752 C19.6167462,11.1522498 23.6097262,7.50101251 28.3823132,7.52058058 L29.3802945,7.5247957 L32.5219311,13.0032027 L32.2539742,17.0401413 L33.2509005,18.1372704 Z" id="Fill-10" fill="#FEA959"></path>
                    <path d="M38.2354899,21.9884313 C37.6288945,21.9884313 37.0222992,21.7619739 36.5589658,21.3088523 L26.7492107,11.714712 C25.8211725,10.8070212 25.8194846,9.33391087 26.7454129,8.42435882 C27.6713412,7.51470336 29.1743263,7.51315228 30.102259,8.42063623 L39.9120141,18.0147766 C40.8400523,18.9224674 40.8417402,20.3955777 39.9158119,21.3051298 C39.452162,21.7605262 38.8437732,21.9884313 38.2354899,21.9884313" id="Fill-12" fill="#FEA959"></path>
                    <path d="M28.4276865,28.1086329 L28.4276865,38.3819386 C28.4276865,39.1233538 27.8147615,39.7241379 27.0583634,39.7241379 L24.5201573,39.7241379 C23.0158008,39.7241379 21.7962803,38.5287739 21.7962803,37.0542159 L21.7962803,28.1262118 L26.5266693,28.1262118 L26.5266693,28.1086329 L28.4276865,28.1086329 Z" id="Fill-14" fill="#1E1E1E"></path>
                    <path d="M31.0059806,28.1086329 L31.0038708,28.1262118 L29.7643063,37.7625415 C29.6197783,38.8834537 28.6471158,39.7241379 27.4951121,39.7241379 L26.5266693,39.7241379 L26.5266693,28.1086329 L31.0059806,28.1086329 Z" id="Fill-16" fill="#000000"></path>
                    <g id="Group-20" transform="translate(24.1741, 0)">
                        <mask id="mask-4" fill="white">
                            <use xlink:href="#path-3"></use>
                        </mask>
                        <g id="Clip-19"></g>
                        <path d="M8.55594877,4.1932666 C8.55594877,6.50912924 6.64058429,8.38655388 4.27792164,8.38655388 C1.91525899,8.38655388 0,6.50912924 0,4.1932666 C0,1.87740396 1.91525899,-2.0681038e-05 4.27792164,-2.0681038e-05 C6.64058429,-2.0681038e-05 8.55594877,1.87740396 8.55594877,4.1932666" id="Fill-18" fill="#FEBCA7" mask="url(#mask-4)"></path>
                    </g>
                    <g id="Group-23" transform="translate(4.7446, 0)">
                        <mask id="mask-6" fill="white">
                            <use xlink:href="#path-5"></use>
                        </mask>
                        <g id="Clip-22"></g>
                        <path d="M8.55594877,4.1932666 C8.55594877,6.50912924 6.64058429,8.38655388 4.27792164,8.38655388 C1.91525899,8.38655388 0,6.50912924 0,4.1932666 C0,1.87740396 1.91525899,-2.0681038e-05 4.27792164,-2.0681038e-05 C6.64058429,-2.0681038e-05 8.55594877,1.87740396 8.55594877,4.1932666" id="Fill-21" fill="#FEBCA7" mask="url(#mask-6)"></path>
                    </g>
                    <path d="M12.8830205,17.3379483 L12.8735259,17.4765112 L12.8735259,20.0502664 L7.95282417,17.9067802 C7.63718358,17.7693547 7.3501321,17.5760904 7.10591152,17.3367074 L6.32335073,16.5696477 C5.82857988,16.0846774 5.82857988,15.2987979 6.32335073,14.8148616 C6.81812157,14.3298913 7.61882748,14.3298913 8.11359832,14.8148616 L9.06252449,15.7200707 C9.33913199,15.9839607 9.66954185,16.1874621 10.0320222,16.3172356 L12.8830205,17.3379483 Z" id="Fill-24" fill="#09263E"></path>
                    <path d="M33.2488011,18.1455428 L32.6464256,20.8247713 C32.432271,20.7720346 32.2307759,20.6624251 32.0651489,20.4980109 L27.8675089,16.3524968 C27.3748479,15.8664924 27.3780128,15.080613 27.8748935,14.5977107 C28.3707193,14.1148085 29.1724802,14.1179106 29.6651411,14.603915 L33.2488011,18.1455428 Z" id="Fill-26" fill="#BD7E41"></path>
                    <path d="M21.1403766,19.6240509 C20.9288594,19.6240509 20.7138609,19.5961315 20.5001284,19.5376042 L10.6343556,16.8346959 C9.37179319,16.4888055 8.63438419,15.2052369 8.98726447,13.9676836 C9.34014474,12.7301303 10.6497578,12.0072246 11.9122147,12.3532183 L21.7779875,15.0561266 C23.0405498,15.4019136 23.7779588,16.6855856 23.4250786,17.9231389 C23.1319084,18.9511933 22.1785514,19.6240509 21.1403766,19.6240509" id="Fill-28" fill="#0F385A"></path>
                    <polygon id="Fill-30" fill="#0D8DBB" points="26.5266693 28.1302715 31.0059806 28.1302715 31.0059806 28.1115128 26.5266693 28.1115128"></polygon>
                </g>
            </g>
        </g>
    </g>
</svg>