<svg xmlns="http://www.w3.org/2000/svg" xmlns:xlink="http://www.w3.org/1999/xlink" width="500" zoomAndPan="magnify" viewBox="0 0 375 74.999997" height="100" preserveAspectRatio="xMidYMid meet" version="1.0"><defs><g/><clipPath id="09bf7a8513"><path d="M 282.757812 28 L 299 28 L 299 45 L 282.757812 45 Z M 282.757812 28 " clip-rule="nonzero"/></clipPath><clipPath id="a93c657b85"><path d="M 356 0 L 372.714844 0 L 372.714844 16 L 356 16 Z M 356 0 " clip-rule="nonzero"/></clipPath></defs><rect x="-37.5" width="450" fill="#ffffff" y="-7.5" height="89.999996" fill-opacity="1"/><rect x="-37.5" width="450" fill="#ffffff" y="-7.5" height="89.999996" fill-opacity="1"/><path fill="#008fc5" d="M 326.632812 30.683594 L 347.695312 30.683594 L 347.695312 51.691406 L 326.632812 51.691406 Z M 326.632812 30.683594 " fill-opacity="1" fill-rule="evenodd"/><g clip-path="url(#09bf7a8513)"><path fill="#008fc5" d="M 282.714844 28.902344 L 298.671875 28.902344 L 298.671875 44.816406 L 282.714844 44.816406 Z M 282.714844 28.902344 " fill-opacity="1" fill-rule="evenodd"/></g><g clip-path="url(#a93c657b85)"><path fill="#008fc5" d="M 356.757812 0.00390625 L 372.714844 0.00390625 L 372.714844 15.917969 L 356.757812 15.917969 Z M 356.757812 0.00390625 " fill-opacity="1" fill-rule="evenodd"/></g><path fill="#008fc5" d="M 345.714844 57.738281 L 355.289062 57.738281 L 355.289062 67.285156 L 345.714844 67.285156 Z M 345.714844 57.738281 " fill-opacity="1" fill-rule="evenodd"/><path fill="#52c528" d="M 311.40625 16.523438 L 321.941406 16.523438 L 321.941406 27.023438 L 311.40625 27.023438 Z M 311.40625 16.523438 " fill-opacity="1" fill-rule="evenodd"/><path fill="#52c528" d="M 305.183594 54.460938 L 325.769531 54.460938 L 325.769531 74.988281 L 305.183594 74.988281 Z M 305.183594 54.460938 " fill-opacity="1" fill-rule="evenodd"/><path fill="#52c528" d="M 286.464844 50.417969 L 298.289062 50.417969 L 298.289062 62.210938 L 286.464844 62.210938 Z M 286.464844 50.417969 " fill-opacity="1" fill-rule="evenodd"/><path fill="#52c528" d="M 352.160156 32.976562 L 362.375 32.976562 L 362.375 43.164062 L 352.160156 43.164062 Z M 352.160156 32.976562 " fill-opacity="1" fill-rule="evenodd"/><path fill="#52c528" d="M 343.992188 3.695312 L 354.203125 3.695312 L 354.203125 13.878906 L 343.992188 13.878906 Z M 343.992188 3.695312 " fill-opacity="1" fill-rule="evenodd"/><path fill="#008fc5" d="M 349.464844 63.15625 L 336.445312 42.34375 L 290.582031 38.074219 L 290.804688 35.648438 L 337.882812 40.03125 L 351.542969 61.867188 Z M 349.464844 63.15625 " fill-opacity="1" fill-rule="nonzero"/><path fill="#008fc5" d="M 336.207031 40.433594 L 365.3125 3.769531 L 367.226562 5.277344 L 338.121094 41.941406 Z M 336.207031 40.433594 " fill-opacity="1" fill-rule="nonzero"/><g fill="#008fc5" fill-opacity="1"><g transform="translate(0.0000075, 50.624994)"><g><path d="M 23.65625 -7.234375 C 23.65625 -4.816406 22.707031 -2.941406 20.8125 -1.609375 C 18.925781 -0.285156 16.265625 0.375 12.828125 0.375 C 6.441406 0.375 2.742188 -1.84375 1.734375 -6.28125 L 5.171875 -6.96875 C 5.566406 -5.394531 6.410156 -4.238281 7.703125 -3.5 C 8.992188 -2.769531 10.75 -2.40625 12.96875 -2.40625 C 15.257812 -2.40625 17.023438 -2.796875 18.265625 -3.578125 C 19.515625 -4.367188 20.140625 -5.523438 20.140625 -7.046875 C 20.140625 -7.898438 19.941406 -8.59375 19.546875 -9.125 C 19.160156 -9.664062 18.613281 -10.109375 17.90625 -10.453125 C 17.207031 -10.796875 16.363281 -11.085938 15.375 -11.328125 C 14.394531 -11.566406 13.3125 -11.820312 12.125 -12.09375 C 10.050781 -12.550781 8.476562 -13.007812 7.40625 -13.46875 C 6.332031 -13.925781 5.484375 -14.4375 4.859375 -15 C 4.242188 -15.5625 3.769531 -16.21875 3.4375 -16.96875 C 3.113281 -17.726562 2.953125 -18.601562 2.953125 -19.59375 C 2.953125 -21.832031 3.8125 -23.554688 5.53125 -24.765625 C 7.25 -25.984375 9.707031 -26.59375 12.90625 -26.59375 C 15.882812 -26.59375 18.160156 -26.132812 19.734375 -25.21875 C 21.304688 -24.3125 22.410156 -22.765625 23.046875 -20.578125 L 19.546875 -19.953125 C 19.160156 -21.347656 18.425781 -22.359375 17.34375 -22.984375 C 16.269531 -23.609375 14.78125 -23.921875 12.875 -23.921875 C 10.78125 -23.921875 9.179688 -23.570312 8.078125 -22.875 C 6.972656 -22.1875 6.421875 -21.148438 6.421875 -19.765625 C 6.421875 -18.960938 6.632812 -18.296875 7.0625 -17.765625 C 7.488281 -17.242188 8.101562 -16.800781 8.90625 -16.4375 C 9.71875 -16.070312 11.328125 -15.617188 13.734375 -15.078125 C 14.535156 -14.898438 15.332031 -14.710938 16.125 -14.515625 C 16.925781 -14.328125 17.691406 -14.097656 18.421875 -13.828125 C 19.160156 -13.554688 19.847656 -13.238281 20.484375 -12.875 C 21.128906 -12.519531 21.6875 -12.082031 22.15625 -11.5625 C 22.625 -11.039062 22.988281 -10.425781 23.25 -9.71875 C 23.519531 -9.019531 23.65625 -8.191406 23.65625 -7.234375 Z M 23.65625 -7.234375 "/></g></g></g><g fill="#008fc5" fill-opacity="1"><g transform="translate(25.410845, 50.624994)"><g><path d="M 5.140625 -9.359375 C 5.140625 -7.046875 5.613281 -5.265625 6.5625 -4.015625 C 7.519531 -2.765625 8.914062 -2.140625 10.75 -2.140625 C 12.195312 -2.140625 13.359375 -2.429688 14.234375 -3.015625 C 15.109375 -3.597656 15.703125 -4.335938 16.015625 -5.234375 L 18.953125 -4.390625 C 17.753906 -1.210938 15.019531 0.375 10.75 0.375 C 7.769531 0.375 5.503906 -0.507812 3.953125 -2.28125 C 2.398438 -4.0625 1.625 -6.695312 1.625 -10.1875 C 1.625 -13.507812 2.398438 -16.054688 3.953125 -17.828125 C 5.503906 -19.609375 7.726562 -20.5 10.625 -20.5 C 16.539062 -20.5 19.5 -16.929688 19.5 -9.796875 L 19.5 -9.359375 Z M 16.03125 -11.921875 C 15.84375 -14.046875 15.300781 -15.59375 14.40625 -16.5625 C 13.519531 -17.539062 12.238281 -18.03125 10.5625 -18.03125 C 8.9375 -18.03125 7.648438 -17.484375 6.703125 -16.390625 C 5.753906 -15.304688 5.242188 -13.816406 5.171875 -11.921875 Z M 16.03125 -11.921875 "/></g></g></g><g fill="#008fc5" fill-opacity="1"><g transform="translate(46.59895, 50.624994)"><g><path d="M 2.640625 0 L 2.640625 -15.4375 C 2.640625 -16.851562 2.601562 -18.414062 2.53125 -20.125 L 5.6875 -20.125 C 5.789062 -17.84375 5.84375 -16.472656 5.84375 -16.015625 L 5.921875 -16.015625 C 6.453125 -17.734375 7.0625 -18.910156 7.75 -19.546875 C 8.445312 -20.179688 9.425781 -20.5 10.6875 -20.5 C 11.132812 -20.5 11.585938 -20.4375 12.046875 -20.3125 L 12.046875 -17.25 C 11.609375 -17.363281 11.015625 -17.421875 10.265625 -17.421875 C 8.878906 -17.421875 7.816406 -16.820312 7.078125 -15.625 C 6.347656 -14.4375 5.984375 -12.722656 5.984375 -10.484375 L 5.984375 0 Z M 2.640625 0 "/></g></g></g><g fill="#008fc5" fill-opacity="1"><g transform="translate(59.285766, 50.624994)"><g><path d="M 11.40625 0 L 7.4375 0 L 0.125 -20.125 L 3.703125 -20.125 L 8.125 -7.03125 C 8.289062 -6.53125 8.71875 -5.0625 9.40625 -2.625 L 10.0625 -4.796875 L 10.78125 -7 L 15.359375 -20.125 L 18.921875 -20.125 Z M 11.40625 0 "/></g></g></g><g fill="#008fc5" fill-opacity="1"><g transform="translate(78.334593, 50.624994)"><g><path d="M 2.546875 -24.40625 L 2.546875 -27.609375 L 5.890625 -27.609375 L 5.890625 -24.40625 Z M 2.546875 0 L 2.546875 -20.125 L 5.890625 -20.125 L 5.890625 0 Z M 2.546875 0 "/></g></g></g><g fill="#008fc5" fill-opacity="1"><g transform="translate(86.798677, 50.624994)"><g><path d="M 5.109375 -10.15625 C 5.109375 -7.476562 5.53125 -5.492188 6.375 -4.203125 C 7.21875 -2.910156 8.488281 -2.265625 10.1875 -2.265625 C 11.382812 -2.265625 12.378906 -2.585938 13.171875 -3.234375 C 13.972656 -3.878906 14.46875 -4.875 14.65625 -6.21875 L 18.046875 -5.984375 C 17.785156 -4.054688 16.957031 -2.515625 15.5625 -1.359375 C 14.175781 -0.203125 12.414062 0.375 10.28125 0.375 C 7.46875 0.375 5.320312 -0.515625 3.84375 -2.296875 C 2.363281 -4.078125 1.625 -6.671875 1.625 -10.078125 C 1.625 -13.460938 2.363281 -16.046875 3.84375 -17.828125 C 5.332031 -19.609375 7.46875 -20.5 10.25 -20.5 C 12.3125 -20.5 14.019531 -19.960938 15.375 -18.890625 C 16.726562 -17.828125 17.582031 -16.359375 17.9375 -14.484375 L 14.484375 -14.234375 C 14.316406 -15.347656 13.878906 -16.234375 13.171875 -16.890625 C 12.460938 -17.546875 11.457031 -17.875 10.15625 -17.875 C 8.382812 -17.875 7.097656 -17.285156 6.296875 -16.109375 C 5.503906 -14.929688 5.109375 -12.945312 5.109375 -10.15625 Z M 5.109375 -10.15625 "/></g></g></g><g fill="#008fc5" fill-opacity="1"><g transform="translate(105.847504, 50.624994)"><g><path d="M 5.140625 -9.359375 C 5.140625 -7.046875 5.613281 -5.265625 6.5625 -4.015625 C 7.519531 -2.765625 8.914062 -2.140625 10.75 -2.140625 C 12.195312 -2.140625 13.359375 -2.429688 14.234375 -3.015625 C 15.109375 -3.597656 15.703125 -4.335938 16.015625 -5.234375 L 18.953125 -4.390625 C 17.753906 -1.210938 15.019531 0.375 10.75 0.375 C 7.769531 0.375 5.503906 -0.507812 3.953125 -2.28125 C 2.398438 -4.0625 1.625 -6.695312 1.625 -10.1875 C 1.625 -13.507812 2.398438 -16.054688 3.953125 -17.828125 C 5.503906 -19.609375 7.726562 -20.5 10.625 -20.5 C 16.539062 -20.5 19.5 -16.929688 19.5 -9.796875 L 19.5 -9.359375 Z M 16.03125 -11.921875 C 15.84375 -14.046875 15.300781 -15.59375 14.40625 -16.5625 C 13.519531 -17.539062 12.238281 -18.03125 10.5625 -18.03125 C 8.9375 -18.03125 7.648438 -17.484375 6.703125 -16.390625 C 5.753906 -15.304688 5.242188 -13.816406 5.171875 -11.921875 Z M 16.03125 -11.921875 "/></g></g></g><g fill="#0a2841" fill-opacity="1"><g transform="translate(127.04297, 50.624994)"><g/></g></g><g fill="#52c528" fill-opacity="1"><g transform="translate(137.636719, 50.624994)"><g><path d="M 24.109375 -17.90625 C 24.109375 -16.21875 23.722656 -14.710938 22.953125 -13.390625 C 22.179688 -12.066406 21.078125 -11.039062 19.640625 -10.3125 C 18.210938 -9.582031 16.515625 -9.21875 14.546875 -9.21875 L 8.03125 -9.21875 L 8.03125 0 L 2.546875 0 L 2.546875 -26.203125 L 14.328125 -26.203125 C 17.460938 -26.203125 19.875 -25.476562 21.5625 -24.03125 C 23.257812 -22.59375 24.109375 -20.550781 24.109375 -17.90625 Z M 18.578125 -17.8125 C 18.578125 -20.570312 16.953125 -21.953125 13.703125 -21.953125 L 8.03125 -21.953125 L 8.03125 -13.453125 L 13.859375 -13.453125 C 15.367188 -13.453125 16.53125 -13.828125 17.34375 -14.578125 C 18.164062 -15.328125 18.578125 -16.40625 18.578125 -17.8125 Z M 18.578125 -17.8125 "/></g></g></g><g fill="#52c528" fill-opacity="1"><g transform="translate(163.047556, 50.624994)"><g><path d="M 7.3125 0.375 C 5.363281 0.375 3.84375 -0.15625 2.75 -1.21875 C 1.65625 -2.28125 1.109375 -3.769531 1.109375 -5.6875 C 1.109375 -7.769531 1.785156 -9.359375 3.140625 -10.453125 C 4.503906 -11.546875 6.476562 -12.101562 9.0625 -12.125 L 13.390625 -12.203125 L 13.390625 -13.21875 C 13.390625 -14.539062 13.160156 -15.519531 12.703125 -16.15625 C 12.242188 -16.789062 11.492188 -17.109375 10.453125 -17.109375 C 9.484375 -17.109375 8.769531 -16.890625 8.3125 -16.453125 C 7.863281 -16.015625 7.585938 -15.285156 7.484375 -14.265625 L 2.03125 -14.53125 C 2.363281 -16.488281 3.257812 -17.972656 4.71875 -18.984375 C 6.175781 -19.992188 8.160156 -20.5 10.671875 -20.5 C 13.210938 -20.5 15.171875 -19.867188 16.546875 -18.609375 C 17.929688 -17.359375 18.625 -15.582031 18.625 -13.28125 L 18.625 -5.953125 C 18.625 -4.828125 18.75 -4.046875 19 -3.609375 C 19.25 -3.179688 19.675781 -2.96875 20.28125 -2.96875 C 20.675781 -2.96875 21.054688 -3.007812 21.421875 -3.09375 L 21.421875 -0.265625 C 21.117188 -0.191406 20.84375 -0.125 20.59375 -0.0625 C 20.34375 0 20.09375 0.0507812 19.84375 0.09375 C 19.59375 0.132812 19.328125 0.164062 19.046875 0.1875 C 18.773438 0.207031 18.453125 0.21875 18.078125 0.21875 C 16.765625 0.21875 15.796875 -0.101562 15.171875 -0.75 C 14.546875 -1.394531 14.171875 -2.34375 14.046875 -3.59375 L 13.9375 -3.59375 C 12.46875 -0.945312 10.257812 0.375 7.3125 0.375 Z M 13.390625 -9.3125 L 10.71875 -9.28125 C 9.5 -9.226562 8.632812 -9.09375 8.125 -8.875 C 7.613281 -8.664062 7.222656 -8.335938 6.953125 -7.890625 C 6.691406 -7.441406 6.5625 -6.84375 6.5625 -6.09375 C 6.5625 -5.144531 6.78125 -4.4375 7.21875 -3.96875 C 7.664062 -3.507812 8.253906 -3.28125 8.984375 -3.28125 C 9.804688 -3.28125 10.550781 -3.5 11.21875 -3.9375 C 11.894531 -4.382812 12.425781 -5 12.8125 -5.78125 C 13.195312 -6.570312 13.390625 -7.410156 13.390625 -8.296875 Z M 13.390625 -9.3125 "/></g></g></g><g fill="#52c528" fill-opacity="1"><g transform="translate(184.235661, 50.624994)"><g><path d="M 2.65625 0 L 2.65625 -15.40625 C 2.65625 -16.507812 2.640625 -17.425781 2.609375 -18.15625 C 2.578125 -18.894531 2.546875 -19.550781 2.515625 -20.125 L 7.5 -20.125 C 7.53125 -19.90625 7.578125 -19.226562 7.640625 -18.09375 C 7.703125 -16.957031 7.734375 -16.203125 7.734375 -15.828125 L 7.8125 -15.828125 C 8.320312 -17.242188 8.773438 -18.238281 9.171875 -18.8125 C 9.566406 -19.382812 10.035156 -19.8125 10.578125 -20.09375 C 11.128906 -20.375 11.8125 -20.515625 12.625 -20.515625 C 13.300781 -20.515625 13.84375 -20.421875 14.25 -20.234375 L 14.25 -15.859375 C 13.40625 -16.046875 12.660156 -16.140625 12.015625 -16.140625 C 10.710938 -16.140625 9.695312 -15.613281 8.96875 -14.5625 C 8.25 -13.507812 7.890625 -11.945312 7.890625 -9.875 L 7.890625 0 Z M 2.65625 0 "/></g></g></g><g fill="#52c528" fill-opacity="1"><g transform="translate(199.061755, 50.624994)"><g><path d="M 7.8125 0.328125 C 6.269531 0.328125 5.082031 -0.0859375 4.25 -0.921875 C 3.425781 -1.753906 3.015625 -3.019531 3.015625 -4.71875 L 3.015625 -16.59375 L 0.46875 -16.59375 L 0.46875 -20.125 L 3.28125 -20.125 L 4.90625 -24.84375 L 8.1875 -24.84375 L 8.1875 -20.125 L 12 -20.125 L 12 -16.59375 L 8.1875 -16.59375 L 8.1875 -6.140625 C 8.1875 -5.160156 8.367188 -4.4375 8.734375 -3.96875 C 9.109375 -3.507812 9.6875 -3.28125 10.46875 -3.28125 C 10.875 -3.28125 11.457031 -3.363281 12.21875 -3.53125 L 12.21875 -0.296875 C 10.925781 0.117188 9.457031 0.328125 7.8125 0.328125 Z M 7.8125 0.328125 "/></g></g></g><g fill="#52c528" fill-opacity="1"><g transform="translate(211.748571, 50.624994)"><g><path d="M 15.703125 0 L 15.703125 -11.296875 C 15.703125 -14.828125 14.503906 -16.59375 12.109375 -16.59375 C 10.847656 -16.59375 9.828125 -16.050781 9.046875 -14.96875 C 8.273438 -13.882812 7.890625 -12.488281 7.890625 -10.78125 L 7.890625 0 L 2.65625 0 L 2.65625 -15.625 C 2.65625 -16.707031 2.640625 -17.59375 2.609375 -18.28125 C 2.578125 -18.96875 2.546875 -19.582031 2.515625 -20.125 L 7.5 -20.125 C 7.53125 -19.882812 7.578125 -19.253906 7.640625 -18.234375 C 7.703125 -17.210938 7.734375 -16.507812 7.734375 -16.125 L 7.8125 -16.125 C 8.519531 -17.664062 9.40625 -18.78125 10.46875 -19.46875 C 11.539062 -20.164062 12.8125 -20.515625 14.28125 -20.515625 C 16.414062 -20.515625 18.050781 -19.859375 19.1875 -18.546875 C 20.332031 -17.234375 20.90625 -15.3125 20.90625 -12.78125 L 20.90625 0 Z M 15.703125 0 "/></g></g></g><g fill="#52c528" fill-opacity="1"><g transform="translate(235.020141, 50.624994)"><g><path d="M 10.90625 0.375 C 7.875 0.375 5.546875 -0.519531 3.921875 -2.3125 C 2.296875 -4.101562 1.484375 -6.71875 1.484375 -10.15625 C 1.484375 -13.476562 2.304688 -16.03125 3.953125 -17.8125 C 5.609375 -19.601562 7.945312 -20.5 10.96875 -20.5 C 13.863281 -20.5 16.070312 -19.539062 17.59375 -17.625 C 19.125 -15.707031 19.890625 -12.898438 19.890625 -9.203125 L 19.890625 -9.0625 L 6.96875 -9.0625 C 6.96875 -7.101562 7.332031 -5.625 8.0625 -4.625 C 8.789062 -3.625 9.820312 -3.125 11.15625 -3.125 C 13.007812 -3.125 14.175781 -3.925781 14.65625 -5.53125 L 19.59375 -5.09375 C 18.164062 -1.445312 15.269531 0.375 10.90625 0.375 Z M 10.90625 -17.203125 C 9.675781 -17.203125 8.726562 -16.773438 8.0625 -15.921875 C 7.394531 -15.066406 7.046875 -13.867188 7.015625 -12.328125 L 14.828125 -12.328125 C 14.722656 -13.953125 14.328125 -15.171875 13.640625 -15.984375 C 12.960938 -16.796875 12.050781 -17.203125 10.90625 -17.203125 Z M 10.90625 -17.203125 "/></g></g></g><g fill="#52c528" fill-opacity="1"><g transform="translate(256.208246, 50.624994)"><g><path d="M 2.65625 0 L 2.65625 -15.40625 C 2.65625 -16.507812 2.640625 -17.425781 2.609375 -18.15625 C 2.578125 -18.894531 2.546875 -19.550781 2.515625 -20.125 L 7.5 -20.125 C 7.53125 -19.90625 7.578125 -19.226562 7.640625 -18.09375 C 7.703125 -16.957031 7.734375 -16.203125 7.734375 -15.828125 L 7.8125 -15.828125 C 8.320312 -17.242188 8.773438 -18.238281 9.171875 -18.8125 C 9.566406 -19.382812 10.035156 -19.8125 10.578125 -20.09375 C 11.128906 -20.375 11.8125 -20.515625 12.625 -20.515625 C 13.300781 -20.515625 13.84375 -20.421875 14.25 -20.234375 L 14.25 -15.859375 C 13.40625 -16.046875 12.660156 -16.140625 12.015625 -16.140625 C 10.710938 -16.140625 9.695312 -15.613281 8.96875 -14.5625 C 8.25 -13.507812 7.890625 -11.945312 7.890625 -9.875 L 7.890625 0 Z M 2.65625 0 "/></g></g></g></svg>