<svg xmlns="http://www.w3.org/2000/svg" xmlns:xlink="http://www.w3.org/1999/xlink" width="205" zoomAndPan="magnify" viewBox="0 0 153.75 32.249999" height="43" preserveAspectRatio="xMidYMid meet" version="1.0"><defs><g/><clipPath id="id1"><path d="M 1.625 0 L 38.332031 0 L 38.332031 31.515625 L 1.625 31.515625 Z M 1.625 0 " clip-rule="nonzero"/></clipPath><clipPath id="id2"><path d="M 35.710938 21.707031 C 35.589844 21.667969 35.464844 21.640625 35.339844 21.613281 L 33.570312 27.296875 C 33.257812 27.503906 32.9375 27.699219 32.609375 27.890625 C 32.453125 27.980469 32.300781 28.070312 32.144531 28.152344 C 30.847656 28.867188 29.488281 29.429688 28.066406 29.835938 L 31.945312 17.386719 L 33.449219 18.554688 L 31.703125 10.875 L 28.847656 13.507812 L 28.523438 13.808594 L 25.90625 16.214844 L 27.804688 16.105469 L 23.28125 30.605469 C 23.171875 30.605469 23.0625 30.605469 22.949219 30.617188 C 21.511719 30.652344 20.089844 30.53125 18.683594 30.25 L 26.085938 6.523438 L 27.585938 7.691406 L 26.800781 4.207031 L 26.433594 2.578125 L 25.847656 0 L 23.894531 1.796875 L 22.667969 2.929688 L 20.050781 5.339844 L 21.949219 5.226562 L 14.550781 28.96875 C 13.230469 28.402344 11.988281 27.695312 10.824219 26.851562 C 10.738281 26.785156 10.648438 26.722656 10.558594 26.652344 L 15.078125 12.152344 L 16.578125 13.320312 L 15.792969 9.863281 L 15.695312 9.421875 L 14.839844 5.636719 L 9.042969 10.976562 L 10.941406 10.867188 L 7.058594 23.316406 C 6.117188 22.171875 5.316406 20.941406 4.65625 19.617188 C 4.574219 19.460938 4.5 19.304688 4.421875 19.144531 C 4.261719 18.800781 4.109375 18.453125 3.972656 18.109375 L 5.742188 12.425781 C 5.625 12.375 5.503906 12.332031 5.378906 12.292969 C 4.734375 12.09375 4.078125 12.066406 3.417969 12.21875 C 2.757812 12.367188 2.183594 12.675781 1.6875 13.136719 C 1.808594 14.132812 2.003906 15.117188 2.265625 16.085938 C 2.53125 17.054688 2.863281 18 3.261719 18.921875 C 3.664062 19.84375 4.125 20.730469 4.65625 21.585938 C 5.183594 22.441406 5.769531 23.253906 6.414062 24.023438 C 7.058594 24.796875 7.753906 25.515625 8.503906 26.1875 C 9.25 26.859375 10.042969 27.472656 10.878906 28.03125 C 11.71875 28.589844 12.589844 29.085938 13.5 29.519531 C 14.40625 29.949219 15.339844 30.316406 16.300781 30.617188 C 17.261719 30.914062 18.238281 31.140625 19.234375 31.296875 C 20.226562 31.457031 21.226562 31.542969 22.234375 31.558594 C 23.238281 31.570312 24.242188 31.515625 25.238281 31.386719 C 26.234375 31.257812 27.21875 31.058594 28.1875 30.789062 C 29.15625 30.519531 30.101562 30.179688 31.023438 29.773438 C 31.945312 29.371094 32.832031 28.902344 33.683594 28.371094 C 34.535156 27.835938 35.347656 27.246094 36.117188 26.597656 C 36.882812 25.949219 37.601562 25.25 38.269531 24.5 C 38.125 23.839844 37.824219 23.257812 37.367188 22.757812 C 36.910156 22.257812 36.359375 21.910156 35.710938 21.707031 Z M 35.710938 21.707031 " clip-rule="nonzero"/></clipPath><linearGradient x1="119.333855" gradientTransform="matrix(0.210846, 0, 0, 0.210385, 1.687738, 0)" y1="-16.637807" x2="62.327868" gradientUnits="userSpaceOnUse" y2="168.951202" id="id3"><stop stop-opacity="1" stop-color="rgb(32.899475%, 32.899475%, 32.899475%)" offset="0"/><stop stop-opacity="1" stop-color="rgb(32.899475%, 32.899475%, 32.899475%)" offset="0.0625"/><stop stop-opacity="1" stop-color="rgb(32.899475%, 32.899475%, 32.899475%)" offset="0.078125"/><stop stop-opacity="1" stop-color="rgb(32.899475%, 32.899475%, 32.899475%)" offset="0.0859375"/><stop stop-opacity="1" stop-color="rgb(32.907104%, 33.058167%, 33.149719%)" offset="0.0898438"/><stop stop-opacity="1" stop-color="rgb(32.91626%, 33.218384%, 33.401489%)" offset="0.09375"/><stop stop-opacity="1" stop-color="rgb(32.925415%, 33.399963%, 33.686829%)" offset="0.0976563"/><stop stop-opacity="1" stop-color="rgb(32.936096%, 33.583069%, 33.973694%)" offset="0.101562"/><stop stop-opacity="1" stop-color="rgb(32.945251%, 33.764648%, 34.259033%)" offset="0.105469"/><stop stop-opacity="1" stop-color="rgb(32.955933%, 33.947754%, 34.545898%)" offset="0.109375"/><stop stop-opacity="1" stop-color="rgb(32.966614%, 34.129333%, 34.831238%)" offset="0.113281"/><stop stop-opacity="1" stop-color="rgb(32.977295%, 34.312439%, 35.118103%)" offset="0.117188"/><stop stop-opacity="1" stop-color="rgb(32.98645%, 34.494019%, 35.403442%)" offset="0.121094"/><stop stop-opacity="1" stop-color="rgb(32.997131%, 34.677124%, 35.690308%)" offset="0.125"/><stop stop-opacity="1" stop-color="rgb(33.006287%, 34.858704%, 35.975647%)" offset="0.128906"/><stop stop-opacity="1" stop-color="rgb(33.016968%, 35.041809%, 36.262512%)" offset="0.132812"/><stop stop-opacity="1" stop-color="rgb(33.026123%, 35.223389%, 36.547852%)" offset="0.136719"/><stop stop-opacity="1" stop-color="rgb(33.036804%, 35.404968%, 36.833191%)" offset="0.140625"/><stop stop-opacity="1" stop-color="rgb(33.045959%, 35.586548%, 37.11853%)" offset="0.144531"/><stop stop-opacity="1" stop-color="rgb(33.056641%, 35.769653%, 37.405396%)" offset="0.148438"/><stop stop-opacity="1" stop-color="rgb(33.065796%, 35.951233%, 37.690735%)" offset="0.152344"/><stop stop-opacity="1" stop-color="rgb(33.076477%, 36.134338%, 37.9776%)" offset="0.15625"/><stop stop-opacity="1" stop-color="rgb(33.085632%, 36.315918%, 38.262939%)" offset="0.160156"/><stop stop-opacity="1" stop-color="rgb(33.096313%, 36.499023%, 38.549805%)" offset="0.164063"/><stop stop-opacity="1" stop-color="rgb(33.105469%, 36.680603%, 38.835144%)" offset="0.167969"/><stop stop-opacity="1" stop-color="rgb(33.11615%, 36.863708%, 39.122009%)" offset="0.171875"/><stop stop-opacity="1" stop-color="rgb(33.125305%, 37.045288%, 39.407349%)" offset="0.175781"/><stop stop-opacity="1" stop-color="rgb(33.135986%, 37.228394%, 39.694214%)" offset="0.179688"/><stop stop-opacity="1" stop-color="rgb(33.145142%, 37.409973%, 39.979553%)" offset="0.183594"/><stop stop-opacity="1" stop-color="rgb(33.155823%, 37.593079%, 40.266418%)" offset="0.1875"/><stop stop-opacity="1" stop-color="rgb(33.164978%, 37.774658%, 40.551758%)" offset="0.191406"/><stop stop-opacity="1" stop-color="rgb(33.175659%, 37.956238%, 40.838623%)" offset="0.195313"/><stop stop-opacity="1" stop-color="rgb(33.18634%, 38.137817%, 41.123962%)" offset="0.199219"/><stop stop-opacity="1" stop-color="rgb(33.197021%, 38.320923%, 41.410828%)" offset="0.203125"/><stop stop-opacity="1" stop-color="rgb(33.206177%, 38.502502%, 41.696167%)" offset="0.207031"/><stop stop-opacity="1" stop-color="rgb(33.216858%, 38.685608%, 41.983032%)" offset="0.210938"/><stop stop-opacity="1" stop-color="rgb(33.226013%, 38.867188%, 42.268372%)" offset="0.214844"/><stop stop-opacity="1" stop-color="rgb(33.236694%, 39.050293%, 42.555237%)" offset="0.21875"/><stop stop-opacity="1" stop-color="rgb(33.24585%, 39.231873%, 42.840576%)" offset="0.222656"/><stop stop-opacity="1" stop-color="rgb(33.256531%, 39.414978%, 43.127441%)" offset="0.226563"/><stop stop-opacity="1" stop-color="rgb(33.265686%, 39.596558%, 43.412781%)" offset="0.230469"/><stop stop-opacity="1" stop-color="rgb(33.276367%, 39.779663%, 43.699646%)" offset="0.234375"/><stop stop-opacity="1" stop-color="rgb(33.285522%, 39.961243%, 43.984985%)" offset="0.238281"/><stop stop-opacity="1" stop-color="rgb(33.296204%, 40.144348%, 44.271851%)" offset="0.242188"/><stop stop-opacity="1" stop-color="rgb(33.305359%, 40.325928%, 44.55719%)" offset="0.246094"/><stop stop-opacity="1" stop-color="rgb(33.31604%, 40.509033%, 44.844055%)" offset="0.25"/><stop stop-opacity="1" stop-color="rgb(33.325195%, 40.690613%, 45.129395%)" offset="0.253906"/><stop stop-opacity="1" stop-color="rgb(33.335876%, 40.872192%, 45.41626%)" offset="0.257812"/><stop stop-opacity="1" stop-color="rgb(33.345032%, 41.053772%, 45.701599%)" offset="0.261719"/><stop stop-opacity="1" stop-color="rgb(33.355713%, 41.236877%, 45.988464%)" offset="0.265625"/><stop stop-opacity="1" stop-color="rgb(33.364868%, 41.418457%, 46.273804%)" offset="0.269531"/><stop stop-opacity="1" stop-color="rgb(33.375549%, 41.601562%, 46.560669%)" offset="0.273438"/><stop stop-opacity="1" stop-color="rgb(33.384705%, 41.783142%, 46.846008%)" offset="0.277344"/><stop stop-opacity="1" stop-color="rgb(33.395386%, 41.966248%, 47.132874%)" offset="0.28125"/><stop stop-opacity="1" stop-color="rgb(33.406067%, 42.147827%, 47.418213%)" offset="0.285156"/><stop stop-opacity="1" stop-color="rgb(33.416748%, 42.330933%, 47.705078%)" offset="0.289062"/><stop stop-opacity="1" stop-color="rgb(33.425903%, 42.512512%, 47.990417%)" offset="0.292969"/><stop stop-opacity="1" stop-color="rgb(33.436584%, 42.695618%, 48.277283%)" offset="0.296875"/><stop stop-opacity="1" stop-color="rgb(33.44574%, 42.877197%, 48.562622%)" offset="0.300781"/><stop stop-opacity="1" stop-color="rgb(33.456421%, 43.060303%, 48.849487%)" offset="0.304688"/><stop stop-opacity="1" stop-color="rgb(33.465576%, 43.241882%, 49.134827%)" offset="0.308594"/><stop stop-opacity="1" stop-color="rgb(33.476257%, 43.423462%, 49.421692%)" offset="0.3125"/><stop stop-opacity="1" stop-color="rgb(33.485413%, 43.605042%, 49.707031%)" offset="0.316406"/><stop stop-opacity="1" stop-color="rgb(33.496094%, 43.788147%, 49.993896%)" offset="0.320312"/><stop stop-opacity="1" stop-color="rgb(33.505249%, 43.969727%, 50.279236%)" offset="0.324219"/><stop stop-opacity="1" stop-color="rgb(33.51593%, 44.152832%, 50.566101%)" offset="0.328125"/><stop stop-opacity="1" stop-color="rgb(33.525085%, 44.334412%, 50.85144%)" offset="0.332031"/><stop stop-opacity="1" stop-color="rgb(33.535767%, 44.517517%, 51.138306%)" offset="0.335938"/><stop stop-opacity="1" stop-color="rgb(33.544922%, 44.699097%, 51.423645%)" offset="0.339844"/><stop stop-opacity="1" stop-color="rgb(33.555603%, 44.882202%, 51.71051%)" offset="0.34375"/><stop stop-opacity="1" stop-color="rgb(33.564758%, 45.063782%, 51.99585%)" offset="0.347656"/><stop stop-opacity="1" stop-color="rgb(33.575439%, 45.246887%, 52.282715%)" offset="0.351562"/><stop stop-opacity="1" stop-color="rgb(33.584595%, 45.428467%, 52.568054%)" offset="0.355469"/><stop stop-opacity="1" stop-color="rgb(33.595276%, 45.611572%, 52.854919%)" offset="0.359375"/><stop stop-opacity="1" stop-color="rgb(33.604431%, 45.793152%, 53.140259%)" offset="0.363281"/><stop stop-opacity="1" stop-color="rgb(33.615112%, 45.974731%, 53.427124%)" offset="0.367188"/><stop stop-opacity="1" stop-color="rgb(33.625793%, 46.156311%, 53.712463%)" offset="0.371094"/><stop stop-opacity="1" stop-color="rgb(33.636475%, 46.339417%, 53.999329%)" offset="0.375"/><stop stop-opacity="1" stop-color="rgb(33.64563%, 46.520996%, 54.284668%)" offset="0.378906"/><stop stop-opacity="1" stop-color="rgb(33.656311%, 46.704102%, 54.571533%)" offset="0.382812"/><stop stop-opacity="1" stop-color="rgb(33.665466%, 46.885681%, 54.856873%)" offset="0.386719"/><stop stop-opacity="1" stop-color="rgb(33.676147%, 47.068787%, 55.143738%)" offset="0.390625"/><stop stop-opacity="1" stop-color="rgb(33.685303%, 47.250366%, 55.429077%)" offset="0.394531"/><stop stop-opacity="1" stop-color="rgb(33.695984%, 47.433472%, 55.715942%)" offset="0.398438"/><stop stop-opacity="1" stop-color="rgb(33.705139%, 47.615051%, 56.001282%)" offset="0.402344"/><stop stop-opacity="1" stop-color="rgb(33.71582%, 47.798157%, 56.288147%)" offset="0.40625"/><stop stop-opacity="1" stop-color="rgb(33.724976%, 47.979736%, 56.573486%)" offset="0.410156"/><stop stop-opacity="1" stop-color="rgb(33.735657%, 48.162842%, 56.860352%)" offset="0.414062"/><stop stop-opacity="1" stop-color="rgb(33.744812%, 48.344421%, 57.145691%)" offset="0.417969"/><stop stop-opacity="1" stop-color="rgb(33.755493%, 48.526001%, 57.432556%)" offset="0.421875"/><stop stop-opacity="1" stop-color="rgb(33.764648%, 48.707581%, 57.717896%)" offset="0.425781"/><stop stop-opacity="1" stop-color="rgb(33.77533%, 48.890686%, 58.004761%)" offset="0.429688"/><stop stop-opacity="1" stop-color="rgb(33.784485%, 49.072266%, 58.2901%)" offset="0.433594"/><stop stop-opacity="1" stop-color="rgb(33.795166%, 49.255371%, 58.576965%)" offset="0.4375"/><stop stop-opacity="1" stop-color="rgb(33.804321%, 49.436951%, 58.862305%)" offset="0.441406"/><stop stop-opacity="1" stop-color="rgb(33.815002%, 49.620056%, 59.14917%)" offset="0.445312"/><stop stop-opacity="1" stop-color="rgb(33.824158%, 49.801636%, 59.434509%)" offset="0.449219"/><stop stop-opacity="1" stop-color="rgb(33.834839%, 49.984741%, 59.721375%)" offset="0.453125"/><stop stop-opacity="1" stop-color="rgb(33.843994%, 50.166321%, 60.006714%)" offset="0.457031"/><stop stop-opacity="1" stop-color="rgb(33.854675%, 50.349426%, 60.293579%)" offset="0.460938"/><stop stop-opacity="1" stop-color="rgb(33.865356%, 50.531006%, 60.578918%)" offset="0.464844"/><stop stop-opacity="1" stop-color="rgb(33.876038%, 50.714111%, 60.865784%)" offset="0.46875"/><stop stop-opacity="1" stop-color="rgb(33.885193%, 50.895691%, 61.151123%)" offset="0.472656"/><stop stop-opacity="1" stop-color="rgb(33.895874%, 51.078796%, 61.437988%)" offset="0.476563"/><stop stop-opacity="1" stop-color="rgb(33.905029%, 51.260376%, 61.723328%)" offset="0.480469"/><stop stop-opacity="1" stop-color="rgb(33.91571%, 51.441956%, 62.010193%)" offset="0.484375"/><stop stop-opacity="1" stop-color="rgb(33.924866%, 51.623535%, 62.295532%)" offset="0.488281"/><stop stop-opacity="1" stop-color="rgb(33.935547%, 51.806641%, 62.582397%)" offset="0.492188"/><stop stop-opacity="1" stop-color="rgb(33.944702%, 51.98822%, 62.867737%)" offset="0.496094"/><stop stop-opacity="1" stop-color="rgb(33.955383%, 52.171326%, 63.154602%)" offset="0.5"/><stop stop-opacity="1" stop-color="rgb(33.964539%, 52.352905%, 63.439941%)" offset="0.503906"/><stop stop-opacity="1" stop-color="rgb(33.97522%, 52.536011%, 63.726807%)" offset="0.507812"/><stop stop-opacity="1" stop-color="rgb(33.984375%, 52.71759%, 64.012146%)" offset="0.511719"/><stop stop-opacity="1" stop-color="rgb(33.995056%, 52.900696%, 64.299011%)" offset="0.515625"/><stop stop-opacity="1" stop-color="rgb(34.004211%, 53.082275%, 64.584351%)" offset="0.519531"/><stop stop-opacity="1" stop-color="rgb(34.014893%, 53.265381%, 64.871216%)" offset="0.523438"/><stop stop-opacity="1" stop-color="rgb(34.024048%, 53.44696%, 65.156555%)" offset="0.527344"/><stop stop-opacity="1" stop-color="rgb(34.034729%, 53.630066%, 65.44342%)" offset="0.53125"/><stop stop-opacity="1" stop-color="rgb(34.043884%, 53.811646%, 65.72876%)" offset="0.535156"/><stop stop-opacity="1" stop-color="rgb(34.054565%, 53.993225%, 66.015625%)" offset="0.539062"/><stop stop-opacity="1" stop-color="rgb(34.063721%, 54.174805%, 66.300964%)" offset="0.542969"/><stop stop-opacity="1" stop-color="rgb(34.074402%, 54.35791%, 66.58783%)" offset="0.546875"/><stop stop-opacity="1" stop-color="rgb(34.085083%, 54.53949%, 66.873169%)" offset="0.550781"/><stop stop-opacity="1" stop-color="rgb(34.095764%, 54.722595%, 67.160034%)" offset="0.554688"/><stop stop-opacity="1" stop-color="rgb(34.104919%, 54.904175%, 67.445374%)" offset="0.558594"/><stop stop-opacity="1" stop-color="rgb(34.115601%, 55.08728%, 67.732239%)" offset="0.5625"/><stop stop-opacity="1" stop-color="rgb(34.124756%, 55.26886%, 68.017578%)" offset="0.566406"/><stop stop-opacity="1" stop-color="rgb(34.135437%, 55.451965%, 68.302917%)" offset="0.570312"/><stop stop-opacity="1" stop-color="rgb(34.144592%, 55.633545%, 68.588257%)" offset="0.574219"/><stop stop-opacity="1" stop-color="rgb(34.155273%, 55.81665%, 68.875122%)" offset="0.578125"/><stop stop-opacity="1" stop-color="rgb(34.164429%, 55.99823%, 69.160461%)" offset="0.582031"/><stop stop-opacity="1" stop-color="rgb(34.17511%, 56.181335%, 69.447327%)" offset="0.585938"/><stop stop-opacity="1" stop-color="rgb(34.184265%, 56.362915%, 69.732666%)" offset="0.589844"/><stop stop-opacity="1" stop-color="rgb(34.194946%, 56.544495%, 70.019531%)" offset="0.59375"/><stop stop-opacity="1" stop-color="rgb(34.204102%, 56.726074%, 70.304871%)" offset="0.597656"/><stop stop-opacity="1" stop-color="rgb(34.214783%, 56.90918%, 70.591736%)" offset="0.601562"/><stop stop-opacity="1" stop-color="rgb(34.223938%, 57.090759%, 70.877075%)" offset="0.605469"/><stop stop-opacity="1" stop-color="rgb(34.234619%, 57.273865%, 71.16394%)" offset="0.609375"/><stop stop-opacity="1" stop-color="rgb(34.243774%, 57.455444%, 71.44928%)" offset="0.613281"/><stop stop-opacity="1" stop-color="rgb(34.254456%, 57.63855%, 71.736145%)" offset="0.617188"/><stop stop-opacity="1" stop-color="rgb(34.263611%, 57.820129%, 72.021484%)" offset="0.621094"/><stop stop-opacity="1" stop-color="rgb(34.274292%, 58.003235%, 72.30835%)" offset="0.625"/><stop stop-opacity="1" stop-color="rgb(34.283447%, 58.184814%, 72.593689%)" offset="0.628906"/><stop stop-opacity="1" stop-color="rgb(34.294128%, 58.36792%, 72.880554%)" offset="0.632812"/><stop stop-opacity="1" stop-color="rgb(34.30481%, 58.5495%, 73.165894%)" offset="0.636719"/><stop stop-opacity="1" stop-color="rgb(34.315491%, 58.732605%, 73.452759%)" offset="0.640625"/><stop stop-opacity="1" stop-color="rgb(34.324646%, 58.914185%, 73.738098%)" offset="0.644531"/><stop stop-opacity="1" stop-color="rgb(34.335327%, 59.09729%, 74.024963%)" offset="0.648438"/><stop stop-opacity="1" stop-color="rgb(34.344482%, 59.27887%, 74.310303%)" offset="0.652344"/><stop stop-opacity="1" stop-color="rgb(34.355164%, 59.460449%, 74.597168%)" offset="0.65625"/><stop stop-opacity="1" stop-color="rgb(34.364319%, 59.642029%, 74.882507%)" offset="0.660156"/><stop stop-opacity="1" stop-color="rgb(34.375%, 59.825134%, 75.169373%)" offset="0.664062"/><stop stop-opacity="1" stop-color="rgb(34.384155%, 60.006714%, 75.454712%)" offset="0.667969"/><stop stop-opacity="1" stop-color="rgb(34.394836%, 60.189819%, 75.741577%)" offset="0.671875"/><stop stop-opacity="1" stop-color="rgb(34.403992%, 60.371399%, 76.026917%)" offset="0.675781"/><stop stop-opacity="1" stop-color="rgb(34.414673%, 60.554504%, 76.313782%)" offset="0.679688"/><stop stop-opacity="1" stop-color="rgb(34.423828%, 60.736084%, 76.599121%)" offset="0.683594"/><stop stop-opacity="1" stop-color="rgb(34.434509%, 60.919189%, 76.885986%)" offset="0.6875"/><stop stop-opacity="1" stop-color="rgb(34.443665%, 61.100769%, 77.171326%)" offset="0.691406"/><stop stop-opacity="1" stop-color="rgb(34.454346%, 61.283875%, 77.458191%)" offset="0.695312"/><stop stop-opacity="1" stop-color="rgb(34.463501%, 61.465454%, 77.74353%)" offset="0.699219"/><stop stop-opacity="1" stop-color="rgb(34.474182%, 61.64856%, 78.030396%)" offset="0.703125"/><stop stop-opacity="1" stop-color="rgb(34.483337%, 61.830139%, 78.315735%)" offset="0.707031"/><stop stop-opacity="1" stop-color="rgb(34.494019%, 62.011719%, 78.6026%)" offset="0.710938"/><stop stop-opacity="1" stop-color="rgb(34.503174%, 62.193298%, 78.887939%)" offset="0.714844"/><stop stop-opacity="1" stop-color="rgb(34.513855%, 62.376404%, 79.174805%)" offset="0.71875"/><stop stop-opacity="1" stop-color="rgb(34.52301%, 62.557983%, 79.460144%)" offset="0.722656"/><stop stop-opacity="1" stop-color="rgb(34.533691%, 62.741089%, 79.747009%)" offset="0.726562"/><stop stop-opacity="1" stop-color="rgb(34.544373%, 62.922668%, 80.032349%)" offset="0.730469"/><stop stop-opacity="1" stop-color="rgb(34.555054%, 63.105774%, 80.319214%)" offset="0.734375"/><stop stop-opacity="1" stop-color="rgb(34.564209%, 63.287354%, 80.604553%)" offset="0.738281"/><stop stop-opacity="1" stop-color="rgb(34.57489%, 63.470459%, 80.891418%)" offset="0.742188"/><stop stop-opacity="1" stop-color="rgb(34.584045%, 63.652039%, 81.176758%)" offset="0.746094"/><stop stop-opacity="1" stop-color="rgb(34.594727%, 63.835144%, 81.463623%)" offset="0.75"/><stop stop-opacity="1" stop-color="rgb(34.603882%, 64.016724%, 81.748962%)" offset="0.753906"/><stop stop-opacity="1" stop-color="rgb(34.614563%, 64.199829%, 82.035828%)" offset="0.757812"/><stop stop-opacity="1" stop-color="rgb(34.623718%, 64.381409%, 82.321167%)" offset="0.761719"/><stop stop-opacity="1" stop-color="rgb(34.634399%, 64.562988%, 82.608032%)" offset="0.765625"/><stop stop-opacity="1" stop-color="rgb(34.643555%, 64.744568%, 82.893372%)" offset="0.769531"/><stop stop-opacity="1" stop-color="rgb(34.654236%, 64.927673%, 83.180237%)" offset="0.773438"/><stop stop-opacity="1" stop-color="rgb(34.663391%, 65.109253%, 83.465576%)" offset="0.777344"/><stop stop-opacity="1" stop-color="rgb(34.674072%, 65.292358%, 83.752441%)" offset="0.78125"/><stop stop-opacity="1" stop-color="rgb(34.683228%, 65.473938%, 84.037781%)" offset="0.785156"/><stop stop-opacity="1" stop-color="rgb(34.693909%, 65.657043%, 84.324646%)" offset="0.789062"/><stop stop-opacity="1" stop-color="rgb(34.703064%, 65.838623%, 84.609985%)" offset="0.792969"/><stop stop-opacity="1" stop-color="rgb(34.713745%, 66.021729%, 84.896851%)" offset="0.796875"/><stop stop-opacity="1" stop-color="rgb(34.7229%, 66.203308%, 85.18219%)" offset="0.800781"/><stop stop-opacity="1" stop-color="rgb(34.733582%, 66.386414%, 85.469055%)" offset="0.804688"/><stop stop-opacity="1" stop-color="rgb(34.742737%, 66.567993%, 85.754395%)" offset="0.808594"/><stop stop-opacity="1" stop-color="rgb(34.753418%, 66.751099%, 86.04126%)" offset="0.8125"/><stop stop-opacity="1" stop-color="rgb(34.764099%, 66.932678%, 86.326599%)" offset="0.816406"/><stop stop-opacity="1" stop-color="rgb(34.77478%, 67.114258%, 86.613464%)" offset="0.820312"/><stop stop-opacity="1" stop-color="rgb(34.783936%, 67.295837%, 86.898804%)" offset="0.824219"/><stop stop-opacity="1" stop-color="rgb(34.794617%, 67.478943%, 87.185669%)" offset="0.828125"/><stop stop-opacity="1" stop-color="rgb(34.803772%, 67.660522%, 87.471008%)" offset="0.832031"/><stop stop-opacity="1" stop-color="rgb(34.814453%, 67.843628%, 87.757874%)" offset="0.835938"/><stop stop-opacity="1" stop-color="rgb(34.823608%, 68.025208%, 88.043213%)" offset="0.839844"/><stop stop-opacity="1" stop-color="rgb(34.83429%, 68.208313%, 88.330078%)" offset="0.84375"/><stop stop-opacity="1" stop-color="rgb(34.843445%, 68.389893%, 88.615417%)" offset="0.847656"/><stop stop-opacity="1" stop-color="rgb(34.854126%, 68.572998%, 88.902283%)" offset="0.851562"/><stop stop-opacity="1" stop-color="rgb(34.863281%, 68.754578%, 89.187622%)" offset="0.855469"/><stop stop-opacity="1" stop-color="rgb(34.873962%, 68.937683%, 89.474487%)" offset="0.859375"/><stop stop-opacity="1" stop-color="rgb(34.883118%, 69.119263%, 89.759827%)" offset="0.863281"/><stop stop-opacity="1" stop-color="rgb(34.893799%, 69.302368%, 90.046692%)" offset="0.867188"/><stop stop-opacity="1" stop-color="rgb(34.896851%, 69.34967%, 90.122986%)" offset="0.875"/><stop stop-opacity="1" stop-color="rgb(34.899902%, 69.398499%, 90.19928%)" offset="1"/></linearGradient><clipPath id="id4"><path d="M 148 23 L 151.878906 23 L 151.878906 29 L 148 29 Z M 148 23 " clip-rule="nonzero"/></clipPath></defs><g clip-path="url(#id1)"><g clip-path="url(#id2)"><path fill="url(#id3)" d="M 1.6875 0 L 1.6875 31.515625 L 38.269531 31.515625 L 38.269531 0 Z M 1.6875 0 " fill-rule="nonzero"/></g></g><g fill="#545454" fill-opacity="1"><g transform="translate(42.083027, 17.742379)"><g><path d="M 9.40625 -2.375 L 4.234375 -2.375 L 3.28125 0 L -0.25 0 L 5.15625 -12.21875 L 8.546875 -12.21875 L 13.96875 0 L 10.375 0 Z M 8.390625 -4.921875 L 6.828125 -8.828125 L 5.25 -4.921875 Z M 8.390625 -4.921875 "/></g></g></g><g fill="#545454" fill-opacity="1"><g transform="translate(55.791893, 17.742379)"><g><path d="M 6.5625 -3.25 L 4.671875 -3.25 L 4.671875 0 L 1.21875 0 L 1.21875 -12.21875 L 6.8125 -12.21875 C 7.914062 -12.21875 8.875 -12.035156 9.6875 -11.671875 C 10.5 -11.304688 11.125 -10.78125 11.5625 -10.09375 C 12.007812 -9.414062 12.234375 -8.617188 12.234375 -7.703125 C 12.234375 -6.816406 12.023438 -6.039062 11.609375 -5.375 C 11.203125 -4.71875 10.613281 -4.207031 9.84375 -3.84375 L 12.484375 0 L 8.78125 0 Z M 8.75 -7.703125 C 8.75 -8.265625 8.566406 -8.703125 8.203125 -9.015625 C 7.835938 -9.335938 7.300781 -9.5 6.59375 -9.5 L 4.671875 -9.5 L 4.671875 -5.921875 L 6.59375 -5.921875 C 7.300781 -5.921875 7.835938 -6.070312 8.203125 -6.375 C 8.566406 -6.6875 8.75 -7.128906 8.75 -7.703125 Z M 8.75 -7.703125 "/></g></g></g><g fill="#545454" fill-opacity="1"><g transform="translate(68.698464, 17.742379)"><g><path d="M 11.03125 -2.671875 L 11.03125 0 L 1.21875 0 L 1.21875 -12.21875 L 10.796875 -12.21875 L 10.796875 -9.546875 L 4.640625 -9.546875 L 4.640625 -7.484375 L 10.078125 -7.484375 L 10.078125 -4.90625 L 4.640625 -4.90625 L 4.640625 -2.671875 Z M 11.03125 -2.671875 "/></g></g></g><g fill="#545454" fill-opacity="1"><g transform="translate(80.419025, 17.742379)"><g><path d="M 11.546875 -2.734375 L 11.546875 0 L 0.609375 0 L 0.609375 -2.171875 L 6.765625 -9.484375 L 0.765625 -9.484375 L 0.765625 -12.21875 L 11.296875 -12.21875 L 11.296875 -10.046875 L 5.125 -2.734375 Z M 11.546875 -2.734375 "/></g></g></g><g fill="#737373" fill-opacity="1"><g transform="translate(41.393931, 28.656084)"><g><path d="M 0.609375 0 L 0.609375 -5.28125 L 4.140625 -5.28125 L 4.140625 -4.28125 L 1.796875 -4.28125 L 1.796875 -3.171875 L 3.890625 -3.171875 L 3.890625 -2.1875 L 1.796875 -2.1875 L 1.796875 0 Z M 0.609375 0 "/></g></g></g><g fill="#737373" fill-opacity="1"><g transform="translate(45.770807, 28.656084)"><g><path d="M 2.953125 -3 C 2.847656 -3.03125 2.726562 -3.054688 2.59375 -3.078125 C 2.457031 -3.109375 2.3125 -3.125 2.15625 -3.125 C 2.082031 -3.125 1.992188 -3.117188 1.890625 -3.109375 C 1.796875 -3.097656 1.722656 -3.082031 1.671875 -3.0625 L 1.671875 0 L 0.53125 0 L 0.53125 -3.796875 C 0.738281 -3.867188 0.976562 -3.9375 1.25 -4 C 1.53125 -4.0625 1.84375 -4.09375 2.1875 -4.09375 C 2.238281 -4.09375 2.304688 -4.085938 2.390625 -4.078125 C 2.484375 -4.078125 2.570312 -4.066406 2.65625 -4.046875 C 2.75 -4.035156 2.835938 -4.019531 2.921875 -4 C 3.003906 -3.988281 3.078125 -3.96875 3.140625 -3.9375 Z M 2.953125 -3 "/></g></g></g><g fill="#737373" fill-opacity="1"><g transform="translate(48.988654, 28.656084)"><g><path d="M 4.28125 -2.015625 C 4.28125 -1.703125 4.234375 -1.410156 4.140625 -1.140625 C 4.054688 -0.878906 3.925781 -0.65625 3.75 -0.46875 C 3.582031 -0.289062 3.375 -0.148438 3.125 -0.046875 C 2.882812 0.0546875 2.613281 0.109375 2.3125 0.109375 C 2.019531 0.109375 1.753906 0.0546875 1.515625 -0.046875 C 1.273438 -0.148438 1.066406 -0.289062 0.890625 -0.46875 C 0.722656 -0.65625 0.585938 -0.878906 0.484375 -1.140625 C 0.390625 -1.410156 0.34375 -1.703125 0.34375 -2.015625 C 0.34375 -2.328125 0.390625 -2.613281 0.484375 -2.875 C 0.585938 -3.132812 0.726562 -3.351562 0.90625 -3.53125 C 1.082031 -3.71875 1.289062 -3.863281 1.53125 -3.96875 C 1.769531 -4.070312 2.03125 -4.125 2.3125 -4.125 C 2.601562 -4.125 2.867188 -4.070312 3.109375 -3.96875 C 3.359375 -3.863281 3.566406 -3.71875 3.734375 -3.53125 C 3.910156 -3.351562 4.046875 -3.132812 4.140625 -2.875 C 4.234375 -2.613281 4.28125 -2.328125 4.28125 -2.015625 Z M 3.125 -2.015625 C 3.125 -2.367188 3.050781 -2.644531 2.90625 -2.84375 C 2.769531 -3.039062 2.570312 -3.140625 2.3125 -3.140625 C 2.050781 -3.140625 1.847656 -3.039062 1.703125 -2.84375 C 1.566406 -2.644531 1.5 -2.367188 1.5 -2.015625 C 1.5 -1.660156 1.566406 -1.378906 1.703125 -1.171875 C 1.847656 -0.972656 2.050781 -0.875 2.3125 -0.875 C 2.570312 -0.875 2.769531 -0.972656 2.90625 -1.171875 C 3.050781 -1.378906 3.125 -1.660156 3.125 -2.015625 Z M 3.125 -2.015625 "/></g></g></g><g fill="#737373" fill-opacity="1"><g transform="translate(53.617168, 28.656084)"><g><path d="M 0.53125 -3.875 C 0.726562 -3.925781 0.976562 -3.976562 1.28125 -4.03125 C 1.582031 -4.082031 1.898438 -4.109375 2.234375 -4.109375 C 2.578125 -4.109375 2.863281 -4.0625 3.09375 -3.96875 C 3.320312 -3.875 3.5 -3.742188 3.625 -3.578125 C 3.757812 -3.421875 3.851562 -3.226562 3.90625 -3 C 3.96875 -2.78125 4 -2.535156 4 -2.265625 L 4 0 L 2.859375 0 L 2.859375 -2.125 C 2.859375 -2.488281 2.804688 -2.75 2.703125 -2.90625 C 2.609375 -3.0625 2.429688 -3.140625 2.171875 -3.140625 C 2.085938 -3.140625 2 -3.132812 1.90625 -3.125 C 1.820312 -3.113281 1.742188 -3.101562 1.671875 -3.09375 L 1.671875 0 L 0.53125 0 Z M 0.53125 -3.875 "/></g></g></g><g fill="#737373" fill-opacity="1"><g transform="translate(58.108427, 28.656084)"><g><path d="M 0.5 -5.015625 L 1.625 -5.1875 L 1.625 -4.015625 L 3 -4.015625 L 3 -3.0625 L 1.625 -3.0625 L 1.625 -1.65625 C 1.625 -1.414062 1.664062 -1.222656 1.75 -1.078125 C 1.84375 -0.941406 2.015625 -0.875 2.265625 -0.875 C 2.390625 -0.875 2.515625 -0.882812 2.640625 -0.90625 C 2.773438 -0.925781 2.894531 -0.957031 3 -1 L 3.15625 -0.109375 C 3.019531 -0.0546875 2.867188 -0.0078125 2.703125 0.03125 C 2.535156 0.0703125 2.328125 0.09375 2.078125 0.09375 C 1.765625 0.09375 1.503906 0.0507812 1.296875 -0.03125 C 1.097656 -0.113281 0.9375 -0.226562 0.8125 -0.375 C 0.695312 -0.53125 0.613281 -0.710938 0.5625 -0.921875 C 0.519531 -1.140625 0.5 -1.378906 0.5 -1.640625 Z M 0.5 -5.015625 "/></g></g></g><g fill="#737373" fill-opacity="1"><g transform="translate(61.494023, 28.656084)"><g><path d="M 2.140625 0.078125 C 1.804688 0.0664062 1.535156 0.03125 1.328125 -0.03125 C 1.117188 -0.09375 0.953125 -0.179688 0.828125 -0.296875 C 0.710938 -0.421875 0.632812 -0.566406 0.59375 -0.734375 C 0.550781 -0.910156 0.53125 -1.101562 0.53125 -1.3125 L 0.53125 -5.734375 L 1.671875 -5.921875 L 1.671875 -1.546875 C 1.671875 -1.441406 1.675781 -1.347656 1.6875 -1.265625 C 1.707031 -1.191406 1.738281 -1.125 1.78125 -1.0625 C 1.820312 -1.007812 1.882812 -0.960938 1.96875 -0.921875 C 2.050781 -0.890625 2.160156 -0.867188 2.296875 -0.859375 Z M 2.140625 0.078125 "/></g></g></g><g fill="#737373" fill-opacity="1"><g transform="translate(63.903591, 28.656084)"><g><path d="M 1.671875 0 L 0.53125 0 L 0.53125 -4.015625 L 1.671875 -4.015625 Z M 1.78125 -5.171875 C 1.78125 -4.960938 1.710938 -4.796875 1.578125 -4.671875 C 1.441406 -4.554688 1.28125 -4.5 1.09375 -4.5 C 0.914062 -4.5 0.757812 -4.554688 0.625 -4.671875 C 0.488281 -4.796875 0.421875 -4.960938 0.421875 -5.171875 C 0.421875 -5.378906 0.488281 -5.539062 0.625 -5.65625 C 0.757812 -5.78125 0.914062 -5.84375 1.09375 -5.84375 C 1.28125 -5.84375 1.441406 -5.78125 1.578125 -5.65625 C 1.710938 -5.539062 1.78125 -5.378906 1.78125 -5.171875 Z M 1.78125 -5.171875 "/></g></g></g><g fill="#737373" fill-opacity="1"><g transform="translate(66.107276, 28.656084)"><g><path d="M 0.53125 -3.875 C 0.726562 -3.925781 0.976562 -3.976562 1.28125 -4.03125 C 1.582031 -4.082031 1.898438 -4.109375 2.234375 -4.109375 C 2.578125 -4.109375 2.863281 -4.0625 3.09375 -3.96875 C 3.320312 -3.875 3.5 -3.742188 3.625 -3.578125 C 3.757812 -3.421875 3.851562 -3.226562 3.90625 -3 C 3.96875 -2.78125 4 -2.535156 4 -2.265625 L 4 0 L 2.859375 0 L 2.859375 -2.125 C 2.859375 -2.488281 2.804688 -2.75 2.703125 -2.90625 C 2.609375 -3.0625 2.429688 -3.140625 2.171875 -3.140625 C 2.085938 -3.140625 2 -3.132812 1.90625 -3.125 C 1.820312 -3.113281 1.742188 -3.101562 1.671875 -3.09375 L 1.671875 0 L 0.53125 0 Z M 0.53125 -3.875 "/></g></g></g><g fill="#737373" fill-opacity="1"><g transform="translate(70.598534, 28.656084)"><g><path d="M 0.34375 -1.96875 C 0.34375 -2.332031 0.394531 -2.644531 0.5 -2.90625 C 0.613281 -3.175781 0.757812 -3.398438 0.9375 -3.578125 C 1.113281 -3.753906 1.316406 -3.890625 1.546875 -3.984375 C 1.785156 -4.078125 2.023438 -4.125 2.265625 -4.125 C 2.835938 -4.125 3.285156 -3.945312 3.609375 -3.59375 C 3.941406 -3.25 4.109375 -2.738281 4.109375 -2.0625 C 4.109375 -1.988281 4.101562 -1.910156 4.09375 -1.828125 C 4.09375 -1.753906 4.09375 -1.6875 4.09375 -1.625 L 1.515625 -1.625 C 1.535156 -1.394531 1.640625 -1.210938 1.828125 -1.078125 C 2.023438 -0.941406 2.285156 -0.875 2.609375 -0.875 C 2.816406 -0.875 3.019531 -0.890625 3.21875 -0.921875 C 3.425781 -0.960938 3.59375 -1.007812 3.71875 -1.0625 L 3.875 -0.140625 C 3.8125 -0.109375 3.726562 -0.078125 3.625 -0.046875 C 3.53125 -0.015625 3.421875 0.0078125 3.296875 0.03125 C 3.171875 0.0507812 3.035156 0.0664062 2.890625 0.078125 C 2.742188 0.0976562 2.601562 0.109375 2.46875 0.109375 C 2.101562 0.109375 1.785156 0.0546875 1.515625 -0.046875 C 1.253906 -0.160156 1.035156 -0.304688 0.859375 -0.484375 C 0.679688 -0.671875 0.550781 -0.890625 0.46875 -1.140625 C 0.382812 -1.398438 0.34375 -1.675781 0.34375 -1.96875 Z M 3.015625 -2.40625 C 3.003906 -2.5 2.984375 -2.59375 2.953125 -2.6875 C 2.929688 -2.78125 2.890625 -2.863281 2.828125 -2.9375 C 2.773438 -3.007812 2.703125 -3.066406 2.609375 -3.109375 C 2.523438 -3.148438 2.414062 -3.171875 2.28125 -3.171875 C 2.15625 -3.171875 2.046875 -3.148438 1.953125 -3.109375 C 1.859375 -3.066406 1.78125 -3.007812 1.71875 -2.9375 C 1.65625 -2.875 1.609375 -2.789062 1.578125 -2.6875 C 1.546875 -2.59375 1.523438 -2.5 1.515625 -2.40625 Z M 3.015625 -2.40625 "/></g></g></g><g fill="#737373" fill-opacity="1"><g transform="translate(75.051669, 28.656084)"><g/></g></g><g fill="#59b1e6" fill-opacity="1"><g transform="translate(76.878765, 28.656084)"><g><path d="M 2.203125 -5.34375 C 2.984375 -5.34375 3.582031 -5.203125 4 -4.921875 C 4.425781 -4.648438 4.640625 -4.195312 4.640625 -3.5625 C 4.640625 -2.925781 4.425781 -2.46875 4 -2.1875 C 3.570312 -1.90625 2.960938 -1.765625 2.171875 -1.765625 L 1.796875 -1.765625 L 1.796875 0 L 0.609375 0 L 0.609375 -5.203125 C 0.867188 -5.253906 1.144531 -5.289062 1.4375 -5.3125 C 1.726562 -5.332031 1.984375 -5.34375 2.203125 -5.34375 Z M 2.265625 -4.328125 C 2.179688 -4.328125 2.097656 -4.320312 2.015625 -4.3125 C 1.929688 -4.3125 1.859375 -4.3125 1.796875 -4.3125 L 1.796875 -2.78125 L 2.171875 -2.78125 C 2.585938 -2.78125 2.898438 -2.835938 3.109375 -2.953125 C 3.316406 -3.066406 3.421875 -3.273438 3.421875 -3.578125 C 3.421875 -3.722656 3.390625 -3.84375 3.328125 -3.9375 C 3.273438 -4.039062 3.195312 -4.117188 3.09375 -4.171875 C 3 -4.234375 2.878906 -4.273438 2.734375 -4.296875 C 2.597656 -4.316406 2.441406 -4.328125 2.265625 -4.328125 Z M 2.265625 -4.328125 "/></g></g></g><g fill="#59b1e6" fill-opacity="1"><g transform="translate(81.78941, 28.656084)"><g><path d="M 0.34375 -1.96875 C 0.34375 -2.332031 0.394531 -2.644531 0.5 -2.90625 C 0.613281 -3.175781 0.757812 -3.398438 0.9375 -3.578125 C 1.113281 -3.753906 1.316406 -3.890625 1.546875 -3.984375 C 1.785156 -4.078125 2.023438 -4.125 2.265625 -4.125 C 2.835938 -4.125 3.285156 -3.945312 3.609375 -3.59375 C 3.941406 -3.25 4.109375 -2.738281 4.109375 -2.0625 C 4.109375 -1.988281 4.101562 -1.910156 4.09375 -1.828125 C 4.09375 -1.753906 4.09375 -1.6875 4.09375 -1.625 L 1.515625 -1.625 C 1.535156 -1.394531 1.640625 -1.210938 1.828125 -1.078125 C 2.023438 -0.941406 2.285156 -0.875 2.609375 -0.875 C 2.816406 -0.875 3.019531 -0.890625 3.21875 -0.921875 C 3.425781 -0.960938 3.59375 -1.007812 3.71875 -1.0625 L 3.875 -0.140625 C 3.8125 -0.109375 3.726562 -0.078125 3.625 -0.046875 C 3.53125 -0.015625 3.421875 0.0078125 3.296875 0.03125 C 3.171875 0.0507812 3.035156 0.0664062 2.890625 0.078125 C 2.742188 0.0976562 2.601562 0.109375 2.46875 0.109375 C 2.101562 0.109375 1.785156 0.0546875 1.515625 -0.046875 C 1.253906 -0.160156 1.035156 -0.304688 0.859375 -0.484375 C 0.679688 -0.671875 0.550781 -0.890625 0.46875 -1.140625 C 0.382812 -1.398438 0.34375 -1.675781 0.34375 -1.96875 Z M 3.015625 -2.40625 C 3.003906 -2.5 2.984375 -2.59375 2.953125 -2.6875 C 2.929688 -2.78125 2.890625 -2.863281 2.828125 -2.9375 C 2.773438 -3.007812 2.703125 -3.066406 2.609375 -3.109375 C 2.523438 -3.148438 2.414062 -3.171875 2.28125 -3.171875 C 2.15625 -3.171875 2.046875 -3.148438 1.953125 -3.109375 C 1.859375 -3.066406 1.78125 -3.007812 1.71875 -2.9375 C 1.65625 -2.875 1.609375 -2.789062 1.578125 -2.6875 C 1.546875 -2.59375 1.523438 -2.5 1.515625 -2.40625 Z M 3.015625 -2.40625 "/></g></g></g><g fill="#59b1e6" fill-opacity="1"><g transform="translate(86.242544, 28.656084)"><g><path d="M 4.28125 -2.015625 C 4.28125 -1.703125 4.234375 -1.410156 4.140625 -1.140625 C 4.054688 -0.878906 3.925781 -0.65625 3.75 -0.46875 C 3.582031 -0.289062 3.375 -0.148438 3.125 -0.046875 C 2.882812 0.0546875 2.613281 0.109375 2.3125 0.109375 C 2.019531 0.109375 1.753906 0.0546875 1.515625 -0.046875 C 1.273438 -0.148438 1.066406 -0.289062 0.890625 -0.46875 C 0.722656 -0.65625 0.585938 -0.878906 0.484375 -1.140625 C 0.390625 -1.410156 0.34375 -1.703125 0.34375 -2.015625 C 0.34375 -2.328125 0.390625 -2.613281 0.484375 -2.875 C 0.585938 -3.132812 0.726562 -3.351562 0.90625 -3.53125 C 1.082031 -3.71875 1.289062 -3.863281 1.53125 -3.96875 C 1.769531 -4.070312 2.03125 -4.125 2.3125 -4.125 C 2.601562 -4.125 2.867188 -4.070312 3.109375 -3.96875 C 3.359375 -3.863281 3.566406 -3.71875 3.734375 -3.53125 C 3.910156 -3.351562 4.046875 -3.132812 4.140625 -2.875 C 4.234375 -2.613281 4.28125 -2.328125 4.28125 -2.015625 Z M 3.125 -2.015625 C 3.125 -2.367188 3.050781 -2.644531 2.90625 -2.84375 C 2.769531 -3.039062 2.570312 -3.140625 2.3125 -3.140625 C 2.050781 -3.140625 1.847656 -3.039062 1.703125 -2.84375 C 1.566406 -2.644531 1.5 -2.367188 1.5 -2.015625 C 1.5 -1.660156 1.566406 -1.378906 1.703125 -1.171875 C 1.847656 -0.972656 2.050781 -0.875 2.3125 -0.875 C 2.570312 -0.875 2.769531 -0.972656 2.90625 -1.171875 C 3.050781 -1.378906 3.125 -1.660156 3.125 -2.015625 Z M 3.125 -2.015625 "/></g></g></g><g fill="#59b1e6" fill-opacity="1"><g transform="translate(90.871058, 28.656084)"><g><path d="M 3.109375 -1.96875 C 3.109375 -2.320312 3.023438 -2.601562 2.859375 -2.8125 C 2.703125 -3.03125 2.472656 -3.140625 2.171875 -3.140625 C 2.066406 -3.140625 1.96875 -3.132812 1.875 -3.125 C 1.789062 -3.113281 1.722656 -3.101562 1.671875 -3.09375 L 1.671875 -1.046875 C 1.742188 -0.992188 1.835938 -0.953125 1.953125 -0.921875 C 2.066406 -0.898438 2.179688 -0.890625 2.296875 -0.890625 C 2.835938 -0.890625 3.109375 -1.25 3.109375 -1.96875 Z M 4.265625 -2 C 4.265625 -1.695312 4.222656 -1.414062 4.140625 -1.15625 C 4.066406 -0.90625 3.957031 -0.6875 3.8125 -0.5 C 3.664062 -0.320312 3.484375 -0.179688 3.265625 -0.078125 C 3.046875 0.0234375 2.796875 0.078125 2.515625 0.078125 C 2.347656 0.078125 2.195312 0.0625 2.0625 0.03125 C 1.925781 0 1.796875 -0.0390625 1.671875 -0.09375 L 1.671875 1.40625 L 0.53125 1.40625 L 0.53125 -3.875 C 0.632812 -3.90625 0.75 -3.929688 0.875 -3.953125 C 1.007812 -3.984375 1.148438 -4.007812 1.296875 -4.03125 C 1.441406 -4.050781 1.585938 -4.066406 1.734375 -4.078125 C 1.890625 -4.097656 2.035156 -4.109375 2.171875 -4.109375 C 2.503906 -4.109375 2.800781 -4.054688 3.0625 -3.953125 C 3.320312 -3.859375 3.539062 -3.71875 3.71875 -3.53125 C 3.894531 -3.351562 4.03125 -3.132812 4.125 -2.875 C 4.21875 -2.613281 4.265625 -2.320312 4.265625 -2 Z M 4.265625 -2 "/></g></g></g><g fill="#59b1e6" fill-opacity="1"><g transform="translate(95.47669, 28.656084)"><g><path d="M 2.140625 0.078125 C 1.804688 0.0664062 1.535156 0.03125 1.328125 -0.03125 C 1.117188 -0.09375 0.953125 -0.179688 0.828125 -0.296875 C 0.710938 -0.421875 0.632812 -0.566406 0.59375 -0.734375 C 0.550781 -0.910156 0.53125 -1.101562 0.53125 -1.3125 L 0.53125 -5.734375 L 1.671875 -5.921875 L 1.671875 -1.546875 C 1.671875 -1.441406 1.675781 -1.347656 1.6875 -1.265625 C 1.707031 -1.191406 1.738281 -1.125 1.78125 -1.0625 C 1.820312 -1.007812 1.882812 -0.960938 1.96875 -0.921875 C 2.050781 -0.890625 2.160156 -0.867188 2.296875 -0.859375 Z M 2.140625 0.078125 "/></g></g></g><g fill="#59b1e6" fill-opacity="1"><g transform="translate(97.886258, 28.656084)"><g><path d="M 0.34375 -1.96875 C 0.34375 -2.332031 0.394531 -2.644531 0.5 -2.90625 C 0.613281 -3.175781 0.757812 -3.398438 0.9375 -3.578125 C 1.113281 -3.753906 1.316406 -3.890625 1.546875 -3.984375 C 1.785156 -4.078125 2.023438 -4.125 2.265625 -4.125 C 2.835938 -4.125 3.285156 -3.945312 3.609375 -3.59375 C 3.941406 -3.25 4.109375 -2.738281 4.109375 -2.0625 C 4.109375 -1.988281 4.101562 -1.910156 4.09375 -1.828125 C 4.09375 -1.753906 4.09375 -1.6875 4.09375 -1.625 L 1.515625 -1.625 C 1.535156 -1.394531 1.640625 -1.210938 1.828125 -1.078125 C 2.023438 -0.941406 2.285156 -0.875 2.609375 -0.875 C 2.816406 -0.875 3.019531 -0.890625 3.21875 -0.921875 C 3.425781 -0.960938 3.59375 -1.007812 3.71875 -1.0625 L 3.875 -0.140625 C 3.8125 -0.109375 3.726562 -0.078125 3.625 -0.046875 C 3.53125 -0.015625 3.421875 0.0078125 3.296875 0.03125 C 3.171875 0.0507812 3.035156 0.0664062 2.890625 0.078125 C 2.742188 0.0976562 2.601562 0.109375 2.46875 0.109375 C 2.101562 0.109375 1.785156 0.0546875 1.515625 -0.046875 C 1.253906 -0.160156 1.035156 -0.304688 0.859375 -0.484375 C 0.679688 -0.671875 0.550781 -0.890625 0.46875 -1.140625 C 0.382812 -1.398438 0.34375 -1.675781 0.34375 -1.96875 Z M 3.015625 -2.40625 C 3.003906 -2.5 2.984375 -2.59375 2.953125 -2.6875 C 2.929688 -2.78125 2.890625 -2.863281 2.828125 -2.9375 C 2.773438 -3.007812 2.703125 -3.066406 2.609375 -3.109375 C 2.523438 -3.148438 2.414062 -3.171875 2.28125 -3.171875 C 2.15625 -3.171875 2.046875 -3.148438 1.953125 -3.109375 C 1.859375 -3.066406 1.78125 -3.007812 1.71875 -2.9375 C 1.65625 -2.875 1.609375 -2.789062 1.578125 -2.6875 C 1.546875 -2.59375 1.523438 -2.5 1.515625 -2.40625 Z M 3.015625 -2.40625 "/></g></g></g><g fill="#59b1e6" fill-opacity="1"><g transform="translate(102.339392, 28.656084)"><g/></g></g><g fill="#59b1e6" fill-opacity="1"><g transform="translate(104.169445, 28.656084)"><g><path d="M 2.015625 -5.28125 C 2.109375 -5.113281 2.210938 -4.90625 2.328125 -4.65625 C 2.453125 -4.414062 2.578125 -4.148438 2.703125 -3.859375 C 2.828125 -3.578125 2.953125 -3.285156 3.078125 -2.984375 C 3.210938 -2.679688 3.335938 -2.398438 3.453125 -2.140625 C 3.554688 -2.398438 3.671875 -2.679688 3.796875 -2.984375 C 3.929688 -3.285156 4.0625 -3.578125 4.1875 -3.859375 C 4.320312 -4.148438 4.445312 -4.414062 4.5625 -4.65625 C 4.6875 -4.90625 4.789062 -5.113281 4.875 -5.28125 L 5.96875 -5.28125 C 6.019531 -4.9375 6.066406 -4.546875 6.109375 -4.109375 C 6.148438 -3.671875 6.1875 -3.21875 6.21875 -2.75 C 6.25 -2.28125 6.28125 -1.804688 6.3125 -1.328125 C 6.34375 -0.859375 6.363281 -0.414062 6.375 0 L 5.21875 0 C 5.207031 -0.507812 5.1875 -1.066406 5.15625 -1.671875 C 5.132812 -2.273438 5.097656 -2.882812 5.046875 -3.5 C 4.953125 -3.289062 4.847656 -3.054688 4.734375 -2.796875 C 4.628906 -2.535156 4.519531 -2.273438 4.40625 -2.015625 C 4.300781 -1.753906 4.195312 -1.503906 4.09375 -1.265625 C 3.988281 -1.035156 3.898438 -0.835938 3.828125 -0.671875 L 3 -0.671875 C 2.925781 -0.835938 2.835938 -1.035156 2.734375 -1.265625 C 2.640625 -1.503906 2.535156 -1.753906 2.421875 -2.015625 C 2.316406 -2.273438 2.207031 -2.535156 2.09375 -2.796875 C 1.976562 -3.054688 1.878906 -3.289062 1.796875 -3.5 C 1.742188 -2.882812 1.703125 -2.273438 1.671875 -1.671875 C 1.648438 -1.066406 1.628906 -0.507812 1.609375 0 L 0.453125 0 C 0.472656 -0.414062 0.5 -0.859375 0.53125 -1.328125 C 0.5625 -1.804688 0.59375 -2.28125 0.625 -2.75 C 0.65625 -3.21875 0.691406 -3.671875 0.734375 -4.109375 C 0.773438 -4.546875 0.820312 -4.9375 0.875 -5.28125 Z M 2.015625 -5.28125 "/></g></g></g><g fill="#59b1e6" fill-opacity="1"><g transform="translate(111.009265, 28.656084)"><g><path d="M 2.0625 -0.796875 C 2.175781 -0.796875 2.285156 -0.796875 2.390625 -0.796875 C 2.492188 -0.804688 2.570312 -0.816406 2.625 -0.828125 L 2.625 -1.6875 C 2.582031 -1.695312 2.515625 -1.707031 2.421875 -1.71875 C 2.328125 -1.726562 2.242188 -1.734375 2.171875 -1.734375 C 2.066406 -1.734375 1.96875 -1.722656 1.875 -1.703125 C 1.78125 -1.691406 1.695312 -1.671875 1.625 -1.640625 C 1.550781 -1.609375 1.492188 -1.5625 1.453125 -1.5 C 1.410156 -1.4375 1.390625 -1.359375 1.390625 -1.265625 C 1.390625 -1.085938 1.445312 -0.960938 1.5625 -0.890625 C 1.6875 -0.828125 1.851562 -0.796875 2.0625 -0.796875 Z M 1.96875 -4.125 C 2.3125 -4.125 2.59375 -4.082031 2.8125 -4 C 3.039062 -3.925781 3.21875 -3.816406 3.34375 -3.671875 C 3.476562 -3.535156 3.570312 -3.363281 3.625 -3.15625 C 3.6875 -2.957031 3.71875 -2.734375 3.71875 -2.484375 L 3.71875 -0.109375 C 3.5625 -0.078125 3.335938 -0.0390625 3.046875 0 C 2.753906 0.0507812 2.398438 0.078125 1.984375 0.078125 C 1.722656 0.078125 1.488281 0.0546875 1.28125 0.015625 C 1.070312 -0.0234375 0.890625 -0.0976562 0.734375 -0.203125 C 0.585938 -0.304688 0.472656 -0.441406 0.390625 -0.609375 C 0.304688 -0.785156 0.265625 -0.992188 0.265625 -1.234375 C 0.265625 -1.472656 0.3125 -1.671875 0.40625 -1.828125 C 0.5 -1.992188 0.625 -2.125 0.78125 -2.21875 C 0.9375 -2.3125 1.113281 -2.378906 1.3125 -2.421875 C 1.519531 -2.472656 1.734375 -2.5 1.953125 -2.5 C 2.109375 -2.5 2.242188 -2.488281 2.359375 -2.46875 C 2.472656 -2.457031 2.5625 -2.441406 2.625 -2.421875 L 2.625 -2.53125 C 2.625 -2.726562 2.566406 -2.882812 2.453125 -3 C 2.335938 -3.113281 2.132812 -3.171875 1.84375 -3.171875 C 1.65625 -3.171875 1.460938 -3.15625 1.265625 -3.125 C 1.078125 -3.101562 0.914062 -3.066406 0.78125 -3.015625 L 0.640625 -3.921875 C 0.703125 -3.941406 0.78125 -3.960938 0.875 -3.984375 C 0.976562 -4.015625 1.085938 -4.035156 1.203125 -4.046875 C 1.328125 -4.066406 1.453125 -4.082031 1.578125 -4.09375 C 1.710938 -4.113281 1.84375 -4.125 1.96875 -4.125 Z M 1.96875 -4.125 "/></g></g></g><g fill="#59b1e6" fill-opacity="1"><g transform="translate(115.226013, 28.656084)"><g><path d="M 0.53125 -3.875 C 0.726562 -3.925781 0.976562 -3.976562 1.28125 -4.03125 C 1.582031 -4.082031 1.898438 -4.109375 2.234375 -4.109375 C 2.578125 -4.109375 2.863281 -4.0625 3.09375 -3.96875 C 3.320312 -3.875 3.5 -3.742188 3.625 -3.578125 C 3.757812 -3.421875 3.851562 -3.226562 3.90625 -3 C 3.96875 -2.78125 4 -2.535156 4 -2.265625 L 4 0 L 2.859375 0 L 2.859375 -2.125 C 2.859375 -2.488281 2.804688 -2.75 2.703125 -2.90625 C 2.609375 -3.0625 2.429688 -3.140625 2.171875 -3.140625 C 2.085938 -3.140625 2 -3.132812 1.90625 -3.125 C 1.820312 -3.113281 1.742188 -3.101562 1.671875 -3.09375 L 1.671875 0 L 0.53125 0 Z M 0.53125 -3.875 "/></g></g></g><g fill="#59b1e6" fill-opacity="1"><g transform="translate(119.717272, 28.656084)"><g><path d="M 2.0625 -0.796875 C 2.175781 -0.796875 2.285156 -0.796875 2.390625 -0.796875 C 2.492188 -0.804688 2.570312 -0.816406 2.625 -0.828125 L 2.625 -1.6875 C 2.582031 -1.695312 2.515625 -1.707031 2.421875 -1.71875 C 2.328125 -1.726562 2.242188 -1.734375 2.171875 -1.734375 C 2.066406 -1.734375 1.96875 -1.722656 1.875 -1.703125 C 1.78125 -1.691406 1.695312 -1.671875 1.625 -1.640625 C 1.550781 -1.609375 1.492188 -1.5625 1.453125 -1.5 C 1.410156 -1.4375 1.390625 -1.359375 1.390625 -1.265625 C 1.390625 -1.085938 1.445312 -0.960938 1.5625 -0.890625 C 1.6875 -0.828125 1.851562 -0.796875 2.0625 -0.796875 Z M 1.96875 -4.125 C 2.3125 -4.125 2.59375 -4.082031 2.8125 -4 C 3.039062 -3.925781 3.21875 -3.816406 3.34375 -3.671875 C 3.476562 -3.535156 3.570312 -3.363281 3.625 -3.15625 C 3.6875 -2.957031 3.71875 -2.734375 3.71875 -2.484375 L 3.71875 -0.109375 C 3.5625 -0.078125 3.335938 -0.0390625 3.046875 0 C 2.753906 0.0507812 2.398438 0.078125 1.984375 0.078125 C 1.722656 0.078125 1.488281 0.0546875 1.28125 0.015625 C 1.070312 -0.0234375 0.890625 -0.0976562 0.734375 -0.203125 C 0.585938 -0.304688 0.472656 -0.441406 0.390625 -0.609375 C 0.304688 -0.785156 0.265625 -0.992188 0.265625 -1.234375 C 0.265625 -1.472656 0.3125 -1.671875 0.40625 -1.828125 C 0.5 -1.992188 0.625 -2.125 0.78125 -2.21875 C 0.9375 -2.3125 1.113281 -2.378906 1.3125 -2.421875 C 1.519531 -2.472656 1.734375 -2.5 1.953125 -2.5 C 2.109375 -2.5 2.242188 -2.488281 2.359375 -2.46875 C 2.472656 -2.457031 2.5625 -2.441406 2.625 -2.421875 L 2.625 -2.53125 C 2.625 -2.726562 2.566406 -2.882812 2.453125 -3 C 2.335938 -3.113281 2.132812 -3.171875 1.84375 -3.171875 C 1.65625 -3.171875 1.460938 -3.15625 1.265625 -3.125 C 1.078125 -3.101562 0.914062 -3.066406 0.78125 -3.015625 L 0.640625 -3.921875 C 0.703125 -3.941406 0.78125 -3.960938 0.875 -3.984375 C 0.976562 -4.015625 1.085938 -4.035156 1.203125 -4.046875 C 1.328125 -4.066406 1.453125 -4.082031 1.578125 -4.09375 C 1.710938 -4.113281 1.84375 -4.125 1.96875 -4.125 Z M 1.96875 -4.125 "/></g></g></g><g fill="#59b1e6" fill-opacity="1"><g transform="translate(123.93402, 28.656084)"><g><path d="M 1.5 -2.140625 C 1.5 -1.503906 1.753906 -1.1875 2.265625 -1.1875 C 2.390625 -1.1875 2.5 -1.195312 2.59375 -1.21875 C 2.695312 -1.25 2.785156 -1.285156 2.859375 -1.328125 L 2.859375 -3.15625 C 2.804688 -3.164062 2.738281 -3.171875 2.65625 -3.171875 C 2.582031 -3.179688 2.492188 -3.1875 2.390625 -3.1875 C 2.085938 -3.1875 1.863281 -3.085938 1.71875 -2.890625 C 1.570312 -2.691406 1.5 -2.441406 1.5 -2.140625 Z M 4 -0.5 C 4 0.15625 3.832031 0.640625 3.5 0.953125 C 3.164062 1.273438 2.648438 1.4375 1.953125 1.4375 C 1.710938 1.4375 1.46875 1.410156 1.21875 1.359375 C 0.976562 1.316406 0.753906 1.265625 0.546875 1.203125 L 0.734375 0.25 C 0.910156 0.3125 1.097656 0.363281 1.296875 0.40625 C 1.492188 0.445312 1.71875 0.46875 1.96875 0.46875 C 2.289062 0.46875 2.519531 0.394531 2.65625 0.25 C 2.789062 0.113281 2.859375 -0.0664062 2.859375 -0.296875 L 2.859375 -0.4375 C 2.734375 -0.375 2.601562 -0.328125 2.46875 -0.296875 C 2.34375 -0.273438 2.207031 -0.265625 2.0625 -0.265625 C 1.507812 -0.265625 1.082031 -0.425781 0.78125 -0.75 C 0.488281 -1.082031 0.34375 -1.546875 0.34375 -2.140625 C 0.34375 -2.429688 0.390625 -2.695312 0.484375 -2.9375 C 0.578125 -3.175781 0.707031 -3.378906 0.875 -3.546875 C 1.050781 -3.722656 1.265625 -3.859375 1.515625 -3.953125 C 1.773438 -4.054688 2.066406 -4.109375 2.390625 -4.109375 C 2.523438 -4.109375 2.664062 -4.097656 2.8125 -4.078125 C 2.957031 -4.066406 3.097656 -4.050781 3.234375 -4.03125 C 3.378906 -4.007812 3.515625 -3.984375 3.640625 -3.953125 C 3.773438 -3.929688 3.894531 -3.90625 4 -3.875 Z M 4 -0.5 "/></g></g></g><g fill="#59b1e6" fill-opacity="1"><g transform="translate(128.463403, 28.656084)"><g><path d="M 0.34375 -1.96875 C 0.34375 -2.332031 0.394531 -2.644531 0.5 -2.90625 C 0.613281 -3.175781 0.757812 -3.398438 0.9375 -3.578125 C 1.113281 -3.753906 1.316406 -3.890625 1.546875 -3.984375 C 1.785156 -4.078125 2.023438 -4.125 2.265625 -4.125 C 2.835938 -4.125 3.285156 -3.945312 3.609375 -3.59375 C 3.941406 -3.25 4.109375 -2.738281 4.109375 -2.0625 C 4.109375 -1.988281 4.101562 -1.910156 4.09375 -1.828125 C 4.09375 -1.753906 4.09375 -1.6875 4.09375 -1.625 L 1.515625 -1.625 C 1.535156 -1.394531 1.640625 -1.210938 1.828125 -1.078125 C 2.023438 -0.941406 2.285156 -0.875 2.609375 -0.875 C 2.816406 -0.875 3.019531 -0.890625 3.21875 -0.921875 C 3.425781 -0.960938 3.59375 -1.007812 3.71875 -1.0625 L 3.875 -0.140625 C 3.8125 -0.109375 3.726562 -0.078125 3.625 -0.046875 C 3.53125 -0.015625 3.421875 0.0078125 3.296875 0.03125 C 3.171875 0.0507812 3.035156 0.0664062 2.890625 0.078125 C 2.742188 0.0976562 2.601562 0.109375 2.46875 0.109375 C 2.101562 0.109375 1.785156 0.0546875 1.515625 -0.046875 C 1.253906 -0.160156 1.035156 -0.304688 0.859375 -0.484375 C 0.679688 -0.671875 0.550781 -0.890625 0.46875 -1.140625 C 0.382812 -1.398438 0.34375 -1.675781 0.34375 -1.96875 Z M 3.015625 -2.40625 C 3.003906 -2.5 2.984375 -2.59375 2.953125 -2.6875 C 2.929688 -2.78125 2.890625 -2.863281 2.828125 -2.9375 C 2.773438 -3.007812 2.703125 -3.066406 2.609375 -3.109375 C 2.523438 -3.148438 2.414062 -3.171875 2.28125 -3.171875 C 2.15625 -3.171875 2.046875 -3.148438 1.953125 -3.109375 C 1.859375 -3.066406 1.78125 -3.007812 1.71875 -2.9375 C 1.65625 -2.875 1.609375 -2.789062 1.578125 -2.6875 C 1.546875 -2.59375 1.523438 -2.5 1.515625 -2.40625 Z M 3.015625 -2.40625 "/></g></g></g><g fill="#59b1e6" fill-opacity="1"><g transform="translate(132.916538, 28.656084)"><g><path d="M 2.734375 -2.125 C 2.734375 -2.488281 2.6875 -2.75 2.59375 -2.90625 C 2.5 -3.0625 2.335938 -3.140625 2.109375 -3.140625 C 2.035156 -3.140625 1.960938 -3.132812 1.890625 -3.125 C 1.816406 -3.113281 1.742188 -3.101562 1.671875 -3.09375 L 1.671875 0 L 0.53125 0 L 0.53125 -3.875 C 0.625 -3.894531 0.734375 -3.921875 0.859375 -3.953125 C 0.992188 -3.984375 1.132812 -4.007812 1.28125 -4.03125 C 1.425781 -4.050781 1.570312 -4.066406 1.71875 -4.078125 C 1.875 -4.097656 2.03125 -4.109375 2.1875 -4.109375 C 2.46875 -4.109375 2.695312 -4.066406 2.875 -3.984375 C 3.0625 -3.910156 3.210938 -3.828125 3.328125 -3.734375 C 3.492188 -3.847656 3.679688 -3.9375 3.890625 -4 C 4.097656 -4.070312 4.289062 -4.109375 4.46875 -4.109375 C 4.789062 -4.109375 5.054688 -4.0625 5.265625 -3.96875 C 5.472656 -3.875 5.632812 -3.742188 5.75 -3.578125 C 5.875 -3.421875 5.957031 -3.226562 6 -3 C 6.050781 -2.78125 6.078125 -2.535156 6.078125 -2.265625 L 6.078125 0 L 4.9375 0 L 4.9375 -2.125 C 4.9375 -2.488281 4.890625 -2.75 4.796875 -2.90625 C 4.703125 -3.0625 4.539062 -3.140625 4.3125 -3.140625 C 4.25 -3.140625 4.160156 -3.125 4.046875 -3.09375 C 3.941406 -3.0625 3.859375 -3.019531 3.796875 -2.96875 C 3.828125 -2.851562 3.847656 -2.726562 3.859375 -2.59375 C 3.867188 -2.46875 3.875 -2.332031 3.875 -2.1875 L 3.875 0 L 2.734375 0 Z M 2.734375 -2.125 "/></g></g></g><g fill="#59b1e6" fill-opacity="1"><g transform="translate(139.489478, 28.656084)"><g><path d="M 0.34375 -1.96875 C 0.34375 -2.332031 0.394531 -2.644531 0.5 -2.90625 C 0.613281 -3.175781 0.757812 -3.398438 0.9375 -3.578125 C 1.113281 -3.753906 1.316406 -3.890625 1.546875 -3.984375 C 1.785156 -4.078125 2.023438 -4.125 2.265625 -4.125 C 2.835938 -4.125 3.285156 -3.945312 3.609375 -3.59375 C 3.941406 -3.25 4.109375 -2.738281 4.109375 -2.0625 C 4.109375 -1.988281 4.101562 -1.910156 4.09375 -1.828125 C 4.09375 -1.753906 4.09375 -1.6875 4.09375 -1.625 L 1.515625 -1.625 C 1.535156 -1.394531 1.640625 -1.210938 1.828125 -1.078125 C 2.023438 -0.941406 2.285156 -0.875 2.609375 -0.875 C 2.816406 -0.875 3.019531 -0.890625 3.21875 -0.921875 C 3.425781 -0.960938 3.59375 -1.007812 3.71875 -1.0625 L 3.875 -0.140625 C 3.8125 -0.109375 3.726562 -0.078125 3.625 -0.046875 C 3.53125 -0.015625 3.421875 0.0078125 3.296875 0.03125 C 3.171875 0.0507812 3.035156 0.0664062 2.890625 0.078125 C 2.742188 0.0976562 2.601562 0.109375 2.46875 0.109375 C 2.101562 0.109375 1.785156 0.0546875 1.515625 -0.046875 C 1.253906 -0.160156 1.035156 -0.304688 0.859375 -0.484375 C 0.679688 -0.671875 0.550781 -0.890625 0.46875 -1.140625 C 0.382812 -1.398438 0.34375 -1.675781 0.34375 -1.96875 Z M 3.015625 -2.40625 C 3.003906 -2.5 2.984375 -2.59375 2.953125 -2.6875 C 2.929688 -2.78125 2.890625 -2.863281 2.828125 -2.9375 C 2.773438 -3.007812 2.703125 -3.066406 2.609375 -3.109375 C 2.523438 -3.148438 2.414062 -3.171875 2.28125 -3.171875 C 2.15625 -3.171875 2.046875 -3.148438 1.953125 -3.109375 C 1.859375 -3.066406 1.78125 -3.007812 1.71875 -2.9375 C 1.65625 -2.875 1.609375 -2.789062 1.578125 -2.6875 C 1.546875 -2.59375 1.523438 -2.5 1.515625 -2.40625 Z M 3.015625 -2.40625 "/></g></g></g><g fill="#59b1e6" fill-opacity="1"><g transform="translate(143.942612, 28.656084)"><g><path d="M 0.53125 -3.875 C 0.726562 -3.925781 0.976562 -3.976562 1.28125 -4.03125 C 1.582031 -4.082031 1.898438 -4.109375 2.234375 -4.109375 C 2.578125 -4.109375 2.863281 -4.0625 3.09375 -3.96875 C 3.320312 -3.875 3.5 -3.742188 3.625 -3.578125 C 3.757812 -3.421875 3.851562 -3.226562 3.90625 -3 C 3.96875 -2.78125 4 -2.535156 4 -2.265625 L 4 0 L 2.859375 0 L 2.859375 -2.125 C 2.859375 -2.488281 2.804688 -2.75 2.703125 -2.90625 C 2.609375 -3.0625 2.429688 -3.140625 2.171875 -3.140625 C 2.085938 -3.140625 2 -3.132812 1.90625 -3.125 C 1.820312 -3.113281 1.742188 -3.101562 1.671875 -3.09375 L 1.671875 0 L 0.53125 0 Z M 0.53125 -3.875 "/></g></g></g><g clip-path="url(#id4)"><g fill="#59b1e6" fill-opacity="1"><g transform="translate(148.433871, 28.656084)"><g><path d="M 0.5 -5.015625 L 1.625 -5.1875 L 1.625 -4.015625 L 3 -4.015625 L 3 -3.0625 L 1.625 -3.0625 L 1.625 -1.65625 C 1.625 -1.414062 1.664062 -1.222656 1.75 -1.078125 C 1.84375 -0.941406 2.015625 -0.875 2.265625 -0.875 C 2.390625 -0.875 2.515625 -0.882812 2.640625 -0.90625 C 2.773438 -0.925781 2.894531 -0.957031 3 -1 L 3.15625 -0.109375 C 3.019531 -0.0546875 2.867188 -0.0078125 2.703125 0.03125 C 2.535156 0.0703125 2.328125 0.09375 2.078125 0.09375 C 1.765625 0.09375 1.503906 0.0507812 1.296875 -0.03125 C 1.097656 -0.113281 0.9375 -0.226562 0.8125 -0.375 C 0.695312 -0.53125 0.613281 -0.710938 0.5625 -0.921875 C 0.519531 -1.140625 0.5 -1.378906 0.5 -1.640625 Z M 0.5 -5.015625 "/></g></g></g></g></svg>