<?xml version="1.0" encoding="UTF-8"?>
<svg width="64px" height="64px" viewBox="0 0 64 64" version="1.1" xmlns="http://www.w3.org/2000/svg" xmlns:xlink="http://www.w3.org/1999/xlink">
    <title>0349DB7F-487A-431D-92ED-E005904C480D</title>
    <defs>
        <polygon id="path-1" points="0 0 24.657152 0 24.657152 24.6438508 0 24.6438508"></polygon>
    </defs>
    <g id="Dashboard" stroke="none" stroke-width="1" fill="none" fill-rule="evenodd">
        <g id="Job-Fulfillments-02" transform="translate(-418, -342)">
            <g id="Group-24" transform="translate(414, 342)">
                <g id="Group-29" transform="translate(4, 0)">
                    <rect id="Rectangle-Copy-14" fill="#F5F5F5" x="0" y="0" width="64" height="64" rx="20"></rect>
                    <g id="Group-40" transform="translate(14, 15)">
                        <path d="M12.7580396,27.7217669 C12.9020215,28.3876982 12.9665133,29.0577565 12.8746499,29.7371941 C12.050129,29.736819 11.2259831,29.7323169 10.4018371,29.7379445 C9.8757785,29.7416962 9.51582394,30.2770675 9.75841832,30.6935091 C9.9391455,31.0037769 10.2492314,31.0724335 10.5780648,31.0746845 C11.1704901,31.0784362 11.7629153,31.0773107 12.3553405,31.0739341 C12.43858,31.0731838 12.5218195,31.0465465 12.605059,31.0319148 C13.1967343,31.0412941 13.7891595,31.0367921 14.3804598,31.0630541 C16.0778706,31.1380887 17.3999537,32.5070935 17.4333244,34.2111275 C17.4381988,34.4516132 17.4344493,34.6920988 17.4344493,34.9325845 C17.3830808,34.9355858 17.3317123,34.9415886 17.2803438,34.9415886 C13.6556763,34.9247058 10.0313839,34.9078231 6.40671643,34.8905651 C5.51882852,34.7723857 4.68380893,34.4940077 3.94477722,33.9856488 C1.93428103,32.6027625 1.00852289,30.6691229 1.36397802,28.2650168 C1.73105668,25.7817493 3.23799145,24.1820133 5.64556252,23.4721867 C6.58406904,23.1956845 7.54582263,23.2362031 8.49932726,23.4470501 C8.58294171,23.5550998 8.65568253,23.6744047 8.75204536,23.7696986 C10.085377,25.0888055 11.4220833,26.404911 12.7580396,27.7217669" id="Fill-1" fill="#0A2841"></path>
                        <path d="M34.2177056,24.6242668 C34.0782232,25.409503 33.9439902,26.1954896 33.7985085,26.9796004 C33.5187938,28.4900453 33.2330799,29.9997399 32.9481159,31.5094345 C32.8764999,31.888734 32.780887,32.395217 32.6848991,32.9005746 C32.4651768,34.0594828 31.4528046,34.8983688 30.2739535,34.8983688 L25.294957,34.8983688 C24.1153559,34.8987439 23.1026088,34.0587324 22.8836364,32.8986987 C22.7670261,32.2822901 22.6466663,31.6444967 22.5589274,31.1804081 C22.1746009,29.1394691 21.7898995,27.0985301 21.4063229,25.0572159 C21.3800762,24.9146504 21.365828,24.7694586 21.3459555,24.6253923 C21.4640656,24.6092598 21.5818007,24.5788709 21.6995359,24.5788709 C25.7722717,24.5762447 29.8446327,24.5762447 33.9166186,24.5788709 C34.016731,24.5788709 34.1175932,24.6081343 34.2177056,24.6242668" id="Fill-3" fill="#061B28"></path>
                        <g id="Group-9" transform="translate(11.5383, 0)">
                            <mask id="mask-2" fill="white">
                                <use xlink:href="#path-1"></use>
                            </mask>
                            <g id="Clip-8"></g>
                            <path d="M0,22.8283905 C0.854892079,21.9714963 1.70978416,21.1142268 2.56542614,20.2577078 C4.51480506,18.3068102 6.46418397,16.3559126 8.41431279,14.4057654 C12.1510911,10.6690462 15.8874944,6.9330773 19.6246476,3.19710844 C20.5725279,2.2497976 21.514409,1.29573365 22.4757877,0.362304191 C22.9759745,-0.123919513 23.7360036,-0.112289163 24.223817,0.345796596 C24.7363773,0.827143056 24.8169921,1.57673793 24.343052,2.10685683 C23.7768734,2.7401482 23.1582015,3.32691816 22.5571524,3.92869503 C15.692519,10.7984807 8.82713567,17.6671409 1.96175235,24.5361762 C1.92538194,24.572568 1.88788668,24.6078342 1.85114131,24.6438508 C1.76677696,24.5905763 1.66928927,24.5504328 1.59992303,24.4821514 C1.11248456,24.0023056 0.62992048,23.5179578 0.148481256,23.0317341 C0.0899886399,22.972832 0.0491187993,22.8966719 0,22.8283905" id="Fill-7" fill="#52341A" mask="url(#mask-2)"></path>
                        </g>
                        <path d="M22.0583281,21.9755106 C21.8794757,21.4022468 21.9383432,20.8507431 22.2533035,20.3438849 C22.5888861,19.8043867 23.080824,19.4832389 23.7212432,19.4209603 C23.86485,19.4070789 23.9015954,19.3448002 23.9195931,19.2127395 C24.0530763,18.2327886 24.7426142,17.5499745 25.7223655,17.4726889 C25.9927064,17.4513041 26.2765456,17.5432214 26.5476364,17.6100021 C26.685244,17.6437676 26.7553601,17.6456435 26.8311006,17.5049538 C27.5363865,16.1982276 29.2937897,15.723259 30.5989999,16.6818251 C31.4471429,17.3049868 31.7654777,18.1742617 31.6211209,19.2146154 C31.6139968,19.2641381 31.6094974,19.3140361 31.6031232,19.3706872 C31.82622,19.4175837 32.0455673,19.4438458 32.2521662,19.5098762 C33.2375418,19.8253964 33.7838479,20.8173527 33.5382539,21.8250664 C33.5258804,21.8749643 33.5168816,21.9256126 33.5063829,21.9755106 C33.4381415,21.980763 33.3702751,21.9905175 33.3020337,21.9905175 C29.6222482,21.9912678 25.9424628,21.9912678 22.2626773,21.9905175 C22.1944359,21.9905175 22.1265695,21.980763 22.0583281,21.9755106" id="Fill-10" fill="#D7E5FF"></path>
                        <path d="M34.4887589,24.5524587 C34.3972704,24.570467 34.3080317,24.6001056 34.2176681,24.6241167 C34.1175558,24.6083594 34.0170684,24.5787208 33.9165811,24.5787208 C29.8445952,24.5760946 25.7722343,24.5760946 21.6994984,24.5787208 C21.5817633,24.5787208 21.4640281,24.6091098 21.345918,24.6252422 C21.2559294,24.600856 21.1670656,24.570467 21.0759521,24.5524587 C20.4119109,24.4192724 19.9874645,23.853137 20.0407078,23.1661959 C20.0902015,22.520899 20.6278837,22.0136657 21.2881753,21.9922808 C21.5446429,21.9836518 21.8018605,21.9810256 22.0583281,21.975398 C22.1265695,21.9806505 22.1944359,21.990405 22.2626773,21.990405 C25.9420878,21.9915305 29.6218733,21.9915305 33.3020337,21.990405 C33.3699001,21.990405 33.4381415,21.9810256 33.5063829,21.9757732 C33.7636004,21.9810256 34.020443,21.984027 34.2769106,21.9922808 C34.91583,22.0129153 35.4685102,22.5137707 35.5206286,23.1147973 C35.5836207,23.8456335 35.1734225,24.4162711 34.4887589,24.5524587" id="Fill-12" fill="#0A2841"></path>
                        <path d="M11.6359938,6.47930603 C11.6273699,6.26620799 11.7233578,6.11763963 11.9149586,6.0290989 C13.6164938,5.2401109 14.8699605,3.99866472 15.6659851,2.29950797 C15.7664724,2.08528441 15.9093293,1.93671605 16.1489241,1.93709052 C16.3930183,1.93709052 16.5317508,2.1059189 16.6269887,2.31151349 C17.028563,3.17816222 17.5722444,3.94388952 18.2629072,4.60269263 C18.8575822,5.16995362 19.5234981,5.63629317 20.2704038,5.98070163 C20.4882513,6.08087272 20.6547303,6.20655554 20.6656039,6.46692533 C20.6768525,6.7385503 20.4916259,6.86573382 20.284652,6.9632787 C19.0851784,7.52641279 18.106552,8.35779529 17.337899,9.4289131 C17.0645585,9.81008847 16.8504605,10.2355342 16.6236142,10.6482241 C16.5133781,10.8489414 16.3926433,11.0091401 16.1399252,11.005816 C15.8872071,11.002387 15.7619729,10.8429387 15.6633604,10.6362186 C14.8684607,8.96932665 13.6344915,7.74063635 11.9715764,6.94151869 C11.6948614,6.80833241 11.6359938,6.71979167 11.6359938,6.47930603" id="Fill-14" fill="#0A2841"></path>
                        <path d="M6.5353252,14.2313101 C6.38346937,14.3787529 6.30097978,14.5033103 6.18549436,14.563713 C5.5791959,14.878858 4.99764431,15.2382734 4.5596996,15.7631399 C4.1944957,16.2009663 3.91103148,16.7055735 3.57544885,17.1689117 C3.48958469,17.2874662 3.35497668,17.4082718 3.22036867,17.4442884 C3.03626691,17.4938111 2.94065398,17.3294855 2.86491355,17.1741641 C2.29985988,16.01338 1.43634389,15.1493575 0.276990242,14.5828468 C0.122134791,14.5074372 -0.0409696192,14.4128937 0.0092740381,14.2264329 C0.0433947307,14.0988742 0.158130247,13.952932 0.275865384,13.8940299 C1.43896856,13.3136379 2.30435931,12.446614 2.88141146,11.2809527 C2.93952913,11.1631485 3.10600811,11.0194574 3.21286962,11.0265857 C3.33997857,11.0352146 3.50908223,11.1684009 3.57019951,11.2922079 C4.13637804,12.4428623 4.9818963,13.3038834 6.13487575,13.8692685 C6.27173347,13.9364244 6.37147088,14.0797404 6.5353252,14.2313101" id="Fill-16" fill="#0A2841"></path>
                        <path d="M11.5382811,22.8283905 C11.5873999,22.8966719 11.6282698,22.972832 11.6867624,23.0317341 C12.1682016,23.5179578 12.6507657,24.0023056 13.1382042,24.4821514 C13.2075704,24.5504328 13.3050581,24.5905763 13.3894224,24.6438508 C13.4400411,24.7290149 13.4775363,24.8265598 13.5442779,24.8967171 C13.7673747,25.1327007 14.0017201,25.3585546 14.2308162,25.5892857 C14.6158926,25.9775894 14.7441264,26.437551 14.5510258,26.9507871 C14.3526758,27.4779047 13.947352,27.7754165 13.3864228,27.8140593 C13.1801989,27.8283159 12.9676007,27.7551572 12.7580022,27.7217669 C11.4220458,26.404911 10.0853395,25.0888055 8.75200787,23.7696986 C8.65564503,23.6744047 8.58290421,23.5550998 8.49928977,23.4470501 C8.43479791,23.1048927 8.34443432,22.7762415 8.47941728,22.416451 C8.80225152,21.5561802 9.90236265,21.2845552 10.5656539,21.9238493 C10.818747,22.1677115 11.0617163,22.4224537 11.3140594,22.6670663 C11.3793012,22.7304704 11.4629156,22.775116 11.5382811,22.8283905" id="Fill-18" fill="#C1872F"></path>
                        <path d="M33.6076951,15.5270062 C33.5623258,14.8295604 34.1903716,14.2315352 34.8844089,14.2199049 C35.5866953,14.2078993 36.1813702,14.8186804 36.1840063,15.5150007 C36.1869945,16.272099 35.5983188,16.8191007 34.8851588,16.8273545 C34.1671245,16.8359835 33.6076951,16.2473377 33.6076951,15.5270062" id="Fill-20" fill="#D7E5FF"></path>
                        <path d="M32.9436914,11.6641165 C32.9598144,12.3503072 32.4228822,12.9430799 31.6774763,12.9445834 C30.8675785,12.9460813 30.3786402,12.3383017 30.3677666,11.6427316 C30.356518,10.947912 30.9763148,10.3375061 31.6598535,10.3423834 C32.392886,10.3476358 32.9463161,10.917523 32.9436914,11.6641165" id="Fill-22" fill="#D7E5FF"></path>
                        <path d="M12.6049465,31.0317647 C12.521707,31.0463965 12.4388424,31.0734089 12.355603,31.0737841 C11.7631777,31.0775358 11.1707525,31.0782861 10.5783273,31.0745344 C10.2491189,31.0726586 9.93903302,31.004002 9.75830583,30.6937342 C9.51571146,30.2769175 9.87566602,29.7415461 10.4017246,29.7381696 C11.2258706,29.7321668 12.0503915,29.7370441 12.8745374,29.7370441 C12.8681632,29.8218331 12.8614141,29.9062469 12.8550399,29.9906607 C12.8445412,30.0251766 12.8340426,30.0596925 12.8239188,30.0938332 C12.7508031,30.406352 12.6780622,30.719246 12.6049465,31.0317647" id="Fill-24" fill="#061B28"></path>
                        <path d="M6.1970429,3.54207966 C6.28065735,3.58522451 6.44413671,3.63212108 6.55774737,3.73491838 C6.88770571,4.03355578 7.202291,4.34982629 7.51350171,4.66834784 C7.82621224,4.98837007 7.84008549,5.34290819 7.56637004,5.62541317 C7.29040488,5.90979401 6.91095278,5.90041469 6.58811853,5.58864625 C6.27990744,5.2907592 5.97469597,4.98912042 5.67998317,4.67810232 C5.48238312,4.46988152 5.41339183,4.21851588 5.53675126,3.94351435 C5.6488621,3.69402456 5.8524614,3.56909209 6.1970429,3.54207966" id="Fill-26" fill="#FEC259"></path>
                        <path d="M5.44702508,2.24439511 C5.52988962,2.0924502 5.58725738,1.91686942 5.70049309,1.79268729 C5.99445598,1.47003884 6.30941622,1.16614903 6.62250169,0.861508867 C6.90971543,0.582380444 7.30416564,0.573751474 7.56550765,0.829994368 C7.83622347,1.09561658 7.83509862,1.47153953 7.54825983,1.76830107 C7.23292463,2.09507641 6.91046534,2.41509865 6.58425652,2.73099399 C6.3705335,2.9377141 6.11219111,2.97222998 5.84784948,2.84879819 C5.6108794,2.73849744 5.48976969,2.53890561 5.44702508,2.24439511" id="Fill-28" fill="#FEC259"></path>
                        <path d="M3.35115216,0.647472892 C3.4681374,0.729260522 3.66798717,0.839186097 3.83146653,0.989255141 C4.1089315,1.24362217 4.36577408,1.52087473 4.62711609,1.79287487 C4.90683078,2.08438399 4.91357992,2.46480902 4.64923829,2.73343261 C4.40701887,2.97992102 3.99719561,2.98142171 3.72123045,2.71805053 C3.3983962,2.41040899 3.08418586,2.09376331 2.77709963,1.77036452 C2.57837472,1.56026786 2.51500772,1.30815186 2.64699106,1.03540137 C2.766226,0.78928814 2.97544959,0.673359803 3.35115216,0.647472892" id="Fill-30" fill="#FEC259"></path>
                        <path d="M4.84185148,4.3039802 C4.79910688,4.38239127 4.74173912,4.5587224 4.62812846,4.68365488 C4.33379062,5.0066785 4.01958028,5.31244417 3.70387014,5.61520847 C3.41065715,5.89658793 3.01545704,5.89883897 2.76086418,5.63584297 C2.50064703,5.36646903 2.50664627,4.98566883 2.79460992,4.69303419 C3.13094246,4.35087677 3.47139948,4.01134556 3.82835442,3.69094815 C4.01845542,3.51986944 4.2617997,3.53862807 4.48152197,3.64742813 C4.7046188,3.75772887 4.82535356,3.94944208 4.84185148,4.3039802" id="Fill-32" fill="#FEC259"></path>
                        <path d="M12.8238063,30.0939083 C12.834305,30.0593924 12.8448037,30.0252517 12.8549274,29.9907358 C12.8448037,30.0252517 12.834305,30.0593924 12.8238063,30.0939083" id="Fill-34" fill="#9E5F3F"></path>
                        <path d="M29.4109624,26.5204266 C29.7195484,26.5204266 30.0281345,26.5151742 30.3363456,26.5215522 C30.728921,26.5294308 31.0000118,26.7871744 31.0108854,27.151467 C31.0210092,27.4996272 30.7720406,27.7922618 30.3899638,27.8050177 C29.731172,27.8267777 29.0701304,27.827528 28.4113386,27.805768 C28.0206379,27.792637 27.7679198,27.4853706 27.7896671,27.1270808 C27.8110394,26.7740433 28.0761309,26.529806 28.4597075,26.5219273 C28.7765425,26.5151742 29.0937524,26.5204266 29.4109624,26.5204266" id="Fill-36" fill="#0A2841"></path>
                        <path d="M25.2167419,26.5218898 C25.4308399,26.5218898 25.6453128,26.5140112 25.8590358,26.5237657 C26.2054921,26.5391478 26.4604599,26.7860113 26.4889563,27.1187894 C26.5170777,27.4429386 26.2943558,27.7637112 25.9501493,27.7869719 C25.4480877,27.8207374 24.9404018,27.8188615 24.4387151,27.7843457 C24.1083818,27.7614601 23.8909092,27.450442 23.9077821,27.1337963 C23.9254049,26.8036445 24.1818725,26.541774 24.5230794,26.5241409 C24.7536753,26.5125105 24.9853961,26.5218898 25.2167419,26.5218898" id="Fill-38" fill="#0A2841"></path>
                    </g>
                </g>
            </g>
        </g>
    </g>
</svg>