<?xml version="1.0" encoding="UTF-8"?>
<svg width="64px" height="64px" viewBox="0 0 64 64" version="1.1" xmlns="http://www.w3.org/2000/svg" xmlns:xlink="http://www.w3.org/1999/xlink">
    <title>1C1F20D7-E4A8-4A00-9F59-4399697D5ED9</title>
    <defs>
        <polygon id="path-1" points="0 0 14.8470995 0 14.8470995 24.8531254 0 24.8531254"></polygon>
    </defs>
    <g id="Dashboard" stroke="none" stroke-width="1" fill="none" fill-rule="evenodd">
        <g id="Job-Fulfillments-02" transform="translate(-343, -342)">
            <g id="Group-22" transform="translate(338, 342)">
                <g id="Group-28" transform="translate(5, 0)">
                    <rect id="Rectangle-Copy-12" fill="#F5F5F5" x="0" y="0" width="64" height="64" rx="20"></rect>
                    <g id="Group-9" transform="translate(14.611, 15.4483)">
                        <g id="Group-15" transform="translate(0, -0)">
                            <path d="" id="Rectangle" stroke="#979797" stroke-width="1.10344828" fill="#D8D8D8"></path>
                            <g id="Group-21">
                                <path d="M2.87481071,11.5605396 L0.449815877,8.15874871 C-0.445122692,6.90277677 0.0589492677,5.1515912 1.48942375,4.54875029 L11.8209527,0.194009525 C12.9066212,-0.263406423 14.1680986,0.110085871 14.8194348,1.0819346 L17.6262139,5.27042966 L2.87481071,11.5605396 Z" id="Fill-1" fill="#FBB971"></path>
                                <path d="M17.7571623,5.16546103 C18.087696,5.32722227 18.412391,5.5021166 18.7500608,5.64850252 C20.2901725,6.31508696 21.833528,6.97430407 23.3759103,7.63544308 C24.8790438,8.27960518 26.3825017,8.92408759 27.8866083,9.56696841 C29.3611972,10.1970365 30.8367592,10.8251826 32.3110237,11.4562116 C32.365518,11.4795949 32.4106055,11.5247599 32.5137554,11.5971521 C32.1176988,11.7710855 31.7654323,11.9280419 31.4112196,12.0805139 C29.4503991,12.9245552 27.489903,13.7689169 25.5274607,14.6100753 C23.682765,15.4006234 21.8374204,16.190851 19.9891566,16.9737114 C19.2275344,17.2965932 18.4578028,17.5999356 17.6916394,17.9122469 C17.6919638,13.8073552 17.6926125,9.70246347 17.6896932,5.59725143 C17.6896932,5.48834287 17.6481738,5.37943431 17.6261166,5.27020543 C17.6277384,5.23464999 17.6296846,5.19909455 17.6313065,5.16353911 C17.6731503,5.16417975 17.7153185,5.16482039 17.7571623,5.16546103" id="Fill-3" fill="#E5742E"></path>
                                <path d="M17.6261814,5.2702695 C17.6482386,5.37917806 17.6897581,5.48840694 17.6897581,5.5973155 C17.6926774,9.70220722 17.6920011,13.8070989 17.6917043,17.9119907 C16.6332829,17.4734736 15.5716179,17.0413628 14.5167646,16.5941971 C13.1381894,16.0099347 11.7648041,15.4135002 10.3891483,14.8225111 C9.13059025,14.2818121 7.87235657,13.7404725 6.61314979,13.2010548 C5.54921412,12.7452405 4.48398097,12.2929496 3.42101841,11.8355337 C3.2620768,11.7669854 3.11124446,11.6801788 2.87477827,11.5603794 C3.54590111,11.2736937 4.12749765,11.0260868 4.7077967,10.7768784 C5.97641024,10.2323356 7.24405066,9.68619125 8.5126642,9.14164846 C10.0446667,8.48403295 11.5773179,7.82833936 13.1093204,7.17008322 C14.3776096,6.6252201 15.6439525,6.07619284 16.9135392,5.53357196 C17.1461129,5.43427298 17.3884178,5.35739635 17.6261814,5.2702695" id="Fill-5" fill="#F3922F"></path>
                                <path d="M32.3775521,11.5605396 L34.802547,8.15874871 C35.6974855,6.90277677 35.1934136,5.1515912 33.7629391,4.54875029 L23.4314102,0.194009525 C22.3457417,-0.263406423 21.0842643,0.110085871 20.4329281,1.0819346 L17.626149,5.27042966 L32.3775521,11.5605396 Z" id="Fill-7" fill="#FBB971"></path>
                                <g id="Group-11" transform="translate(17.7023, 11.5606)" fill="#9E5F3E">
                                    <path d="M14.8471025,15.7837331 C14.8509849,17.6624057 13.721202,19.3629809 11.9744662,20.1070826 L2.93166176,23.9627659 L2.81326648,24.0127357 L1.60985144,24.5242856 C1.09572399,24.742423 0.547861995,24.8519722 0,24.8532535 L0,6.35161123 L14.816926,0 L14.8471025,15.7837331 Z" id="Fill-9"></path>
                                </g>
                                <g id="Group-14" transform="translate(2.8443, 11.5607)">
                                    <mask id="mask-2" fill="white">
                                        <use xlink:href="#path-1"></use>
                                    </mask>
                                    <g id="Clip-13"></g>
                                    <path d="M14.8470995,6.35161123 L14.8470995,24.8532535 C14.3011837,24.8526129 13.7552679,24.7449856 13.2430867,24.5284498 C13.2385455,24.5271685 13.2346531,24.5252466 13.2304362,24.5233246 C13.2297875,24.522684 13.22849,24.522684 13.2278413,24.5220434 L11.5015408,23.78627 L2.87295764,20.1070826 C1.12654617,19.3629809 -0.00323674006,17.6624057 0,15.7837331 L0.0308221761,0 L14.8470995,6.35161123 Z" id="Fill-12" fill="#E5742E" mask="url(#mask-2)"></path>
                                </g>
                                <path d="M17.6916394,17.9121508 L14.8803192,22.2781028 C14.2695293,23.2268885 13.046652,23.5898103 12.0073685,23.1314334 L1.35957818,18.4336306 C0.0471746139,17.8544933 -0.409539234,16.2400841 0.409496608,15.0731609 L2.8747134,11.5605396" id="Fill-15" fill="#FBB971"></path>
                                <path d="M17.5916684,17.9121508 L20.4029886,22.2781028 C21.0137785,23.2268885 22.2366558,23.5898103 23.2759393,23.1314334 L33.9237296,18.4336306 C35.2361332,17.8544933 35.692847,16.2400841 34.8738112,15.0731609 L32.4085944,11.5605396" id="Fill-17" fill="#FBB971"></path>
                                <path d="M4.13447161,27.4378379 C4.13447161,27.3010616 4.13414682,27.1607618 4.13414682,27.0211025 C4.1334985,26.3013451 4.8724148,25.8112566 5.54678134,26.0838483 L7.54717502,26.8929748 C8.22478526,27.1671681 8.66755117,27.8183773 8.66755117,28.5416582 L8.66755117,28.9984335 C8.66755117,29.7249177 7.91468694,30.2146859 7.23869855,29.9276798 L5.22630316,29.0737086 C4.56393833,28.7927885 4.13479599,28.1495874 4.13447161,27.4378379" id="Fill-19" fill="#FEFCFB"></path>
                            </g>
                        </g>
                    </g>
                </g>
            </g>
        </g>
    </g>
</svg>