<svg xmlns="http://www.w3.org/2000/svg" xmlns:xlink="http://www.w3.org/1999/xlink" width="700" zoomAndPan="magnify" viewBox="0 0 525 149.999998" height="200" preserveAspectRatio="xMidYMid meet" version="1.0"><defs><g/><clipPath id="6ce378771f"><path d="M 404.6875 84.015625 L 418.214844 84.015625 L 418.214844 97.542969 L 404.6875 97.542969 Z M 404.6875 84.015625 " clip-rule="nonzero"/></clipPath><clipPath id="f912a9dc29"><path d="M 411.453125 84.015625 C 407.71875 84.015625 404.6875 87.042969 404.6875 90.777344 C 404.6875 94.511719 407.71875 97.542969 411.453125 97.542969 C 415.1875 97.542969 418.214844 94.511719 418.214844 90.777344 C 418.214844 87.042969 415.1875 84.015625 411.453125 84.015625 Z M 411.453125 84.015625 " clip-rule="nonzero"/></clipPath><clipPath id="94eee1731c"><path d="M 36 10.511719 L 158.796875 10.511719 L 158.796875 139.511719 L 36 139.511719 Z M 36 10.511719 " clip-rule="nonzero"/></clipPath><clipPath id="2bb6ea7120"><path d="M 106.378906 70.597656 L 51.535156 70.597656 C 49.410156 70.597656 47.871094 68.566406 48.445312 66.519531 L 63.5 12.859375 C 63.890625 11.472656 65.152344 10.515625 66.59375 10.515625 L 121.4375 10.515625 C 123.5625 10.515625 125.101562 12.546875 124.527344 14.59375 L 109.472656 68.253906 C 109.082031 69.636719 107.820312 70.597656 106.378906 70.597656 Z M 70.757812 111.101562 L 78.511719 83.472656 C 79.085938 81.421875 77.546875 79.394531 75.417969 79.394531 L 47.226562 79.394531 C 45.789062 79.394531 44.523438 80.351562 44.136719 81.738281 L 36.382812 109.363281 C 35.808594 111.414062 37.347656 113.441406 39.472656 113.441406 L 67.667969 113.441406 C 69.105469 113.441406 70.371094 112.484375 70.757812 111.101562 Z M 85.023438 81.738281 L 69.96875 135.394531 C 69.394531 137.441406 70.933594 139.472656 73.058594 139.472656 L 127.902344 139.472656 C 129.34375 139.472656 130.605469 138.515625 130.996094 137.128906 L 146.050781 83.472656 C 146.625 81.421875 145.085938 79.394531 142.960938 79.394531 L 88.117188 79.394531 C 86.675781 79.394531 85.414062 80.351562 85.023438 81.738281 Z M 123.738281 38.890625 L 115.984375 66.519531 C 115.410156 68.566406 116.949219 70.597656 119.078125 70.597656 L 147.269531 70.597656 C 148.707031 70.597656 149.972656 69.636719 150.359375 68.253906 L 158.113281 40.625 C 158.6875 38.578125 157.148438 36.546875 155.023438 36.546875 L 126.828125 36.546875 C 125.390625 36.546875 124.125 37.503906 123.738281 38.890625 Z M 123.738281 38.890625 " clip-rule="nonzero"/></clipPath><linearGradient x1="114.296456" gradientTransform="matrix(0.257916, 0, 0, 0.257916, 36.261456, 10.515657)" y1="-47.633936" x2="358.621864" gradientUnits="userSpaceOnUse" y2="547.634053" id="32daa2ca63"><stop stop-opacity="1" stop-color="rgb(32.199097%, 76.899719%, 15.699768%)" offset="0"/><stop stop-opacity="1" stop-color="rgb(32.199097%, 76.899719%, 15.699768%)" offset="0.0625"/><stop stop-opacity="1" stop-color="rgb(32.136536%, 76.858521%, 15.818787%)" offset="0.09375"/><stop stop-opacity="1" stop-color="rgb(31.903076%, 76.707458%, 16.264343%)" offset="0.0976563"/><stop stop-opacity="1" stop-color="rgb(31.733704%, 76.599121%, 16.589355%)" offset="0.101563"/><stop stop-opacity="1" stop-color="rgb(31.564331%, 76.489258%, 16.912842%)" offset="0.105469"/><stop stop-opacity="1" stop-color="rgb(31.394958%, 76.379395%, 17.237854%)" offset="0.109375"/><stop stop-opacity="1" stop-color="rgb(31.22406%, 76.269531%, 17.562866%)" offset="0.113281"/><stop stop-opacity="1" stop-color="rgb(31.054688%, 76.159668%, 17.887878%)" offset="0.117188"/><stop stop-opacity="1" stop-color="rgb(30.885315%, 76.049805%, 18.211365%)" offset="0.121094"/><stop stop-opacity="1" stop-color="rgb(30.715942%, 75.941467%, 18.536377%)" offset="0.125"/><stop stop-opacity="1" stop-color="rgb(30.54657%, 75.831604%, 18.861389%)" offset="0.128906"/><stop stop-opacity="1" stop-color="rgb(30.377197%, 75.721741%, 19.186401%)" offset="0.132813"/><stop stop-opacity="1" stop-color="rgb(30.206299%, 75.611877%, 19.509888%)" offset="0.136719"/><stop stop-opacity="1" stop-color="rgb(30.036926%, 75.502014%, 19.8349%)" offset="0.140625"/><stop stop-opacity="1" stop-color="rgb(29.867554%, 75.392151%, 20.159912%)" offset="0.144531"/><stop stop-opacity="1" stop-color="rgb(29.698181%, 75.283813%, 20.484924%)" offset="0.148438"/><stop stop-opacity="1" stop-color="rgb(29.527283%, 75.17395%, 20.808411%)" offset="0.152344"/><stop stop-opacity="1" stop-color="rgb(29.35791%, 75.064087%, 21.133423%)" offset="0.15625"/><stop stop-opacity="1" stop-color="rgb(29.188538%, 74.954224%, 21.458435%)" offset="0.160156"/><stop stop-opacity="1" stop-color="rgb(29.019165%, 74.84436%, 21.783447%)" offset="0.164063"/><stop stop-opacity="1" stop-color="rgb(28.848267%, 74.734497%, 22.106934%)" offset="0.167969"/><stop stop-opacity="1" stop-color="rgb(28.678894%, 74.62616%, 22.431946%)" offset="0.171875"/><stop stop-opacity="1" stop-color="rgb(28.509521%, 74.516296%, 22.756958%)" offset="0.175781"/><stop stop-opacity="1" stop-color="rgb(28.340149%, 74.406433%, 23.08197%)" offset="0.179688"/><stop stop-opacity="1" stop-color="rgb(28.170776%, 74.29657%, 23.405457%)" offset="0.183594"/><stop stop-opacity="1" stop-color="rgb(28.001404%, 74.186707%, 23.730469%)" offset="0.1875"/><stop stop-opacity="1" stop-color="rgb(27.830505%, 74.076843%, 24.055481%)" offset="0.191406"/><stop stop-opacity="1" stop-color="rgb(27.661133%, 73.968506%, 24.380493%)" offset="0.195313"/><stop stop-opacity="1" stop-color="rgb(27.49176%, 73.858643%, 24.705505%)" offset="0.199219"/><stop stop-opacity="1" stop-color="rgb(27.322388%, 73.748779%, 25.030518%)" offset="0.203125"/><stop stop-opacity="1" stop-color="rgb(27.151489%, 73.638916%, 25.354004%)" offset="0.207031"/><stop stop-opacity="1" stop-color="rgb(26.982117%, 73.529053%, 25.679016%)" offset="0.210938"/><stop stop-opacity="1" stop-color="rgb(26.812744%, 73.419189%, 26.004028%)" offset="0.214844"/><stop stop-opacity="1" stop-color="rgb(26.643372%, 73.310852%, 26.329041%)" offset="0.21875"/><stop stop-opacity="1" stop-color="rgb(26.472473%, 73.200989%, 26.652527%)" offset="0.222656"/><stop stop-opacity="1" stop-color="rgb(26.303101%, 73.091125%, 26.977539%)" offset="0.226563"/><stop stop-opacity="1" stop-color="rgb(26.133728%, 72.981262%, 27.302551%)" offset="0.230469"/><stop stop-opacity="1" stop-color="rgb(25.964355%, 72.871399%, 27.627563%)" offset="0.234375"/><stop stop-opacity="1" stop-color="rgb(25.794983%, 72.761536%, 27.95105%)" offset="0.238281"/><stop stop-opacity="1" stop-color="rgb(25.62561%, 72.653198%, 28.276062%)" offset="0.242188"/><stop stop-opacity="1" stop-color="rgb(25.454712%, 72.543335%, 28.601074%)" offset="0.246094"/><stop stop-opacity="1" stop-color="rgb(25.285339%, 72.433472%, 28.926086%)" offset="0.25"/><stop stop-opacity="1" stop-color="rgb(25.115967%, 72.323608%, 29.249573%)" offset="0.253906"/><stop stop-opacity="1" stop-color="rgb(24.946594%, 72.213745%, 29.574585%)" offset="0.257812"/><stop stop-opacity="1" stop-color="rgb(24.775696%, 72.103882%, 29.899597%)" offset="0.261719"/><stop stop-opacity="1" stop-color="rgb(24.606323%, 71.994019%, 30.224609%)" offset="0.265625"/><stop stop-opacity="1" stop-color="rgb(24.436951%, 71.884155%, 30.548096%)" offset="0.269531"/><stop stop-opacity="1" stop-color="rgb(24.267578%, 71.775818%, 30.873108%)" offset="0.273438"/><stop stop-opacity="1" stop-color="rgb(24.09668%, 71.665955%, 31.19812%)" offset="0.277344"/><stop stop-opacity="1" stop-color="rgb(23.927307%, 71.556091%, 31.523132%)" offset="0.28125"/><stop stop-opacity="1" stop-color="rgb(23.757935%, 71.446228%, 31.846619%)" offset="0.285156"/><stop stop-opacity="1" stop-color="rgb(23.588562%, 71.336365%, 32.171631%)" offset="0.289063"/><stop stop-opacity="1" stop-color="rgb(23.419189%, 71.226501%, 32.496643%)" offset="0.292969"/><stop stop-opacity="1" stop-color="rgb(23.249817%, 71.118164%, 32.821655%)" offset="0.296875"/><stop stop-opacity="1" stop-color="rgb(23.078918%, 71.008301%, 33.145142%)" offset="0.300781"/><stop stop-opacity="1" stop-color="rgb(22.909546%, 70.898438%, 33.470154%)" offset="0.304688"/><stop stop-opacity="1" stop-color="rgb(22.740173%, 70.788574%, 33.795166%)" offset="0.308594"/><stop stop-opacity="1" stop-color="rgb(22.570801%, 70.678711%, 34.120178%)" offset="0.3125"/><stop stop-opacity="1" stop-color="rgb(22.399902%, 70.568848%, 34.443665%)" offset="0.316406"/><stop stop-opacity="1" stop-color="rgb(22.23053%, 70.46051%, 34.768677%)" offset="0.320313"/><stop stop-opacity="1" stop-color="rgb(22.061157%, 70.350647%, 35.093689%)" offset="0.324219"/><stop stop-opacity="1" stop-color="rgb(21.891785%, 70.240784%, 35.418701%)" offset="0.328125"/><stop stop-opacity="1" stop-color="rgb(21.720886%, 70.13092%, 35.742188%)" offset="0.332031"/><stop stop-opacity="1" stop-color="rgb(21.551514%, 70.021057%, 36.0672%)" offset="0.335938"/><stop stop-opacity="1" stop-color="rgb(21.382141%, 69.911194%, 36.392212%)" offset="0.339844"/><stop stop-opacity="1" stop-color="rgb(21.212769%, 69.802856%, 36.717224%)" offset="0.34375"/><stop stop-opacity="1" stop-color="rgb(21.04187%, 69.692993%, 37.04071%)" offset="0.347656"/><stop stop-opacity="1" stop-color="rgb(20.872498%, 69.58313%, 37.365723%)" offset="0.351563"/><stop stop-opacity="1" stop-color="rgb(20.703125%, 69.473267%, 37.690735%)" offset="0.355469"/><stop stop-opacity="1" stop-color="rgb(20.533752%, 69.363403%, 38.015747%)" offset="0.359375"/><stop stop-opacity="1" stop-color="rgb(20.36438%, 69.25354%, 38.339233%)" offset="0.363281"/><stop stop-opacity="1" stop-color="rgb(20.195007%, 69.145203%, 38.664246%)" offset="0.367188"/><stop stop-opacity="1" stop-color="rgb(20.024109%, 69.035339%, 38.989258%)" offset="0.371094"/><stop stop-opacity="1" stop-color="rgb(19.854736%, 68.925476%, 39.31427%)" offset="0.375"/><stop stop-opacity="1" stop-color="rgb(19.685364%, 68.815613%, 39.637756%)" offset="0.378906"/><stop stop-opacity="1" stop-color="rgb(19.515991%, 68.70575%, 39.962769%)" offset="0.382813"/><stop stop-opacity="1" stop-color="rgb(19.345093%, 68.595886%, 40.287781%)" offset="0.386719"/><stop stop-opacity="1" stop-color="rgb(19.17572%, 68.487549%, 40.612793%)" offset="0.390625"/><stop stop-opacity="1" stop-color="rgb(19.006348%, 68.377686%, 40.937805%)" offset="0.394531"/><stop stop-opacity="1" stop-color="rgb(18.836975%, 68.267822%, 41.262817%)" offset="0.398438"/><stop stop-opacity="1" stop-color="rgb(18.666077%, 68.157959%, 41.586304%)" offset="0.402344"/><stop stop-opacity="1" stop-color="rgb(18.496704%, 68.048096%, 41.911316%)" offset="0.40625"/><stop stop-opacity="1" stop-color="rgb(18.327332%, 67.938232%, 42.236328%)" offset="0.410156"/><stop stop-opacity="1" stop-color="rgb(18.157959%, 67.829895%, 42.56134%)" offset="0.414063"/><stop stop-opacity="1" stop-color="rgb(17.988586%, 67.720032%, 42.884827%)" offset="0.417969"/><stop stop-opacity="1" stop-color="rgb(17.819214%, 67.610168%, 43.209839%)" offset="0.421875"/><stop stop-opacity="1" stop-color="rgb(17.648315%, 67.500305%, 43.534851%)" offset="0.425781"/><stop stop-opacity="1" stop-color="rgb(17.478943%, 67.390442%, 43.859863%)" offset="0.429688"/><stop stop-opacity="1" stop-color="rgb(17.30957%, 67.280579%, 44.18335%)" offset="0.433594"/><stop stop-opacity="1" stop-color="rgb(17.140198%, 67.170715%, 44.508362%)" offset="0.4375"/><stop stop-opacity="1" stop-color="rgb(16.969299%, 67.060852%, 44.833374%)" offset="0.441406"/><stop stop-opacity="1" stop-color="rgb(16.799927%, 66.952515%, 45.158386%)" offset="0.445313"/><stop stop-opacity="1" stop-color="rgb(16.630554%, 66.842651%, 45.481873%)" offset="0.449219"/><stop stop-opacity="1" stop-color="rgb(16.461182%, 66.732788%, 45.806885%)" offset="0.453125"/><stop stop-opacity="1" stop-color="rgb(16.290283%, 66.622925%, 46.131897%)" offset="0.457031"/><stop stop-opacity="1" stop-color="rgb(16.120911%, 66.513062%, 46.456909%)" offset="0.460938"/><stop stop-opacity="1" stop-color="rgb(15.951538%, 66.403198%, 46.780396%)" offset="0.464844"/><stop stop-opacity="1" stop-color="rgb(15.782166%, 66.294861%, 47.105408%)" offset="0.46875"/><stop stop-opacity="1" stop-color="rgb(15.612793%, 66.184998%, 47.43042%)" offset="0.472656"/><stop stop-opacity="1" stop-color="rgb(15.44342%, 66.075134%, 47.755432%)" offset="0.476562"/><stop stop-opacity="1" stop-color="rgb(15.272522%, 65.965271%, 48.078918%)" offset="0.480469"/><stop stop-opacity="1" stop-color="rgb(15.103149%, 65.855408%, 48.403931%)" offset="0.484375"/><stop stop-opacity="1" stop-color="rgb(14.933777%, 65.745544%, 48.728943%)" offset="0.488281"/><stop stop-opacity="1" stop-color="rgb(14.764404%, 65.637207%, 49.053955%)" offset="0.492188"/><stop stop-opacity="1" stop-color="rgb(14.593506%, 65.527344%, 49.377441%)" offset="0.496094"/><stop stop-opacity="1" stop-color="rgb(14.424133%, 65.41748%, 49.702454%)" offset="0.5"/><stop stop-opacity="1" stop-color="rgb(14.254761%, 65.307617%, 50.027466%)" offset="0.503906"/><stop stop-opacity="1" stop-color="rgb(14.085388%, 65.197754%, 50.352478%)" offset="0.507813"/><stop stop-opacity="1" stop-color="rgb(13.91449%, 65.087891%, 50.675964%)" offset="0.511719"/><stop stop-opacity="1" stop-color="rgb(13.745117%, 64.979553%, 51.000977%)" offset="0.515625"/><stop stop-opacity="1" stop-color="rgb(13.575745%, 64.86969%, 51.325989%)" offset="0.519531"/><stop stop-opacity="1" stop-color="rgb(13.406372%, 64.759827%, 51.651001%)" offset="0.523438"/><stop stop-opacity="1" stop-color="rgb(13.237%, 64.649963%, 51.974487%)" offset="0.527344"/><stop stop-opacity="1" stop-color="rgb(13.067627%, 64.5401%, 52.2995%)" offset="0.53125"/><stop stop-opacity="1" stop-color="rgb(12.896729%, 64.430237%, 52.624512%)" offset="0.535156"/><stop stop-opacity="1" stop-color="rgb(12.727356%, 64.321899%, 52.949524%)" offset="0.539062"/><stop stop-opacity="1" stop-color="rgb(12.557983%, 64.212036%, 53.27301%)" offset="0.542969"/><stop stop-opacity="1" stop-color="rgb(12.388611%, 64.102173%, 53.598022%)" offset="0.546875"/><stop stop-opacity="1" stop-color="rgb(12.217712%, 63.99231%, 53.923035%)" offset="0.550781"/><stop stop-opacity="1" stop-color="rgb(12.04834%, 63.882446%, 54.248047%)" offset="0.554688"/><stop stop-opacity="1" stop-color="rgb(11.878967%, 63.772583%, 54.571533%)" offset="0.558594"/><stop stop-opacity="1" stop-color="rgb(11.709595%, 63.664246%, 54.896545%)" offset="0.5625"/><stop stop-opacity="1" stop-color="rgb(11.538696%, 63.554382%, 55.221558%)" offset="0.566406"/><stop stop-opacity="1" stop-color="rgb(11.369324%, 63.444519%, 55.54657%)" offset="0.570313"/><stop stop-opacity="1" stop-color="rgb(11.199951%, 63.334656%, 55.870056%)" offset="0.574219"/><stop stop-opacity="1" stop-color="rgb(11.030579%, 63.224792%, 56.195068%)" offset="0.578125"/><stop stop-opacity="1" stop-color="rgb(10.861206%, 63.114929%, 56.520081%)" offset="0.582031"/><stop stop-opacity="1" stop-color="rgb(10.691833%, 63.006592%, 56.845093%)" offset="0.585938"/><stop stop-opacity="1" stop-color="rgb(10.520935%, 62.896729%, 57.170105%)" offset="0.589844"/><stop stop-opacity="1" stop-color="rgb(10.351562%, 62.786865%, 57.495117%)" offset="0.59375"/><stop stop-opacity="1" stop-color="rgb(10.18219%, 62.677002%, 57.818604%)" offset="0.597656"/><stop stop-opacity="1" stop-color="rgb(10.012817%, 62.567139%, 58.143616%)" offset="0.601562"/><stop stop-opacity="1" stop-color="rgb(9.841919%, 62.457275%, 58.468628%)" offset="0.605469"/><stop stop-opacity="1" stop-color="rgb(9.672546%, 62.347412%, 58.79364%)" offset="0.609375"/><stop stop-opacity="1" stop-color="rgb(9.503174%, 62.237549%, 59.117126%)" offset="0.613281"/><stop stop-opacity="1" stop-color="rgb(9.333801%, 62.129211%, 59.442139%)" offset="0.617188"/><stop stop-opacity="1" stop-color="rgb(9.162903%, 62.019348%, 59.767151%)" offset="0.621094"/><stop stop-opacity="1" stop-color="rgb(8.99353%, 61.909485%, 60.092163%)" offset="0.625"/><stop stop-opacity="1" stop-color="rgb(8.824158%, 61.799622%, 60.415649%)" offset="0.628906"/><stop stop-opacity="1" stop-color="rgb(8.654785%, 61.689758%, 60.740662%)" offset="0.632813"/><stop stop-opacity="1" stop-color="rgb(8.485413%, 61.579895%, 61.065674%)" offset="0.636719"/><stop stop-opacity="1" stop-color="rgb(8.31604%, 61.471558%, 61.390686%)" offset="0.640625"/><stop stop-opacity="1" stop-color="rgb(8.145142%, 61.361694%, 61.714172%)" offset="0.644531"/><stop stop-opacity="1" stop-color="rgb(7.975769%, 61.251831%, 62.039185%)" offset="0.648438"/><stop stop-opacity="1" stop-color="rgb(7.806396%, 61.141968%, 62.364197%)" offset="0.652344"/><stop stop-opacity="1" stop-color="rgb(7.637024%, 61.032104%, 62.689209%)" offset="0.65625"/><stop stop-opacity="1" stop-color="rgb(7.466125%, 60.922241%, 63.012695%)" offset="0.660156"/><stop stop-opacity="1" stop-color="rgb(7.296753%, 60.813904%, 63.337708%)" offset="0.664062"/><stop stop-opacity="1" stop-color="rgb(7.12738%, 60.704041%, 63.66272%)" offset="0.667969"/><stop stop-opacity="1" stop-color="rgb(6.958008%, 60.594177%, 63.987732%)" offset="0.671875"/><stop stop-opacity="1" stop-color="rgb(6.787109%, 60.484314%, 64.311218%)" offset="0.675781"/><stop stop-opacity="1" stop-color="rgb(6.617737%, 60.374451%, 64.63623%)" offset="0.679688"/><stop stop-opacity="1" stop-color="rgb(6.448364%, 60.264587%, 64.961243%)" offset="0.683594"/><stop stop-opacity="1" stop-color="rgb(6.278992%, 60.15625%, 65.286255%)" offset="0.6875"/><stop stop-opacity="1" stop-color="rgb(6.109619%, 60.046387%, 65.609741%)" offset="0.691406"/><stop stop-opacity="1" stop-color="rgb(5.940247%, 59.936523%, 65.934753%)" offset="0.695313"/><stop stop-opacity="1" stop-color="rgb(5.769348%, 59.82666%, 66.259766%)" offset="0.699219"/><stop stop-opacity="1" stop-color="rgb(5.599976%, 59.716797%, 66.584778%)" offset="0.703125"/><stop stop-opacity="1" stop-color="rgb(5.430603%, 59.606934%, 66.908264%)" offset="0.707031"/><stop stop-opacity="1" stop-color="rgb(5.26123%, 59.498596%, 67.233276%)" offset="0.710938"/><stop stop-opacity="1" stop-color="rgb(5.090332%, 59.388733%, 67.558289%)" offset="0.714844"/><stop stop-opacity="1" stop-color="rgb(4.920959%, 59.27887%, 67.883301%)" offset="0.71875"/><stop stop-opacity="1" stop-color="rgb(4.751587%, 59.169006%, 68.206787%)" offset="0.722656"/><stop stop-opacity="1" stop-color="rgb(4.582214%, 59.059143%, 68.531799%)" offset="0.726562"/><stop stop-opacity="1" stop-color="rgb(4.411316%, 58.94928%, 68.856812%)" offset="0.730469"/><stop stop-opacity="1" stop-color="rgb(4.241943%, 58.840942%, 69.181824%)" offset="0.734375"/><stop stop-opacity="1" stop-color="rgb(4.072571%, 58.731079%, 69.50531%)" offset="0.738281"/><stop stop-opacity="1" stop-color="rgb(3.903198%, 58.621216%, 69.830322%)" offset="0.742188"/><stop stop-opacity="1" stop-color="rgb(3.733826%, 58.511353%, 70.155334%)" offset="0.746094"/><stop stop-opacity="1" stop-color="rgb(3.564453%, 58.401489%, 70.480347%)" offset="0.75"/><stop stop-opacity="1" stop-color="rgb(3.393555%, 58.291626%, 70.803833%)" offset="0.753906"/><stop stop-opacity="1" stop-color="rgb(3.224182%, 58.183289%, 71.128845%)" offset="0.757813"/><stop stop-opacity="1" stop-color="rgb(3.05481%, 58.073425%, 71.453857%)" offset="0.761719"/><stop stop-opacity="1" stop-color="rgb(2.885437%, 57.963562%, 71.77887%)" offset="0.765625"/><stop stop-opacity="1" stop-color="rgb(2.714539%, 57.853699%, 72.102356%)" offset="0.769531"/><stop stop-opacity="1" stop-color="rgb(2.545166%, 57.743835%, 72.427368%)" offset="0.773438"/><stop stop-opacity="1" stop-color="rgb(2.375793%, 57.633972%, 72.75238%)" offset="0.777344"/><stop stop-opacity="1" stop-color="rgb(2.206421%, 57.524109%, 73.077393%)" offset="0.78125"/><stop stop-opacity="1" stop-color="rgb(2.035522%, 57.414246%, 73.400879%)" offset="0.785156"/><stop stop-opacity="1" stop-color="rgb(1.86615%, 57.305908%, 73.725891%)" offset="0.789062"/><stop stop-opacity="1" stop-color="rgb(1.696777%, 57.196045%, 74.050903%)" offset="0.792969"/><stop stop-opacity="1" stop-color="rgb(1.527405%, 57.086182%, 74.375916%)" offset="0.796875"/><stop stop-opacity="1" stop-color="rgb(1.358032%, 56.976318%, 74.700928%)" offset="0.800781"/><stop stop-opacity="1" stop-color="rgb(1.18866%, 56.866455%, 75.02594%)" offset="0.804688"/><stop stop-opacity="1" stop-color="rgb(1.017761%, 56.756592%, 75.349426%)" offset="0.808594"/><stop stop-opacity="1" stop-color="rgb(0.848389%, 56.648254%, 75.674438%)" offset="0.8125"/><stop stop-opacity="1" stop-color="rgb(0.679016%, 56.538391%, 75.999451%)" offset="0.816406"/><stop stop-opacity="1" stop-color="rgb(0.509644%, 56.428528%, 76.324463%)" offset="0.820312"/><stop stop-opacity="1" stop-color="rgb(0.338745%, 56.318665%, 76.647949%)" offset="0.824219"/><stop stop-opacity="1" stop-color="rgb(0.169373%, 56.208801%, 76.972961%)" offset="0.828125"/><stop stop-opacity="1" stop-color="rgb(0.0839233%, 56.15387%, 77.13623%)" offset="0.84375"/><stop stop-opacity="1" stop-color="rgb(0%, 56.098938%, 77.2995%)" offset="0.875"/><stop stop-opacity="1" stop-color="rgb(0%, 56.098938%, 77.2995%)" offset="1"/></linearGradient></defs><g fill="#092841" fill-opacity="1"><g transform="translate(169.319188, 96.918026)"><g><path d="M 8.046875 0.421875 C 6.921875 0.421875 6.003906 0.0546875 5.296875 -0.671875 C 4.585938 -1.410156 4.234375 -2.316406 4.234375 -3.390625 C 4.234375 -3.835938 4.375 -4.40625 4.65625 -5.09375 L 26.28125 -56.109375 C 26.726562 -57.128906 27.359375 -57.960938 28.171875 -58.609375 C 28.992188 -59.265625 30 -59.59375 31.1875 -59.59375 L 32.046875 -59.59375 C 33.234375 -59.59375 34.234375 -59.265625 35.046875 -58.609375 C 35.867188 -57.960938 36.503906 -57.128906 36.953125 -56.109375 L 58.578125 -5.09375 C 58.859375 -4.40625 59 -3.835938 59 -3.390625 C 59 -2.316406 58.644531 -1.410156 57.9375 -0.671875 C 57.226562 0.0546875 56.3125 0.421875 55.1875 0.421875 C 54.394531 0.421875 53.671875 0.210938 53.015625 -0.203125 C 52.367188 -0.628906 51.875 -1.210938 51.53125 -1.953125 L 46.03125 -15.171875 L 17.203125 -15.171875 L 11.703125 -1.953125 C 11.359375 -1.210938 10.859375 -0.628906 10.203125 -0.203125 C 9.554688 0.210938 8.835938 0.421875 8.046875 0.421875 Z M 20.171875 -22.203125 L 43.0625 -22.203125 L 31.625 -49.75 Z M 20.171875 -22.203125 "/></g></g></g><g fill="#092841" fill-opacity="1"><g transform="translate(232.544473, 96.918026)"><g><path d="M 12.03125 0.421875 C 10.957031 0.421875 10.050781 0.0546875 9.3125 -0.671875 C 8.582031 -1.410156 8.21875 -2.316406 8.21875 -3.390625 L 8.21875 -55.265625 C 8.21875 -56.335938 8.582031 -57.253906 9.3125 -58.015625 C 10.050781 -58.785156 10.957031 -59.171875 12.03125 -59.171875 L 31.78125 -59.171875 C 39.46875 -59.171875 45.234375 -57.585938 49.078125 -54.421875 C 52.921875 -51.253906 54.84375 -47.097656 54.84375 -41.953125 C 54.84375 -38.566406 53.894531 -35.472656 52 -32.671875 C 50.113281 -29.878906 47.359375 -27.859375 43.734375 -26.609375 C 47.804688 -25.535156 50.585938 -23.003906 52.078125 -19.015625 C 53.578125 -15.035156 54.328125 -11.128906 54.328125 -7.296875 L 54.328125 -3.390625 C 54.328125 -2.316406 53.957031 -1.410156 53.21875 -0.671875 C 52.488281 0.0546875 51.585938 0.421875 50.515625 0.421875 C 49.328125 0.421875 48.378906 0.0664062 47.671875 -0.640625 C 46.972656 -1.347656 46.625 -2.265625 46.625 -3.390625 L 46.625 -5.9375 C 46.625 -8.757812 46.367188 -11.367188 45.859375 -13.765625 C 45.347656 -16.171875 44.128906 -18.320312 42.203125 -20.21875 C 40.285156 -22.113281 37.378906 -23.0625 33.484375 -23.0625 L 15.9375 -23.0625 L 15.9375 -3.390625 C 15.9375 -2.316406 15.550781 -1.410156 14.78125 -0.671875 C 14.019531 0.0546875 13.101562 0.421875 12.03125 0.421875 Z M 31.28125 -30.34375 C 36.132812 -30.34375 39.988281 -31.300781 42.84375 -33.21875 C 45.695312 -35.144531 47.125 -37.859375 47.125 -41.359375 C 47.125 -44.753906 45.894531 -47.351562 43.4375 -49.15625 C 40.976562 -50.96875 36.785156 -51.875 30.859375 -51.875 L 15.9375 -51.875 L 15.9375 -30.34375 Z M 31.28125 -30.34375 "/></g></g></g><g fill="#092841" fill-opacity="1"><g transform="translate(292.888176, 96.918026)"><g><path d="M 12.03125 0 C 10.957031 0 10.050781 -0.363281 9.3125 -1.09375 C 8.582031 -1.832031 8.21875 -2.738281 8.21875 -3.8125 L 8.21875 -55.265625 C 8.21875 -56.335938 8.582031 -57.253906 9.3125 -58.015625 C 10.050781 -58.785156 10.957031 -59.171875 12.03125 -59.171875 L 46.03125 -59.171875 C 47.039062 -59.171875 47.898438 -58.816406 48.609375 -58.109375 C 49.316406 -57.398438 49.671875 -56.535156 49.671875 -55.515625 C 49.671875 -54.503906 49.316406 -53.660156 48.609375 -52.984375 C 47.898438 -52.304688 47.039062 -51.96875 46.03125 -51.96875 L 15.9375 -51.96875 L 15.9375 -33.234375 L 42.96875 -33.234375 C 43.988281 -33.234375 44.851562 -32.878906 45.5625 -32.171875 C 46.269531 -31.460938 46.625 -30.597656 46.625 -29.578125 C 46.625 -28.566406 46.269531 -27.71875 45.5625 -27.03125 C 44.851562 -26.351562 43.988281 -26.015625 42.96875 -26.015625 L 15.9375 -26.015625 L 15.9375 -7.203125 L 46.03125 -7.203125 C 47.039062 -7.203125 47.898438 -6.847656 48.609375 -6.140625 C 49.316406 -5.441406 49.671875 -4.582031 49.671875 -3.5625 C 49.671875 -2.539062 49.316406 -1.691406 48.609375 -1.015625 C 47.898438 -0.335938 47.039062 0 46.03125 0 Z M 12.03125 0 "/></g></g></g><g fill="#092841" fill-opacity="1"><g transform="translate(346.960203, 96.918026)"><g><path d="M 8.90625 0 C 7.539062 0 6.378906 -0.476562 5.421875 -1.4375 C 4.460938 -2.394531 3.984375 -3.554688 3.984375 -4.921875 C 3.984375 -6.160156 4.320312 -7.203125 5 -8.046875 L 40.4375 -51.796875 L 7.796875 -51.796875 C 6.773438 -51.796875 5.910156 -52.144531 5.203125 -52.84375 C 4.503906 -53.550781 4.15625 -54.414062 4.15625 -55.4375 C 4.15625 -56.457031 4.503906 -57.332031 5.203125 -58.0625 C 5.910156 -58.800781 6.773438 -59.171875 7.796875 -59.171875 L 44.59375 -59.171875 C 46.164062 -59.171875 47.414062 -58.660156 48.34375 -57.640625 C 49.28125 -56.617188 49.75 -55.375 49.75 -53.90625 C 49.75 -53.34375 49.625 -52.75 49.375 -52.125 C 49.125 -51.507812 48.800781 -50.972656 48.40625 -50.515625 L 13.390625 -7.203125 L 46.625 -7.203125 C 47.632812 -7.203125 48.492188 -6.847656 49.203125 -6.140625 C 49.910156 -5.441406 50.265625 -4.582031 50.265625 -3.5625 C 50.265625 -2.539062 49.910156 -1.691406 49.203125 -1.015625 C 48.492188 -0.335938 47.632812 0 46.625 0 Z M 8.90625 0 "/></g></g></g><g fill="#092841" fill-opacity="1"><g transform="translate(401.032229, 96.918026)"><g><path d="M 10.59375 0.25 C 9.289062 0.25 8.171875 -0.210938 7.234375 -1.140625 C 6.304688 -2.078125 5.84375 -3.195312 5.84375 -4.5 L 5.84375 -5 C 5.84375 -6.300781 6.304688 -7.414062 7.234375 -8.34375 C 8.171875 -9.28125 9.289062 -9.75 10.59375 -9.75 L 11.4375 -9.75 C 12.738281 -9.75 13.851562 -9.28125 14.78125 -8.34375 C 15.71875 -7.414062 16.1875 -6.300781 16.1875 -5 L 16.1875 -4.5 C 16.1875 -3.195312 15.71875 -2.078125 14.78125 -1.140625 C 13.851562 -0.210938 12.738281 0.25 11.4375 0.25 Z M 10.59375 0.25 "/></g></g></g><g fill="#092841" fill-opacity="1"><g transform="translate(423.067852, 96.918026)"><g><path d="M 10.34375 -52.046875 C 9.15625 -52.046875 8.132812 -52.46875 7.28125 -53.3125 C 6.4375 -54.164062 6.015625 -55.1875 6.015625 -56.375 L 6.015625 -56.703125 C 6.015625 -57.890625 6.4375 -58.90625 7.28125 -59.75 C 8.132812 -60.601562 9.15625 -61.03125 10.34375 -61.03125 L 10.84375 -61.03125 C 12.03125 -61.03125 13.046875 -60.601562 13.890625 -59.75 C 14.742188 -58.90625 15.171875 -57.890625 15.171875 -56.703125 L 15.171875 -56.375 C 15.171875 -55.1875 14.742188 -54.164062 13.890625 -53.3125 C 13.046875 -52.46875 12.03125 -52.046875 10.84375 -52.046875 Z M 10.515625 0.421875 C 9.441406 0.421875 8.535156 0.0546875 7.796875 -0.671875 C 7.066406 -1.410156 6.703125 -2.316406 6.703125 -3.390625 L 6.703125 -39.75 C 6.703125 -40.820312 7.066406 -41.738281 7.796875 -42.5 C 8.535156 -43.269531 9.441406 -43.65625 10.515625 -43.65625 C 11.640625 -43.65625 12.566406 -43.285156 13.296875 -42.546875 C 14.035156 -41.816406 14.40625 -40.882812 14.40625 -39.75 L 14.40625 -3.390625 C 14.40625 -2.316406 14.023438 -1.410156 13.265625 -0.671875 C 12.503906 0.0546875 11.585938 0.421875 10.515625 0.421875 Z M 10.515625 0.421875 "/></g></g></g><g fill="#092841" fill-opacity="1"><g transform="translate(444.171202, 96.918026)"><g><path d="M 25.765625 0.84375 C 21.410156 0.84375 17.59375 -0.0859375 14.3125 -1.953125 C 11.039062 -3.816406 8.515625 -6.457031 6.734375 -9.875 C 4.953125 -13.289062 4.0625 -17.203125 4.0625 -21.609375 C 4.0625 -26.023438 4.953125 -29.941406 6.734375 -33.359375 C 8.515625 -36.773438 11.039062 -39.414062 14.3125 -41.28125 C 17.59375 -43.144531 21.410156 -44.078125 25.765625 -44.078125 C 30.066406 -44.078125 33.851562 -43.144531 37.125 -41.28125 C 40.40625 -39.414062 42.945312 -36.773438 44.75 -33.359375 C 46.5625 -29.941406 47.46875 -26.023438 47.46875 -21.609375 C 47.46875 -17.203125 46.5625 -13.289062 44.75 -9.875 C 42.945312 -6.457031 40.40625 -3.816406 37.125 -1.953125 C 33.851562 -0.0859375 30.066406 0.84375 25.765625 0.84375 Z M 25.765625 -6.1875 C 28.085938 -6.1875 30.304688 -6.722656 32.421875 -7.796875 C 34.546875 -8.867188 36.296875 -10.5625 37.671875 -12.875 C 39.054688 -15.195312 39.75 -18.140625 39.75 -21.703125 C 39.75 -25.203125 39.054688 -28.109375 37.671875 -30.421875 C 36.296875 -32.742188 34.546875 -34.425781 32.421875 -35.46875 C 30.304688 -36.519531 28.085938 -37.046875 25.765625 -37.046875 C 23.390625 -37.046875 21.140625 -36.519531 19.015625 -35.46875 C 16.898438 -34.425781 15.164062 -32.742188 13.8125 -30.421875 C 12.457031 -28.109375 11.78125 -25.203125 11.78125 -21.703125 C 11.78125 -18.140625 12.457031 -15.195312 13.8125 -12.875 C 15.164062 -10.5625 16.898438 -8.867188 19.015625 -7.796875 C 21.140625 -6.722656 23.390625 -6.1875 25.765625 -6.1875 Z M 25.765625 -6.1875 "/></g></g></g><g clip-path="url(#6ce378771f)"><g clip-path="url(#f912a9dc29)"><path fill="#52c428" d="M 404.6875 84.015625 L 418.214844 84.015625 L 418.214844 97.542969 L 404.6875 97.542969 Z M 404.6875 84.015625 " fill-opacity="1" fill-rule="nonzero"/></g></g><g clip-path="url(#94eee1731c)"><g clip-path="url(#2bb6ea7120)"><path fill="url(#32daa2ca63)" d="M 35.808594 10.515625 L 35.808594 139.472656 L 158.6875 139.472656 L 158.6875 10.515625 Z M 35.808594 10.515625 " fill-rule="nonzero"/></g></g></svg>