<svg xmlns="http://www.w3.org/2000/svg" xmlns:xlink="http://www.w3.org/1999/xlink" width="700" zoomAndPan="magnify" viewBox="0 0 525 149.999998" height="200" preserveAspectRatio="xMidYMid meet" version="1.0"><defs><g/><clipPath id="1174c29622"><path d="M 410.859375 90.570312 L 424.386719 90.570312 L 424.386719 104.097656 L 410.859375 104.097656 Z M 410.859375 90.570312 " clip-rule="nonzero"/></clipPath><clipPath id="96b274f41b"><path d="M 417.625 90.570312 C 413.890625 90.570312 410.859375 93.601562 410.859375 97.335938 C 410.859375 101.070312 413.890625 104.097656 417.625 104.097656 C 421.359375 104.097656 424.386719 101.070312 424.386719 97.335938 C 424.386719 93.601562 421.359375 90.570312 417.625 90.570312 Z M 417.625 90.570312 " clip-rule="nonzero"/></clipPath><clipPath id="317a702405"><path d="M 15 10.511719 L 138 10.511719 L 138 139.511719 L 15 139.511719 Z M 15 10.511719 " clip-rule="nonzero"/></clipPath><clipPath id="4b47c5d35b"><path d="M 85.582031 70.597656 L 30.738281 70.597656 C 28.613281 70.597656 27.074219 68.566406 27.648438 66.519531 L 42.703125 12.859375 C 43.09375 11.472656 44.355469 10.515625 45.796875 10.515625 L 100.640625 10.515625 C 102.765625 10.515625 104.304688 12.546875 103.730469 14.59375 L 88.675781 68.253906 C 88.285156 69.636719 87.023438 70.597656 85.582031 70.597656 Z M 49.960938 111.101562 L 57.714844 83.472656 C 58.289062 81.421875 56.75 79.394531 54.621094 79.394531 L 26.429688 79.394531 C 24.992188 79.394531 23.726562 80.351562 23.339844 81.738281 L 15.585938 109.363281 C 15.011719 111.414062 16.550781 113.441406 18.675781 113.441406 L 46.871094 113.441406 C 48.308594 113.441406 49.570312 112.484375 49.960938 111.101562 Z M 64.226562 81.738281 L 49.171875 135.394531 C 48.597656 137.441406 50.136719 139.472656 52.261719 139.472656 L 107.105469 139.472656 C 108.546875 139.472656 109.808594 138.515625 110.199219 137.128906 L 125.253906 83.472656 C 125.828125 81.421875 124.289062 79.394531 122.164062 79.394531 L 67.320312 79.394531 C 65.878906 79.394531 64.617188 80.351562 64.226562 81.738281 Z M 102.941406 38.890625 L 95.1875 66.519531 C 94.613281 68.566406 96.152344 70.597656 98.28125 70.597656 L 126.472656 70.597656 C 127.910156 70.597656 129.175781 69.636719 129.5625 68.253906 L 137.316406 40.625 C 137.890625 38.578125 136.351562 36.546875 134.222656 36.546875 L 106.03125 36.546875 C 104.59375 36.546875 103.328125 37.503906 102.941406 38.890625 Z M 102.941406 38.890625 " clip-rule="nonzero"/></clipPath><linearGradient x1="114.296456" gradientTransform="matrix(0.257916, 0, 0, 0.257916, 15.464253, 10.515657)" y1="-47.633935" x2="358.621865" gradientUnits="userSpaceOnUse" y2="547.634054" id="a8d306ca5e"><stop stop-opacity="1" stop-color="rgb(32.199097%, 76.899719%, 15.699768%)" offset="0"/><stop stop-opacity="1" stop-color="rgb(32.199097%, 76.899719%, 15.699768%)" offset="0.0625"/><stop stop-opacity="1" stop-color="rgb(32.136536%, 76.858521%, 15.818787%)" offset="0.09375"/><stop stop-opacity="1" stop-color="rgb(31.903076%, 76.707458%, 16.264343%)" offset="0.0976562"/><stop stop-opacity="1" stop-color="rgb(31.733704%, 76.599121%, 16.589355%)" offset="0.101563"/><stop stop-opacity="1" stop-color="rgb(31.564331%, 76.489258%, 16.912842%)" offset="0.105469"/><stop stop-opacity="1" stop-color="rgb(31.394958%, 76.379395%, 17.237854%)" offset="0.109375"/><stop stop-opacity="1" stop-color="rgb(31.22406%, 76.269531%, 17.562866%)" offset="0.113281"/><stop stop-opacity="1" stop-color="rgb(31.054688%, 76.159668%, 17.887878%)" offset="0.117188"/><stop stop-opacity="1" stop-color="rgb(30.885315%, 76.049805%, 18.211365%)" offset="0.121094"/><stop stop-opacity="1" stop-color="rgb(30.715942%, 75.941467%, 18.536377%)" offset="0.125"/><stop stop-opacity="1" stop-color="rgb(30.54657%, 75.831604%, 18.861389%)" offset="0.128906"/><stop stop-opacity="1" stop-color="rgb(30.377197%, 75.721741%, 19.186401%)" offset="0.132812"/><stop stop-opacity="1" stop-color="rgb(30.206299%, 75.611877%, 19.509888%)" offset="0.136719"/><stop stop-opacity="1" stop-color="rgb(30.036926%, 75.502014%, 19.8349%)" offset="0.140625"/><stop stop-opacity="1" stop-color="rgb(29.867554%, 75.392151%, 20.159912%)" offset="0.144531"/><stop stop-opacity="1" stop-color="rgb(29.698181%, 75.283813%, 20.484924%)" offset="0.148438"/><stop stop-opacity="1" stop-color="rgb(29.527283%, 75.17395%, 20.808411%)" offset="0.152344"/><stop stop-opacity="1" stop-color="rgb(29.35791%, 75.064087%, 21.133423%)" offset="0.15625"/><stop stop-opacity="1" stop-color="rgb(29.188538%, 74.954224%, 21.458435%)" offset="0.160156"/><stop stop-opacity="1" stop-color="rgb(29.019165%, 74.84436%, 21.783447%)" offset="0.164062"/><stop stop-opacity="1" stop-color="rgb(28.848267%, 74.734497%, 22.106934%)" offset="0.167969"/><stop stop-opacity="1" stop-color="rgb(28.678894%, 74.62616%, 22.431946%)" offset="0.171875"/><stop stop-opacity="1" stop-color="rgb(28.509521%, 74.516296%, 22.756958%)" offset="0.175781"/><stop stop-opacity="1" stop-color="rgb(28.340149%, 74.406433%, 23.08197%)" offset="0.179688"/><stop stop-opacity="1" stop-color="rgb(28.170776%, 74.29657%, 23.405457%)" offset="0.183594"/><stop stop-opacity="1" stop-color="rgb(28.001404%, 74.186707%, 23.730469%)" offset="0.1875"/><stop stop-opacity="1" stop-color="rgb(27.830505%, 74.076843%, 24.055481%)" offset="0.191406"/><stop stop-opacity="1" stop-color="rgb(27.661133%, 73.968506%, 24.380493%)" offset="0.195312"/><stop stop-opacity="1" stop-color="rgb(27.49176%, 73.858643%, 24.705505%)" offset="0.199219"/><stop stop-opacity="1" stop-color="rgb(27.322388%, 73.748779%, 25.030518%)" offset="0.203125"/><stop stop-opacity="1" stop-color="rgb(27.151489%, 73.638916%, 25.354004%)" offset="0.207031"/><stop stop-opacity="1" stop-color="rgb(26.982117%, 73.529053%, 25.679016%)" offset="0.210938"/><stop stop-opacity="1" stop-color="rgb(26.812744%, 73.419189%, 26.004028%)" offset="0.214844"/><stop stop-opacity="1" stop-color="rgb(26.643372%, 73.310852%, 26.329041%)" offset="0.21875"/><stop stop-opacity="1" stop-color="rgb(26.472473%, 73.200989%, 26.652527%)" offset="0.222656"/><stop stop-opacity="1" stop-color="rgb(26.303101%, 73.091125%, 26.977539%)" offset="0.226563"/><stop stop-opacity="1" stop-color="rgb(26.133728%, 72.981262%, 27.302551%)" offset="0.230469"/><stop stop-opacity="1" stop-color="rgb(25.964355%, 72.871399%, 27.627563%)" offset="0.234375"/><stop stop-opacity="1" stop-color="rgb(25.794983%, 72.761536%, 27.95105%)" offset="0.238281"/><stop stop-opacity="1" stop-color="rgb(25.62561%, 72.653198%, 28.276062%)" offset="0.242188"/><stop stop-opacity="1" stop-color="rgb(25.454712%, 72.543335%, 28.601074%)" offset="0.246094"/><stop stop-opacity="1" stop-color="rgb(25.285339%, 72.433472%, 28.926086%)" offset="0.25"/><stop stop-opacity="1" stop-color="rgb(25.115967%, 72.323608%, 29.249573%)" offset="0.253906"/><stop stop-opacity="1" stop-color="rgb(24.946594%, 72.213745%, 29.574585%)" offset="0.257812"/><stop stop-opacity="1" stop-color="rgb(24.775696%, 72.103882%, 29.899597%)" offset="0.261719"/><stop stop-opacity="1" stop-color="rgb(24.606323%, 71.994019%, 30.224609%)" offset="0.265625"/><stop stop-opacity="1" stop-color="rgb(24.436951%, 71.884155%, 30.548096%)" offset="0.269531"/><stop stop-opacity="1" stop-color="rgb(24.267578%, 71.775818%, 30.873108%)" offset="0.273438"/><stop stop-opacity="1" stop-color="rgb(24.09668%, 71.665955%, 31.19812%)" offset="0.277344"/><stop stop-opacity="1" stop-color="rgb(23.927307%, 71.556091%, 31.523132%)" offset="0.28125"/><stop stop-opacity="1" stop-color="rgb(23.757935%, 71.446228%, 31.846619%)" offset="0.285156"/><stop stop-opacity="1" stop-color="rgb(23.588562%, 71.336365%, 32.171631%)" offset="0.289063"/><stop stop-opacity="1" stop-color="rgb(23.419189%, 71.226501%, 32.496643%)" offset="0.292969"/><stop stop-opacity="1" stop-color="rgb(23.249817%, 71.118164%, 32.821655%)" offset="0.296875"/><stop stop-opacity="1" stop-color="rgb(23.078918%, 71.008301%, 33.145142%)" offset="0.300781"/><stop stop-opacity="1" stop-color="rgb(22.909546%, 70.898438%, 33.470154%)" offset="0.304688"/><stop stop-opacity="1" stop-color="rgb(22.740173%, 70.788574%, 33.795166%)" offset="0.308594"/><stop stop-opacity="1" stop-color="rgb(22.570801%, 70.678711%, 34.120178%)" offset="0.3125"/><stop stop-opacity="1" stop-color="rgb(22.399902%, 70.568848%, 34.443665%)" offset="0.316406"/><stop stop-opacity="1" stop-color="rgb(22.23053%, 70.46051%, 34.768677%)" offset="0.320313"/><stop stop-opacity="1" stop-color="rgb(22.061157%, 70.350647%, 35.093689%)" offset="0.324219"/><stop stop-opacity="1" stop-color="rgb(21.891785%, 70.240784%, 35.418701%)" offset="0.328125"/><stop stop-opacity="1" stop-color="rgb(21.720886%, 70.13092%, 35.742188%)" offset="0.332031"/><stop stop-opacity="1" stop-color="rgb(21.551514%, 70.021057%, 36.0672%)" offset="0.335938"/><stop stop-opacity="1" stop-color="rgb(21.382141%, 69.911194%, 36.392212%)" offset="0.339844"/><stop stop-opacity="1" stop-color="rgb(21.212769%, 69.802856%, 36.717224%)" offset="0.34375"/><stop stop-opacity="1" stop-color="rgb(21.04187%, 69.692993%, 37.04071%)" offset="0.347656"/><stop stop-opacity="1" stop-color="rgb(20.872498%, 69.58313%, 37.365723%)" offset="0.351563"/><stop stop-opacity="1" stop-color="rgb(20.703125%, 69.473267%, 37.690735%)" offset="0.355469"/><stop stop-opacity="1" stop-color="rgb(20.533752%, 69.363403%, 38.015747%)" offset="0.359375"/><stop stop-opacity="1" stop-color="rgb(20.36438%, 69.25354%, 38.339233%)" offset="0.363281"/><stop stop-opacity="1" stop-color="rgb(20.195007%, 69.145203%, 38.664246%)" offset="0.367188"/><stop stop-opacity="1" stop-color="rgb(20.024109%, 69.035339%, 38.989258%)" offset="0.371094"/><stop stop-opacity="1" stop-color="rgb(19.854736%, 68.925476%, 39.31427%)" offset="0.375"/><stop stop-opacity="1" stop-color="rgb(19.685364%, 68.815613%, 39.637756%)" offset="0.378906"/><stop stop-opacity="1" stop-color="rgb(19.515991%, 68.70575%, 39.962769%)" offset="0.382813"/><stop stop-opacity="1" stop-color="rgb(19.345093%, 68.595886%, 40.287781%)" offset="0.386719"/><stop stop-opacity="1" stop-color="rgb(19.17572%, 68.487549%, 40.612793%)" offset="0.390625"/><stop stop-opacity="1" stop-color="rgb(19.006348%, 68.377686%, 40.937805%)" offset="0.394531"/><stop stop-opacity="1" stop-color="rgb(18.836975%, 68.267822%, 41.262817%)" offset="0.398438"/><stop stop-opacity="1" stop-color="rgb(18.666077%, 68.157959%, 41.586304%)" offset="0.402344"/><stop stop-opacity="1" stop-color="rgb(18.496704%, 68.048096%, 41.911316%)" offset="0.40625"/><stop stop-opacity="1" stop-color="rgb(18.327332%, 67.938232%, 42.236328%)" offset="0.410156"/><stop stop-opacity="1" stop-color="rgb(18.157959%, 67.829895%, 42.56134%)" offset="0.414063"/><stop stop-opacity="1" stop-color="rgb(17.988586%, 67.720032%, 42.884827%)" offset="0.417969"/><stop stop-opacity="1" stop-color="rgb(17.819214%, 67.610168%, 43.209839%)" offset="0.421875"/><stop stop-opacity="1" stop-color="rgb(17.648315%, 67.500305%, 43.534851%)" offset="0.425781"/><stop stop-opacity="1" stop-color="rgb(17.478943%, 67.390442%, 43.859863%)" offset="0.429688"/><stop stop-opacity="1" stop-color="rgb(17.30957%, 67.280579%, 44.18335%)" offset="0.433594"/><stop stop-opacity="1" stop-color="rgb(17.140198%, 67.170715%, 44.508362%)" offset="0.4375"/><stop stop-opacity="1" stop-color="rgb(16.969299%, 67.060852%, 44.833374%)" offset="0.441406"/><stop stop-opacity="1" stop-color="rgb(16.799927%, 66.952515%, 45.158386%)" offset="0.445313"/><stop stop-opacity="1" stop-color="rgb(16.630554%, 66.842651%, 45.481873%)" offset="0.449219"/><stop stop-opacity="1" stop-color="rgb(16.461182%, 66.732788%, 45.806885%)" offset="0.453125"/><stop stop-opacity="1" stop-color="rgb(16.290283%, 66.622925%, 46.131897%)" offset="0.457031"/><stop stop-opacity="1" stop-color="rgb(16.120911%, 66.513062%, 46.456909%)" offset="0.460938"/><stop stop-opacity="1" stop-color="rgb(15.951538%, 66.403198%, 46.780396%)" offset="0.464844"/><stop stop-opacity="1" stop-color="rgb(15.782166%, 66.294861%, 47.105408%)" offset="0.46875"/><stop stop-opacity="1" stop-color="rgb(15.612793%, 66.184998%, 47.43042%)" offset="0.472656"/><stop stop-opacity="1" stop-color="rgb(15.44342%, 66.075134%, 47.755432%)" offset="0.476563"/><stop stop-opacity="1" stop-color="rgb(15.272522%, 65.965271%, 48.078918%)" offset="0.480469"/><stop stop-opacity="1" stop-color="rgb(15.103149%, 65.855408%, 48.403931%)" offset="0.484375"/><stop stop-opacity="1" stop-color="rgb(14.933777%, 65.745544%, 48.728943%)" offset="0.488281"/><stop stop-opacity="1" stop-color="rgb(14.764404%, 65.637207%, 49.053955%)" offset="0.492188"/><stop stop-opacity="1" stop-color="rgb(14.593506%, 65.527344%, 49.377441%)" offset="0.496094"/><stop stop-opacity="1" stop-color="rgb(14.424133%, 65.41748%, 49.702454%)" offset="0.5"/><stop stop-opacity="1" stop-color="rgb(14.254761%, 65.307617%, 50.027466%)" offset="0.503906"/><stop stop-opacity="1" stop-color="rgb(14.085388%, 65.197754%, 50.352478%)" offset="0.507812"/><stop stop-opacity="1" stop-color="rgb(13.91449%, 65.087891%, 50.675964%)" offset="0.511719"/><stop stop-opacity="1" stop-color="rgb(13.745117%, 64.979553%, 51.000977%)" offset="0.515625"/><stop stop-opacity="1" stop-color="rgb(13.575745%, 64.86969%, 51.325989%)" offset="0.519531"/><stop stop-opacity="1" stop-color="rgb(13.406372%, 64.759827%, 51.651001%)" offset="0.523438"/><stop stop-opacity="1" stop-color="rgb(13.237%, 64.649963%, 51.974487%)" offset="0.527344"/><stop stop-opacity="1" stop-color="rgb(13.067627%, 64.5401%, 52.2995%)" offset="0.53125"/><stop stop-opacity="1" stop-color="rgb(12.896729%, 64.430237%, 52.624512%)" offset="0.535156"/><stop stop-opacity="1" stop-color="rgb(12.727356%, 64.321899%, 52.949524%)" offset="0.539063"/><stop stop-opacity="1" stop-color="rgb(12.557983%, 64.212036%, 53.27301%)" offset="0.542969"/><stop stop-opacity="1" stop-color="rgb(12.388611%, 64.102173%, 53.598022%)" offset="0.546875"/><stop stop-opacity="1" stop-color="rgb(12.217712%, 63.99231%, 53.923035%)" offset="0.550781"/><stop stop-opacity="1" stop-color="rgb(12.04834%, 63.882446%, 54.248047%)" offset="0.554688"/><stop stop-opacity="1" stop-color="rgb(11.878967%, 63.772583%, 54.571533%)" offset="0.558594"/><stop stop-opacity="1" stop-color="rgb(11.709595%, 63.664246%, 54.896545%)" offset="0.5625"/><stop stop-opacity="1" stop-color="rgb(11.538696%, 63.554382%, 55.221558%)" offset="0.566406"/><stop stop-opacity="1" stop-color="rgb(11.369324%, 63.444519%, 55.54657%)" offset="0.570312"/><stop stop-opacity="1" stop-color="rgb(11.199951%, 63.334656%, 55.870056%)" offset="0.574219"/><stop stop-opacity="1" stop-color="rgb(11.030579%, 63.224792%, 56.195068%)" offset="0.578125"/><stop stop-opacity="1" stop-color="rgb(10.861206%, 63.114929%, 56.520081%)" offset="0.582031"/><stop stop-opacity="1" stop-color="rgb(10.691833%, 63.006592%, 56.845093%)" offset="0.585938"/><stop stop-opacity="1" stop-color="rgb(10.520935%, 62.896729%, 57.170105%)" offset="0.589844"/><stop stop-opacity="1" stop-color="rgb(10.351562%, 62.786865%, 57.495117%)" offset="0.59375"/><stop stop-opacity="1" stop-color="rgb(10.18219%, 62.677002%, 57.818604%)" offset="0.597656"/><stop stop-opacity="1" stop-color="rgb(10.012817%, 62.567139%, 58.143616%)" offset="0.601562"/><stop stop-opacity="1" stop-color="rgb(9.841919%, 62.457275%, 58.468628%)" offset="0.605469"/><stop stop-opacity="1" stop-color="rgb(9.672546%, 62.347412%, 58.79364%)" offset="0.609375"/><stop stop-opacity="1" stop-color="rgb(9.503174%, 62.237549%, 59.117126%)" offset="0.613281"/><stop stop-opacity="1" stop-color="rgb(9.333801%, 62.129211%, 59.442139%)" offset="0.617188"/><stop stop-opacity="1" stop-color="rgb(9.162903%, 62.019348%, 59.767151%)" offset="0.621094"/><stop stop-opacity="1" stop-color="rgb(8.99353%, 61.909485%, 60.092163%)" offset="0.625"/><stop stop-opacity="1" stop-color="rgb(8.824158%, 61.799622%, 60.415649%)" offset="0.628906"/><stop stop-opacity="1" stop-color="rgb(8.654785%, 61.689758%, 60.740662%)" offset="0.632812"/><stop stop-opacity="1" stop-color="rgb(8.485413%, 61.579895%, 61.065674%)" offset="0.636719"/><stop stop-opacity="1" stop-color="rgb(8.31604%, 61.471558%, 61.390686%)" offset="0.640625"/><stop stop-opacity="1" stop-color="rgb(8.145142%, 61.361694%, 61.714172%)" offset="0.644531"/><stop stop-opacity="1" stop-color="rgb(7.975769%, 61.251831%, 62.039185%)" offset="0.648438"/><stop stop-opacity="1" stop-color="rgb(7.806396%, 61.141968%, 62.364197%)" offset="0.652344"/><stop stop-opacity="1" stop-color="rgb(7.637024%, 61.032104%, 62.689209%)" offset="0.65625"/><stop stop-opacity="1" stop-color="rgb(7.466125%, 60.922241%, 63.012695%)" offset="0.660156"/><stop stop-opacity="1" stop-color="rgb(7.296753%, 60.813904%, 63.337708%)" offset="0.664062"/><stop stop-opacity="1" stop-color="rgb(7.12738%, 60.704041%, 63.66272%)" offset="0.667969"/><stop stop-opacity="1" stop-color="rgb(6.958008%, 60.594177%, 63.987732%)" offset="0.671875"/><stop stop-opacity="1" stop-color="rgb(6.787109%, 60.484314%, 64.311218%)" offset="0.675781"/><stop stop-opacity="1" stop-color="rgb(6.617737%, 60.374451%, 64.63623%)" offset="0.679688"/><stop stop-opacity="1" stop-color="rgb(6.448364%, 60.264587%, 64.961243%)" offset="0.683594"/><stop stop-opacity="1" stop-color="rgb(6.278992%, 60.15625%, 65.286255%)" offset="0.6875"/><stop stop-opacity="1" stop-color="rgb(6.109619%, 60.046387%, 65.609741%)" offset="0.691406"/><stop stop-opacity="1" stop-color="rgb(5.940247%, 59.936523%, 65.934753%)" offset="0.695312"/><stop stop-opacity="1" stop-color="rgb(5.769348%, 59.82666%, 66.259766%)" offset="0.699219"/><stop stop-opacity="1" stop-color="rgb(5.599976%, 59.716797%, 66.584778%)" offset="0.703125"/><stop stop-opacity="1" stop-color="rgb(5.430603%, 59.606934%, 66.908264%)" offset="0.707031"/><stop stop-opacity="1" stop-color="rgb(5.26123%, 59.498596%, 67.233276%)" offset="0.710938"/><stop stop-opacity="1" stop-color="rgb(5.090332%, 59.388733%, 67.558289%)" offset="0.714844"/><stop stop-opacity="1" stop-color="rgb(4.920959%, 59.27887%, 67.883301%)" offset="0.71875"/><stop stop-opacity="1" stop-color="rgb(4.751587%, 59.169006%, 68.206787%)" offset="0.722656"/><stop stop-opacity="1" stop-color="rgb(4.582214%, 59.059143%, 68.531799%)" offset="0.726562"/><stop stop-opacity="1" stop-color="rgb(4.411316%, 58.94928%, 68.856812%)" offset="0.730469"/><stop stop-opacity="1" stop-color="rgb(4.241943%, 58.840942%, 69.181824%)" offset="0.734375"/><stop stop-opacity="1" stop-color="rgb(4.072571%, 58.731079%, 69.50531%)" offset="0.738281"/><stop stop-opacity="1" stop-color="rgb(3.903198%, 58.621216%, 69.830322%)" offset="0.742188"/><stop stop-opacity="1" stop-color="rgb(3.733826%, 58.511353%, 70.155334%)" offset="0.746094"/><stop stop-opacity="1" stop-color="rgb(3.564453%, 58.401489%, 70.480347%)" offset="0.75"/><stop stop-opacity="1" stop-color="rgb(3.393555%, 58.291626%, 70.803833%)" offset="0.753906"/><stop stop-opacity="1" stop-color="rgb(3.224182%, 58.183289%, 71.128845%)" offset="0.757813"/><stop stop-opacity="1" stop-color="rgb(3.05481%, 58.073425%, 71.453857%)" offset="0.761719"/><stop stop-opacity="1" stop-color="rgb(2.885437%, 57.963562%, 71.77887%)" offset="0.765625"/><stop stop-opacity="1" stop-color="rgb(2.714539%, 57.853699%, 72.102356%)" offset="0.769531"/><stop stop-opacity="1" stop-color="rgb(2.545166%, 57.743835%, 72.427368%)" offset="0.773438"/><stop stop-opacity="1" stop-color="rgb(2.375793%, 57.633972%, 72.75238%)" offset="0.777344"/><stop stop-opacity="1" stop-color="rgb(2.206421%, 57.524109%, 73.077393%)" offset="0.78125"/><stop stop-opacity="1" stop-color="rgb(2.035522%, 57.414246%, 73.400879%)" offset="0.785156"/><stop stop-opacity="1" stop-color="rgb(1.86615%, 57.305908%, 73.725891%)" offset="0.789062"/><stop stop-opacity="1" stop-color="rgb(1.696777%, 57.196045%, 74.050903%)" offset="0.792969"/><stop stop-opacity="1" stop-color="rgb(1.527405%, 57.086182%, 74.375916%)" offset="0.796875"/><stop stop-opacity="1" stop-color="rgb(1.358032%, 56.976318%, 74.700928%)" offset="0.800781"/><stop stop-opacity="1" stop-color="rgb(1.18866%, 56.866455%, 75.02594%)" offset="0.804688"/><stop stop-opacity="1" stop-color="rgb(1.017761%, 56.756592%, 75.349426%)" offset="0.808594"/><stop stop-opacity="1" stop-color="rgb(0.848389%, 56.648254%, 75.674438%)" offset="0.8125"/><stop stop-opacity="1" stop-color="rgb(0.679016%, 56.538391%, 75.999451%)" offset="0.816406"/><stop stop-opacity="1" stop-color="rgb(0.509644%, 56.428528%, 76.324463%)" offset="0.820312"/><stop stop-opacity="1" stop-color="rgb(0.338745%, 56.318665%, 76.647949%)" offset="0.824219"/><stop stop-opacity="1" stop-color="rgb(0.169373%, 56.208801%, 76.972961%)" offset="0.828125"/><stop stop-opacity="1" stop-color="rgb(0.0839233%, 56.15387%, 77.13623%)" offset="0.84375"/><stop stop-opacity="1" stop-color="rgb(0%, 56.098938%, 77.2995%)" offset="0.875"/><stop stop-opacity="1" stop-color="rgb(0%, 56.098938%, 77.2995%)" offset="1"/></linearGradient></defs><g fill="#ffffff" fill-opacity="1"><g transform="translate(154.465644, 102.855674)"><g><path d="M 8.703125 0.453125 C 7.484375 0.453125 6.488281 0.0546875 5.71875 -0.734375 C 4.957031 -1.523438 4.578125 -2.5 4.578125 -3.65625 C 4.578125 -4.144531 4.726562 -4.757812 5.03125 -5.5 L 28.390625 -60.640625 C 28.878906 -61.734375 29.566406 -62.628906 30.453125 -63.328125 C 31.335938 -64.035156 32.421875 -64.390625 33.703125 -64.390625 L 34.625 -64.390625 C 35.90625 -64.390625 36.988281 -64.035156 37.875 -63.328125 C 38.757812 -62.628906 39.445312 -61.734375 39.9375 -60.640625 L 63.296875 -5.5 C 63.597656 -4.757812 63.75 -4.144531 63.75 -3.65625 C 63.75 -2.5 63.363281 -1.523438 62.59375 -0.734375 C 61.832031 0.0546875 60.84375 0.453125 59.625 0.453125 C 58.769531 0.453125 57.988281 0.222656 57.28125 -0.234375 C 56.582031 -0.691406 56.050781 -1.316406 55.6875 -2.109375 L 49.734375 -16.390625 L 18.59375 -16.390625 L 12.640625 -2.109375 C 12.273438 -1.316406 11.738281 -0.691406 11.03125 -0.234375 C 10.332031 0.222656 9.554688 0.453125 8.703125 0.453125 Z M 21.796875 -24 L 46.53125 -24 L 34.171875 -53.765625 Z M 21.796875 -24 "/></g></g></g><g fill="#ffffff" fill-opacity="1"><g transform="translate(222.786456, 102.855674)"><g><path d="M 13 0.453125 C 11.84375 0.453125 10.867188 0.0546875 10.078125 -0.734375 C 9.285156 -1.523438 8.890625 -2.5 8.890625 -3.65625 L 8.890625 -59.71875 C 8.890625 -60.875 9.285156 -61.863281 10.078125 -62.6875 C 10.867188 -63.519531 11.84375 -63.9375 13 -63.9375 L 34.34375 -63.9375 C 42.644531 -63.9375 48.875 -62.222656 53.03125 -58.796875 C 57.1875 -55.378906 59.265625 -50.894531 59.265625 -45.34375 C 59.265625 -41.675781 58.238281 -38.332031 56.1875 -35.3125 C 54.144531 -32.289062 51.171875 -30.109375 47.265625 -28.765625 C 51.660156 -27.597656 54.664062 -24.863281 56.28125 -20.5625 C 57.90625 -16.257812 58.71875 -12.03125 58.71875 -7.875 L 58.71875 -3.65625 C 58.71875 -2.5 58.316406 -1.523438 57.515625 -0.734375 C 56.722656 0.0546875 55.75 0.453125 54.59375 0.453125 C 53.3125 0.453125 52.285156 0.0703125 51.515625 -0.6875 C 50.753906 -1.445312 50.375 -2.4375 50.375 -3.65625 L 50.375 -6.40625 C 50.375 -9.457031 50.097656 -12.28125 49.546875 -14.875 C 49.003906 -17.476562 47.691406 -19.800781 45.609375 -21.84375 C 43.535156 -23.882812 40.390625 -24.90625 36.171875 -24.90625 L 17.21875 -24.90625 L 17.21875 -3.65625 C 17.21875 -2.5 16.804688 -1.523438 15.984375 -0.734375 C 15.160156 0.0546875 14.164062 0.453125 13 0.453125 Z M 33.796875 -32.796875 C 39.046875 -32.796875 43.210938 -33.832031 46.296875 -35.90625 C 49.378906 -37.976562 50.921875 -40.910156 50.921875 -44.703125 C 50.921875 -48.359375 49.59375 -51.164062 46.9375 -53.125 C 44.28125 -55.082031 39.75 -56.0625 33.34375 -56.0625 L 17.21875 -56.0625 L 17.21875 -32.796875 Z M 33.796875 -32.796875 "/></g></g></g><g fill="#ffffff" fill-opacity="1"><g transform="translate(287.993451, 102.855674)"><g><path d="M 13 0 C 11.84375 0 10.867188 -0.394531 10.078125 -1.1875 C 9.285156 -1.976562 8.890625 -2.957031 8.890625 -4.125 L 8.890625 -59.71875 C 8.890625 -60.875 9.285156 -61.863281 10.078125 -62.6875 C 10.867188 -63.519531 11.84375 -63.9375 13 -63.9375 L 49.734375 -63.9375 C 50.835938 -63.9375 51.769531 -63.550781 52.53125 -62.78125 C 53.289062 -62.019531 53.671875 -61.09375 53.671875 -60 C 53.671875 -58.894531 53.289062 -57.972656 52.53125 -57.234375 C 51.769531 -56.503906 50.835938 -56.140625 49.734375 -56.140625 L 17.21875 -56.140625 L 17.21875 -35.90625 L 46.4375 -35.90625 C 47.539062 -35.90625 48.472656 -35.519531 49.234375 -34.75 C 49.992188 -33.988281 50.375 -33.0625 50.375 -31.96875 C 50.375 -30.863281 49.992188 -29.945312 49.234375 -29.21875 C 48.472656 -28.488281 47.539062 -28.125 46.4375 -28.125 L 17.21875 -28.125 L 17.21875 -7.78125 L 49.734375 -7.78125 C 50.835938 -7.78125 51.769531 -7.398438 52.53125 -6.640625 C 53.289062 -5.878906 53.671875 -4.945312 53.671875 -3.84375 C 53.671875 -2.75 53.289062 -1.832031 52.53125 -1.09375 C 51.769531 -0.363281 50.835938 0 49.734375 0 Z M 13 0 "/></g></g></g><g fill="#ffffff" fill-opacity="1"><g transform="translate(346.423314, 102.855674)"><g><path d="M 9.625 0 C 8.15625 0 6.898438 -0.515625 5.859375 -1.546875 C 4.828125 -2.585938 4.3125 -3.84375 4.3125 -5.3125 C 4.3125 -6.65625 4.675781 -7.785156 5.40625 -8.703125 L 43.6875 -55.96875 L 8.421875 -55.96875 C 7.328125 -55.96875 6.394531 -56.347656 5.625 -57.109375 C 4.863281 -57.867188 4.484375 -58.800781 4.484375 -59.90625 C 4.484375 -61 4.863281 -61.941406 5.625 -62.734375 C 6.394531 -63.535156 7.328125 -63.9375 8.421875 -63.9375 L 48.171875 -63.9375 C 49.890625 -63.9375 51.25 -63.382812 52.25 -62.28125 C 53.257812 -61.1875 53.765625 -59.84375 53.765625 -58.25 C 53.765625 -57.644531 53.625 -57.003906 53.34375 -56.328125 C 53.070312 -55.660156 52.722656 -55.082031 52.296875 -54.59375 L 14.46875 -7.78125 L 50.375 -7.78125 C 51.476562 -7.78125 52.410156 -7.398438 53.171875 -6.640625 C 53.929688 -5.878906 54.3125 -4.945312 54.3125 -3.84375 C 54.3125 -2.75 53.929688 -1.832031 53.171875 -1.09375 C 52.410156 -0.363281 51.476562 0 50.375 0 Z M 9.625 0 "/></g></g></g><g fill="#ffffff" fill-opacity="1"><g transform="translate(404.853178, 102.855674)"><g><path d="M 11.453125 0.28125 C 10.046875 0.28125 8.835938 -0.222656 7.828125 -1.234375 C 6.816406 -2.242188 6.3125 -3.453125 6.3125 -4.859375 L 6.3125 -5.40625 C 6.3125 -6.8125 6.816406 -8.015625 7.828125 -9.015625 C 8.835938 -10.023438 10.046875 -10.53125 11.453125 -10.53125 L 12.359375 -10.53125 C 13.765625 -10.53125 14.972656 -10.023438 15.984375 -9.015625 C 16.992188 -8.015625 17.5 -6.8125 17.5 -5.40625 L 17.5 -4.859375 C 17.5 -3.453125 16.992188 -2.242188 15.984375 -1.234375 C 14.972656 -0.222656 13.765625 0.28125 12.359375 0.28125 Z M 11.453125 0.28125 "/></g></g></g><g fill="#ffffff" fill-opacity="1"><g transform="translate(428.664721, 102.855674)"><g><path d="M 11.171875 -56.234375 C 9.890625 -56.234375 8.789062 -56.691406 7.875 -57.609375 C 6.957031 -58.523438 6.5 -59.625 6.5 -60.90625 L 6.5 -61.28125 C 6.5 -62.5625 6.957031 -63.660156 7.875 -64.578125 C 8.789062 -65.492188 9.890625 -65.953125 11.171875 -65.953125 L 11.71875 -65.953125 C 13 -65.953125 14.097656 -65.492188 15.015625 -64.578125 C 15.929688 -63.660156 16.390625 -62.5625 16.390625 -61.28125 L 16.390625 -60.90625 C 16.390625 -59.625 15.929688 -58.523438 15.015625 -57.609375 C 14.097656 -56.691406 13 -56.234375 11.71875 -56.234375 Z M 11.359375 0.453125 C 10.203125 0.453125 9.222656 0.0546875 8.421875 -0.734375 C 7.628906 -1.523438 7.234375 -2.5 7.234375 -3.65625 L 7.234375 -42.953125 C 7.234375 -44.117188 7.628906 -45.113281 8.421875 -45.9375 C 9.222656 -46.757812 10.203125 -47.171875 11.359375 -47.171875 C 12.578125 -47.171875 13.582031 -46.773438 14.375 -45.984375 C 15.175781 -45.191406 15.578125 -44.179688 15.578125 -42.953125 L 15.578125 -3.65625 C 15.578125 -2.5 15.160156 -1.523438 14.328125 -0.734375 C 13.503906 0.0546875 12.515625 0.453125 11.359375 0.453125 Z M 11.359375 0.453125 "/></g></g></g><g fill="#ffffff" fill-opacity="1"><g transform="translate(451.468858, 102.855674)"><g><path d="M 27.84375 0.921875 C 23.144531 0.921875 19.023438 -0.0820312 15.484375 -2.09375 C 11.941406 -4.113281 9.207031 -6.972656 7.28125 -10.671875 C 5.351562 -14.367188 4.390625 -18.597656 4.390625 -23.359375 C 4.390625 -28.117188 5.351562 -32.34375 7.28125 -36.03125 C 9.207031 -39.726562 11.941406 -42.582031 15.484375 -44.59375 C 19.023438 -46.613281 23.144531 -47.625 27.84375 -47.625 C 32.488281 -47.625 36.582031 -46.613281 40.125 -44.59375 C 43.664062 -42.582031 46.410156 -39.726562 48.359375 -36.03125 C 50.316406 -32.34375 51.296875 -28.117188 51.296875 -23.359375 C 51.296875 -18.597656 50.316406 -14.367188 48.359375 -10.671875 C 46.410156 -6.972656 43.664062 -4.113281 40.125 -2.09375 C 36.582031 -0.0820312 32.488281 0.921875 27.84375 0.921875 Z M 27.84375 -6.6875 C 30.34375 -6.6875 32.738281 -7.265625 35.03125 -8.421875 C 37.320312 -9.585938 39.210938 -11.421875 40.703125 -13.921875 C 42.203125 -16.421875 42.953125 -19.597656 42.953125 -23.453125 C 42.953125 -27.234375 42.203125 -30.375 40.703125 -32.875 C 39.210938 -35.382812 37.320312 -37.203125 35.03125 -38.328125 C 32.738281 -39.460938 30.34375 -40.03125 27.84375 -40.03125 C 25.28125 -40.03125 22.851562 -39.460938 20.5625 -38.328125 C 18.269531 -37.203125 16.390625 -35.382812 14.921875 -32.875 C 13.460938 -30.375 12.734375 -27.234375 12.734375 -23.453125 C 12.734375 -19.597656 13.460938 -16.421875 14.921875 -13.921875 C 16.390625 -11.421875 18.269531 -9.585938 20.5625 -8.421875 C 22.851562 -7.265625 25.28125 -6.6875 27.84375 -6.6875 Z M 27.84375 -6.6875 "/></g></g></g><g clip-path="url(#1174c29622)"><g clip-path="url(#96b274f41b)"><path fill="#52c428" d="M 410.859375 90.570312 L 424.386719 90.570312 L 424.386719 104.097656 L 410.859375 104.097656 Z M 410.859375 90.570312 " fill-opacity="1" fill-rule="nonzero"/></g></g><g clip-path="url(#317a702405)"><g clip-path="url(#4b47c5d35b)"><path fill="url(#a8d306ca5e)" d="M 15.011719 10.515625 L 15.011719 139.472656 L 137.890625 139.472656 L 137.890625 10.515625 Z M 15.011719 10.515625 " fill-rule="nonzero"/></g></g></svg>