<?xml version="1.0" encoding="UTF-8"?>
<svg width="64px" height="64px" viewBox="0 0 64 64" version="1.1" xmlns="http://www.w3.org/2000/svg" xmlns:xlink="http://www.w3.org/1999/xlink">
    <title>1E6B764F-E6DD-46D7-95C8-5AE99CEAC585</title>
    <defs>
        <polygon id="path-1" points="0 0 14.8637029 0 14.8637029 3.33695836 0 3.33695836"></polygon>
        <polygon id="path-3" points="8.70551359e-16 0 37.4885145 0 37.4885145 22.1448401 8.70551359e-16 22.1448401"></polygon>
    </defs>
    <g id="Dashboard" stroke="none" stroke-width="1" fill="none" fill-rule="evenodd">
        <g id="Job-Fulfillments-02" transform="translate(-268, -342)">
            <g id="Group-19" transform="translate(252, 342)">
                <g id="Group-27" transform="translate(16, 0)">
                    <rect id="Rectangle-Copy-7" fill="#F5F5F5" x="0" y="0" width="64" height="64" rx="20"></rect>
                    <g id="Group-33" transform="translate(13.4288, 13.2414)">
                        <path d="M35.6315005,18.8368618 C35.2561758,18.8410755 34.8816945,18.8482387 34.5067915,18.8482387 C32.2830978,18.8495028 30.0594042,18.8491488 27.8361323,18.8491488 L27.8184203,18.8491488 L24.9634221,2.19125696 C25.8249821,2.60040242 26.7076278,2.97246776 27.5367159,3.43891886 C28.7204648,4.10383291 29.770109,4.96426034 30.7236025,5.93087176 C32.7929491,8.0280056 34.2390036,10.4972048 35.0389935,13.3321488 C35.4442599,14.7698464 35.6804193,16.2366181 35.6239097,17.7400486 C35.6099932,18.1049507 35.6281268,18.471117 35.6315005,18.8368618" id="Fill-1" fill="#FEC969"></path>
                        <path d="M12.5673317,2.15788484 L9.70727283,18.8485758 C7.15548634,18.8488918 4.60412157,18.8488918 2.05233508,18.8485758 C2.00679006,18.8485758 1.96082332,18.8435194 1.9152783,18.8405698 C1.918652,18.2927953 1.92582113,17.7437566 1.92539941,17.195982 C1.92371256,15.4789195 2.27879506,13.8263258 2.83545647,12.212919 C3.34952484,10.7191799 4.07698009,9.33331025 4.99378455,8.04561866 C6.12777131,6.45370151 7.49285689,5.09648469 9.10000584,3.9836596 C10.1547105,3.2530126 11.2739373,2.64119055 12.4753982,2.18485221 C12.5053398,2.17389672 12.5361249,2.16546942 12.5673317,2.15788484" id="Fill-3" fill="#FEC969"></path>
                        <path d="M10.4352763,36.3119238 C9.02380227,35.4131521 7.7548673,34.3462558 6.65124389,33.0867957 C4.89649532,31.084469 3.65244142,28.8019345 2.9161302,26.24467 C2.82293159,25.9214831 2.75208377,25.5915542 2.67111484,25.2649963 C2.99583399,25.2666818 3.32139657,25.2763732 3.64611573,25.265839 C3.73341036,25.2628895 3.81901813,25.1984206 3.90546934,25.1626046 C3.92739842,25.2119043 3.95270121,25.2595186 3.96956974,25.3105037 C4.22512793,26.0799163 4.46761301,26.8539639 4.7391963,27.6174774 C4.86824054,27.9802727 5.05295091,28.3232638 5.2123585,28.6751036 C5.33001648,28.3974241 5.36248839,28.1344923 5.43544477,27.8833587 C5.69395496,26.9917503 5.96680339,26.1039341 6.23374783,25.2144325 C6.66305186,25.2329726 7.09235588,25.2510913 7.52208162,25.26921 C7.51280393,25.3037619 7.50732166,25.3399993 7.49340512,25.3728658 C6.84270167,26.9390796 6.44418271,28.5625992 6.3573098,30.260279 C6.3446584,30.5029852 6.39189028,30.7069259 6.54202017,30.8965402 C6.80263892,31.226469 7.045124,31.5711456 7.31333359,31.894754 C8.59955881,33.4474842 10.1219434,34.7153716 11.9066336,35.6630216 C11.8914519,35.6811403 11.876692,35.699259 11.8615103,35.7173777 C11.6498103,35.6170928 11.4279891,35.5340839 11.2297839,35.4123094 C11.0391696,35.2955913 10.9118122,35.3048613 10.8143965,35.5117515 C10.6883042,35.7784756 10.5617903,36.0451997 10.4352763,36.3119238" id="Fill-5" fill="#0A2841"></path>
                        <path d="M34.8822427,25.2700948 C34.2551552,28.0262436 33.0389344,30.4941787 31.2361105,32.6709505 C30.0536267,34.0985353 28.6687206,35.2960548 27.0839225,36.2605594 C27.0531374,36.2795208 27.0198221,36.2938472 26.9873502,36.3102804 C26.897947,35.9002923 26.7427565,35.5311765 26.3598409,35.3040607 C26.3712272,35.290577 26.3800832,35.2724583 26.3948431,35.2636097 C28.2385732,34.1722742 29.747463,32.7202502 30.9902517,30.985069 C31.0733292,30.8687722 31.1285736,30.7014903 31.1256217,30.5590689 C31.1024274,29.3851459 30.9000051,28.2360834 30.5638997,27.1131455 C30.3783459,26.495003 30.1489339,25.8895014 29.9397642,25.2785221 C30.3859367,25.2755726 30.8321093,25.272623 31.2782818,25.2700948 C31.4963075,25.8945578 31.7379492,26.5127004 31.9260333,27.1464334 C32.0816454,27.6714542 32.1744224,28.2154365 32.2950323,28.7509915 C32.5413128,28.3254128 32.7563865,27.893935 32.9191678,27.4434957 C33.1780997,26.7263324 33.4028729,25.9969495 33.6419842,25.272623 C34.0552632,25.2717803 34.4689638,25.2709376 34.8822427,25.2700948" id="Fill-7" fill="#0A2841"></path>
                        <g id="Group-11" transform="translate(11.311, 36.3872)">
                            <mask id="mask-2" fill="white">
                                <use xlink:href="#path-1"></use>
                            </mask>
                            <g id="Clip-10"></g>
                            <path d="M14.8637029,0.407881367 C14.8531601,1.34583996 14.3487911,1.89572135 13.4956654,2.20711012 C12.2503463,2.66176301 10.9784594,3.011496 9.66566622,3.18846932 C8.33895654,3.36754946 7.00507773,3.38313997 5.67162064,3.24366814 C4.36009263,3.10588177 3.08525367,2.80123484 1.8390912,2.37523478 C1.52913201,2.26947215 1.21622083,2.1603386 0.927347296,2.00991128 C0.316284889,1.6913593 0.0130731088,1.16802391 0,0.47909206 C0.0535575746,0.319394706 0.107115149,0.159697353 0.160672724,0 C0.337792262,0.443276031 0.673054245,0.742445215 1.10573197,0.892029807 C1.90487846,1.16844528 2.71456778,1.41620793 3.52847423,1.64753734 C4.63842333,1.96271839 5.78168778,2.07311604 6.93001278,2.11188162 C7.46685367,2.13000032 8.00748997,2.1000834 8.54433086,2.05921099 C9.13304247,2.01454629 9.73061005,1.98252255 10.3037183,1.85400621 C11.2795626,1.63489639 12.2398035,1.3454186 13.2059484,1.08332954 C13.8418919,0.911412599 14.4027704,0.633733032 14.7059822,0.000842730096 C14.7586964,0.136522276 14.8109888,0.272201821 14.8637029,0.407881367" id="Fill-9" fill="#000000" mask="url(#mask-2)"></path>
                        </g>
                        <path d="M35.1913585,23.7604703 C35.0884605,24.2640015 34.9851407,24.7671114 34.8822427,25.2702212 C34.4689638,25.2706426 34.0552632,25.2719067 33.6419842,25.2723281 C33.7322309,24.7675327 33.8224775,24.262316 33.9127241,23.7575207 C34.3386544,23.7587848 34.7650065,23.7592062 35.1913585,23.7604703" id="Fill-12" fill="#051B2C"></path>
                        <path d="M3.90542716,25.1623518 C3.81897596,25.1985892 3.7337899,25.263058 3.64565184,25.2655862 C3.32093269,25.2761203 2.99579182,25.2668503 2.67065096,25.2647435 C2.59389916,24.997598 2.50449596,24.7329808 2.44250412,24.4620431 C2.38978997,24.2315564 2.3682826,23.9934851 2.33285869,23.7592062 C2.77270555,23.7583634 3.21170897,23.7570993 3.6507124,23.7554139 C3.73589846,24.2243932 3.82066281,24.6933725 3.90542716,25.1623518" id="Fill-14" fill="#051B2C"></path>
                        <path d="M11.4715099,36.387011 C11.4179524,36.5467084 11.3643948,36.7064057 11.3108372,36.8661031 C11.0620264,36.7350586 10.8111071,36.608649 10.5665134,36.4700199 C10.5108473,36.4384176 10.4783754,36.3655214 10.4353606,36.312008 C10.5614529,36.045284 10.6883886,35.7785599 10.8144808,35.5114145 C10.9118965,35.3049456 11.0392539,35.2956755 11.2298683,35.4123937 C11.4280735,35.5341682 11.6498946,35.6171771 11.8615946,35.7170406 C11.731707,35.9403641 11.6013976,36.1636875 11.4715099,36.387011" id="Fill-16" fill="#051B2C"></path>
                        <path d="M26.1747089,36.7950609 C26.1219947,36.6593814 26.0697023,36.5237018 26.0169881,36.3880223 C25.883305,36.1651202 25.7500437,35.9422181 25.6167823,35.719316 C25.864328,35.5806869 26.1122953,35.4424791 26.3598409,35.3042714 C26.7427565,35.5313872 26.897947,35.9000816 26.9873502,36.3100698 C26.7166103,36.4718739 26.4454487,36.6332568 26.1747089,36.7950609" id="Fill-18" fill="#051B2C"></path>
                        <path d="M25.9995714,18.8467639 C25.9746903,18.8505562 25.9460138,18.8522416 25.914807,18.8522416 C21.1342663,18.8467639 16.3528822,18.8467639 11.5719199,18.8522416 C11.555473,18.8522416 11.5402914,18.8518203 11.5251097,18.8505562 L14.0731008,1.61546162 C14.2400992,1.3782331 14.3902291,1.12709953 14.5766263,0.906725608 C15.060753,0.333247777 15.6903708,0.0197521814 16.4393334,0.0117462455 C17.9465364,-0.00552972147 19.454161,-0.000473340893 20.9617857,0.00626849988 C22.0055258,0.0104821504 22.7650312,0.504321987 23.2833167,1.39466633 C23.3330789,1.4806248 23.3963359,1.55815597 23.4553757,1.63905806 L23.4553757,1.63947943 L25.9995714,18.8467639 Z" id="Fill-20" fill="#FDC869"></path>
                        <path d="M31.2782818,25.2700948 L29.9397642,25.2785221 C29.8878935,25.1693886 29.8360227,25.060255 29.7845737,24.9511215 C29.7634881,24.9106704 29.7432458,24.8693767 29.7221602,24.8285043 C29.5332327,24.4707653 29.3438834,24.1134478 29.1549559,23.7561302 C29.6462518,23.7561302 30.1375477,23.7565516 30.6288435,23.7569729 C30.8451824,24.2613469 31.0615213,24.7652995 31.2782818,25.2700948" id="Fill-22" fill="#051B2C"></path>
                        <path d="M8.3021245,23.7560881 C8.04234917,24.2608834 7.78215214,24.764836 7.5219551,25.2696313 C7.09265108,25.2506699 6.66292534,25.2325512 6.23404303,25.2144325 C6.4440562,24.72902 6.65491279,24.2436074 6.86492596,23.7581949 C7.34441385,23.7577735 7.82348003,23.7565094 8.3021245,23.7560881" id="Fill-24" fill="#051B2C"></path>
                        <path d="M11.9066336,35.6628109 C12.3789524,35.4040928 12.8613923,35.1955171 13.4142582,35.3914518 C13.671925,35.482888 13.9245312,35.5894934 14.182198,35.6821937 C15.2605186,36.0690068 16.3679374,36.319719 17.5107801,36.4246389 C19.6800728,36.6231019 21.7713485,36.3053926 23.7854506,35.4925794 C24.453866,35.2233272 25.0476382,35.3084429 25.6165293,35.7192738 C25.7502124,35.9421759 25.8834737,36.1650781 26.0171568,36.3879802 C25.713945,37.0208705 25.1526448,37.29855 24.517123,37.470467 C23.5509781,37.732556 22.5907372,38.0220338 21.6148929,38.2411436 C21.0417846,38.36966 20.4442171,38.4016837 19.8550837,38.4463484 C19.3186646,38.4872208 18.7780283,38.5171378 18.2407657,38.4990191 C17.0928624,38.4602535 15.9491762,38.3498558 14.8392271,38.0346748 C14.0257424,37.8033454 13.2156313,37.5555827 12.4164849,37.2791672 C11.9838071,37.1295826 11.6485451,36.8304135 11.4714256,36.3871374 C11.6013133,36.163814 11.7316226,35.9404905 11.8615103,35.717167 C11.876692,35.6990483 11.8914519,35.6809296 11.9066336,35.6628109" id="Fill-26" fill="#1A1A1A"></path>
                        <path d="M29.7224554,24.8285885 C29.7431193,24.8694609 29.7637833,24.9103333 29.7840255,24.9512058 C29.7637833,24.9103333 29.7431193,24.8694609 29.7224554,24.8285885" id="Fill-28" fill="#413A90"></path>
                        <g id="Group-32" transform="translate(0, 1.6154)">
                            <mask id="mask-4" fill="white">
                                <use xlink:href="#path-3"></use>
                            </mask>
                            <g id="Clip-31"></g>
                            <path d="M37.4769174,20.5546084 C37.4520364,21.3893326 36.7650656,22.0736294 35.9304952,22.1182941 C35.6842147,22.1309351 35.4379342,22.1364128 35.191232,22.1448401 C34.7648799,22.1439974 34.3385279,22.143576 33.9125976,22.1423119 C32.8178302,22.1423119 31.7234844,22.1418905 30.6291387,22.1418905 C30.1378429,22.1410478 29.646547,22.1406265 29.1548294,22.1406265 C29.0266286,22.1351487 28.8984278,22.1258787 28.7710704,22.1258787 C22.0759519,22.1254573 15.3812551,22.1254573 8.68613652,22.1258787 C8.55835743,22.1258787 8.43015662,22.1355701 8.30195581,22.1406265 C7.82331135,22.1410478 7.34424517,22.1423119 6.86517899,22.1427333 C5.79360578,22.1418905 4.72245429,22.1410478 3.65088108,22.1402051 C3.21145595,22.1418905 2.77245252,22.1427333 2.33302738,22.1439974 C1.92691758,22.1043891 1.5052044,22.1191368 1.11807169,22.0125315 C0.446704299,21.8279736 0.0203522678,21.2127806 0.0068574459,20.5154215 C-0.00368538375,19.995457 8.70551359e-16,19.4754925 0.00390545359,18.9555281 C0.0114962909,17.9311896 0.695936792,17.2473141 1.72365183,17.2308809 C1.78775223,17.2296168 1.85143092,17.2270886 1.91553133,17.2254032 C1.96107635,17.2279314 2.00662137,17.2329877 2.0521664,17.2329877 C4.6043746,17.2334091 7.15531766,17.2334091 9.70752586,17.2329877 L12.567163,0.542296817 C12.5895138,0.537661801 12.6114429,0.532605421 12.6329502,0.52670631 C13.1124381,0.350997085 13.5927694,0.17528786 14.0731008,0 L11.5251097,17.2350946 C11.5402914,17.2363587 11.555473,17.23678 11.5719199,17.23678 C16.3528822,17.2313023 21.1342663,17.2313023 25.914807,17.23678 C25.9460138,17.23678 25.9746903,17.2350946 25.9995714,17.2313023 L23.4553757,0.0240178077 C23.4604363,0.0307596485 23.4646534,0.0366587592 23.469714,0.0434006 C23.8796192,0.172338305 24.2895244,0.300433279 24.6981645,0.433163269 C24.7542523,0.451281966 24.8023276,0.493418471 24.8541984,0.52417812 C24.8904657,0.541875452 24.926733,0.559151419 24.9634221,0.576006021 L27.8184203,17.2334091 L27.8361323,17.2334091 C30.0594042,17.2334091 32.2830978,17.2342518 34.5067915,17.2329877 C34.8816945,17.2329877 35.2561758,17.2258245 35.6315005,17.2216109 C36.1552683,17.2089699 36.6259002,17.3412786 37.0050204,17.7234567 C37.3006413,18.0217831 37.4676397,18.3837357 37.4769174,18.8008871 C37.490834,19.3853204 37.4946294,19.9701751 37.4769174,20.5546084" id="Fill-30" fill="#FB9F43" mask="url(#mask-4)"></path>
                        </g>
                    </g>
                </g>
            </g>
        </g>
    </g>
</svg>