<?xml version="1.0" encoding="UTF-8"?>
<svg width="64px" height="64px" viewBox="0 0 64 64" version="1.1" xmlns="http://www.w3.org/2000/svg" xmlns:xlink="http://www.w3.org/1999/xlink">
    <title>2BD0F1DF-4FED-4BA1-99F5-63BA97504A68</title>
    <defs>
        <rect id="path-1" x="0" y="0" width="64" height="64" rx="20"></rect>
        <polygon id="path-3" points="0 0 10.2932889 0 10.2932889 18.5255403 0 18.5255403"></polygon>
        <polygon id="path-5" points="0 0 10.2932889 0 10.2932889 18.5255403 0 18.5255403"></polygon>
    </defs>
    <g id="Dashboard" stroke="none" stroke-width="1" fill="none" fill-rule="evenodd">
        <g id="Job-Fulfillments-02" transform="translate(-118, -342)">
            <g id="Group-4" transform="translate(115, 342)">
                <g id="Rectangle-2" transform="translate(3, 0)">
                    <mask id="mask-2" fill="white">
                        <use xlink:href="#path-1"></use>
                    </mask>
                    <use id="Rectangle" fill="#F5F5F5" xlink:href="#path-1"></use>
                    <g id="Group-13" mask="url(#mask-2)">
                        <g transform="translate(15.4364, 11.0345)" id="Group-71">
                            <path d="M1.49051652,51.3869515 C1.4916908,52.0413578 1.48934223,52.0261662 1.48699367,51.5528903 C1.48699367,51.5026412 1.48699367,51.4465493 1.48699367,51.385783 C1.48699367,51.385783 1.48699367,51.385783 1.48699367,51.385783 C1.48816795,51.385783 1.48934223,51.3869515 1.49051652,51.3869515" id="Fill-1" fill="#01A2D5"></path>
                            <path d="M21.6253479,54.0679138 L13.4077204,54.0679138 L15.386386,45.3128928 L15.4462744,45.3128928 C15.5308228,44.8536398 15.6141968,44.3943868 15.6987451,43.9351339 C15.7633307,43.5798848 15.8290905,43.2246356 15.893676,42.8682179 C15.9970128,42.3084669 16.0991754,41.7487158 16.2001637,41.1877961 L19.1076866,41.1877961 C19.1358694,41.3502291 19.1628779,41.5103249 19.192235,41.6715893 C19.3660287,42.6450187 19.5445196,43.6172794 19.720662,44.5895401 L19.7230106,44.6023945 L19.7241848,44.609406 C19.7676333,44.8442912 19.8099074,45.0791763 19.8533559,45.3140614 L19.866273,45.3140614 L21.6253479,54.0679138 Z" id="Fill-3" fill="#01A2D5"></path>
                            <path d="M22.7950505,19.3868356 C22.7950505,19.2734831 22.797399,19.1601305 22.7950505,19.046778 C22.7856562,18.6167396 22.497957,18.3000537 22.1033982,18.282525 C21.6959222,18.2649963 21.3565547,18.5396132 21.3166291,18.95446 C21.2907948,19.2302455 21.2896206,19.5130425 21.3178033,19.7876594 C21.3647746,20.2515867 21.678308,20.4911461 22.1503695,20.4584258 C22.5331855,20.4315484 22.7891791,20.1300541 22.7950505,19.6953414 C22.7962247,19.5925061 22.7950505,19.4896708 22.7950505,19.3868356 M14.0067218,19.3774869 C14.0031989,19.3774869 14.0008504,19.3763183 13.9973275,19.3763183 C13.9973275,19.2629658 14.0008504,19.1496133 13.9961532,19.0362608 C13.9808876,18.6646515 13.7201969,18.3549771 13.3702608,18.2918737 C13.0168018,18.226433 12.6363343,18.416912 12.5576574,18.7908584 C12.4825034,19.1426018 12.4742834,19.5258969 12.5236032,19.8823146 C12.5787945,20.2749584 12.8700165,20.460763 13.2528325,20.4595999 C13.64152,20.4572573 13.8798993,20.2737898 13.9750162,19.8682916 C14.0114189,19.710533 13.9973275,19.5410885 14.0067218,19.3774869 M17.6575654,25.5966836 C18.1448926,25.5966836 18.6322197,25.5990208 19.1183726,25.595515 C19.4847487,25.5931779 19.8346848,25.2636376 19.8663904,24.9025455 C19.8945732,24.5706681 19.6479739,24.2458021 19.2851207,24.1710128 C19.094887,24.131281 18.8976075,24.1114151 18.7026767,24.1125837 C17.8243135,24.1231009 16.9436018,24.1207638 16.0664129,24.1698442 C15.6612855,24.1920473 15.413512,24.5437907 15.4463919,24.909557 C15.4827946,25.2963579 15.8174651,25.5943465 16.2261153,25.595515 C16.7028739,25.5978522 17.1796325,25.5966836 17.6575654,25.5966836 M28.6605905,18.3292683 C29.4015627,18.5641534 29.9487782,18.9906861 30.0955635,19.7946709 C30.2987143,20.9094987 29.4767167,21.9074683 28.3364886,21.9378514 C28.0253038,21.9472001 27.714119,21.9448629 27.4029342,21.93902 C27.2455804,21.9355143 27.1669034,21.9694032 27.1457664,22.1540392 C26.8815529,24.4970474 25.9057243,26.4988294 24.1900978,28.1278336 C23.8178503,28.4819141 23.3821916,28.770554 22.9805871,29.09542 C22.9042587,29.1573549 22.8478932,29.2426614 22.7821334,29.3174507 C22.6576594,29.3560139 22.5179198,29.3712055 22.4087116,29.4354775 C21.2590892,30.114424 20.0249185,30.5281023 18.6862367,30.6169146 C18.6193026,30.5643284 18.5582399,30.4825276 18.4819116,30.4638303 C17.6387769,30.2675084 16.8390907,29.9695198 16.0722843,29.5663588 C15.2021412,29.1082744 14.431812,28.5181402 13.7530768,27.8263393 C13.0978273,27.1590786 12.551786,26.4018371 12.1126044,25.5639633 C11.6933857,24.7646528 11.3986408,23.9256105 11.2178013,23.0526793 C10.9665049,21.8350162 10.9911648,20.5928128 11.0287419,19.357621 C11.0545761,18.50923 11.6475886,17.865341 12.5447403,17.9085786 C12.8641451,17.9237701 13.1835499,17.9518161 13.5017804,17.9798621 C14.6326142,18.078023 15.7599252,18.21241 16.8919334,18.268502 C17.6657854,18.3070652 18.4443346,18.254479 19.2205352,18.2147472 C20.0437071,18.1715096 20.8739246,18.1446322 21.6877023,18.0195939 C22.805619,17.8466437 23.9094444,17.5872183 25.0191411,17.3675248 C25.2704375,17.3172757 25.5240825,17.2740382 25.7765532,17.2272949 C26.0924351,17.9833678 26.5339653,18.2731763 27.3571372,18.2848622 C27.7916216,18.2907051 28.2261061,18.3140767 28.6605905,18.3292683" id="Fill-5" fill="#F5A06D"></path>
                            <path d="M29.3942821,11.6996654 C29.1559028,11.7020025 28.9175235,11.7020025 28.6791442,11.7031711 C28.6732728,11.2813128 28.6356957,10.8559487 28.6685756,10.4364275 C28.7437297,9.47468405 28.008629,8.7583429 26.9975719,8.77002872 C24.2297886,8.8050862 21.4620052,8.78288313 18.6942218,8.77937738 C18.5521337,8.77937738 18.4112198,8.74548849 18.2703059,8.72679117 C17.8581328,8.72912833 17.4447855,8.7314655 17.0326124,8.73380266 C16.9797697,8.72094825 16.9292756,8.75951148 16.8764328,8.74665707 C16.8376815,8.77119731 16.7977559,8.74315132 16.7590046,8.76769156 C16.6145679,8.77236589 16.4689569,8.78171455 16.3256945,8.78171455 C14.0792924,8.78638888 11.8328904,8.78872605 9.58648837,8.79223179 C9.08976695,8.78288313 8.59187126,8.77353447 8.09514985,8.76418581 C8.16208394,8.39257654 8.15503825,7.98590978 8.31239208,7.65636948 C9.12382114,5.96426185 10.3427262,4.59117726 11.835239,3.46466362 C13.0118698,2.57654082 14.2906632,1.86370542 15.6786649,1.33667466 C16.8153702,0.904299089 17.9649925,0.544375641 19.1674576,0.344548013 C19.3870484,0.308321952 19.5948964,0.201980933 19.8074415,0.127191645 C20.7339502,0.291961795 21.6710275,0.407651475 22.5822705,0.630850756 C25.0083377,1.22682789 27.2171627,2.28439517 29.13594,3.8958706 C30.3125709,4.8844915 31.2919223,6.03788255 32.0000145,7.40512422 C33.025163,9.38470318 31.6348127,11.6716194 29.3942821,11.6996654" id="Fill-7" fill="#0A2841"></path>
                            <path d="M35.2833078,41.7564284 L35.2833078,49.4351848 C35.2833078,51.9943808 33.1989567,54.0674464 30.6284528,54.0674464 L21.6545875,54.0674464 L19.8955126,45.3135939 L19.7534245,44.6089386 L19.7522502,44.6030957 L19.7499016,44.5890727 C19.5737593,43.616812 19.3952684,42.6445512 19.2214746,41.6711219 C19.1921175,41.5110261 19.165109,41.3497617 19.1369263,41.1884973 C19.027718,40.5597998 18.9232069,39.9287652 18.8151729,39.3000678 C19.1838976,39.0616769 19.4257997,38.7391481 19.5444022,38.3102783 C19.6500876,37.9258146 19.8050929,37.5565425 19.9389611,37.1802589 C20.1068834,37.2725769 20.2947686,37.3403547 20.4392053,37.4607187 C20.9688066,37.9036115 21.4796194,38.3687074 22.0056979,38.8162745 C22.4225681,39.1703551 22.9979664,39.2030754 23.3044541,38.6164469 C23.3467283,38.5334776 23.4007453,38.4575197 23.4465423,38.3780561 C23.9080352,37.5764084 24.3695282,36.7759293 24.8274983,35.973113 C25.1433802,35.421542 25.4522164,34.8664653 25.7645755,34.3125571 C27.2664826,34.7799902 28.7683896,35.2462546 30.2691224,35.7148563 C30.9701689,35.9345498 31.673564,36.149569 32.3675649,36.3891284 C34.0620542,36.9745883 35.2516022,38.6152783 35.2750878,40.399704 C35.2786107,40.6626351 35.2809592,40.9255662 35.2821335,41.1884973 C35.2821335,41.3778077 35.2833078,41.567118 35.2833078,41.7564284" id="Fill-9" fill="#0A2841"></path>
                            <path d="M19.7243023,44.609406 L19.8663904,45.3140614 L19.852299,45.3140614 C19.8100249,45.0791763 19.7677507,44.8442912 19.7243023,44.609406" id="Fill-11" fill="#01A2D5"></path>
                            <path d="M15.698158,43.9351339 C15.6136097,44.3943868 15.5302356,44.8536398 15.4456873,45.3128928 L15.3869732,45.3128928 L15.698158,43.9351339 Z" id="Fill-13" fill="#00A2D5"></path>
                            <path d="M1.48734595,51.5533577 C1.48734595,51.5019401 1.48734595,51.4470167 1.48617167,51.3862504 C1.48617167,51.3862504 1.48734595,51.3862504 1.48734595,51.3862504 C1.48852024,51.3862504 1.48969452,51.387419 1.4908688,51.387419 C1.4908688,52.0418252 1.48969452,52.0266337 1.48734595,51.5533577" id="Fill-15" fill="#0280BF"></path>
                            <path d="M28.678557,11.7034048 C28.6703371,12.201221 28.6609428,12.6990372 28.6515486,13.1956848 C28.4542691,13.1945163 28.2569897,13.1933477 28.0597103,13.1933477 C21.9240853,13.1921791 15.7884603,13.1921791 9.65283532,13.1898419 C9.63052395,13.0297461 9.59059835,12.8684817 9.59059835,12.7072173 C9.58472694,11.4019105 9.58707551,10.0977723 9.58707551,8.79246551 C11.8334775,8.78895976 14.0787053,8.78545401 16.3251073,8.78194827 C16.469544,8.78194827 16.6139808,8.77259961 16.7584175,8.76675669 C16.8500115,8.75623945 16.9416055,8.74455362 17.0331995,8.73403638 C17.4453726,8.73169921 17.8575457,8.72819347 18.2697188,8.72702488 C18.4118069,8.74572221 18.5527208,8.7796111 18.6936347,8.7796111 C21.4625923,8.78311685 24.2303757,8.80531992 26.9981591,8.77026244 C28.0080419,8.75740803 28.7431426,9.47491776 28.6691628,10.4366613 C28.6362829,10.8561824 28.6726856,11.2815465 28.678557,11.7034048" id="Fill-17" fill="#0A2841"></path>
                            <path d="M25.7767881,17.2277623 C25.5243174,17.2745056 25.2706724,17.3177432 25.019376,17.3679922 C23.9085049,17.5876858 22.8046796,17.8471111 21.6879371,18.0188928 C20.8741595,18.1450997 20.0439419,18.1708085 19.2195957,18.214046 C18.4445694,18.2549464 17.664846,18.3063641 16.8921682,18.2678008 C15.7601601,18.2117089 14.6316748,18.0784905 13.5020152,17.9791609 C13.1837847,17.9522835 12.86438,17.9242376 12.5449752,17.909046 C11.6478235,17.8658084 11.0548109,18.5096975 11.0289767,19.3569199 C10.9913997,20.5921117 10.9655655,21.8354836 11.2180362,23.0531467 C11.3988757,23.9260779 11.6936205,24.7651202 12.1128393,25.5644307 C12.5520209,26.4011359 13.0980621,27.159546 13.7533117,27.8268067 C14.4320468,28.5186076 15.2012017,29.1087418 16.0713449,29.5656576 C16.8393255,29.9699872 17.6390118,30.2679758 18.4821465,30.4642977 C18.5584748,30.4818264 18.6183632,30.5647958 18.6864716,30.617382 C18.4351752,30.659451 18.1803559,30.7482633 17.9314081,30.7342403 C17.2855528,30.7003514 16.6420461,30.6325736 15.9997137,30.5577843 C14.8888426,30.4280716 13.8930513,29.9653129 12.9066541,29.478014 C12.7833545,29.4172477 12.6530091,29.3716729 12.5250124,29.3179181 C12.448684,29.2384545 12.3817499,29.1426307 12.2925045,29.0795273 C10.0695881,27.5276496 8.7168149,25.4206951 8.22713918,22.7633382 C8.19191071,22.5716906 8.16842507,22.3753688 8.16020509,22.1802155 C8.15081083,21.9897365 8.05804253,21.9371503 7.8807259,21.9383189 C7.49673559,21.9418246 7.10687387,21.9698706 6.73110354,21.9149472 C5.90675737,21.7934146 5.24915928,21.112131 5.17400522,20.3630695 C5.08710833,19.4831268 5.52394134,18.7609427 6.35181036,18.4220538 C6.43753297,18.3858277 6.5279527,18.3612875 6.61719816,18.3320729 C6.7134893,18.3145442 6.80978045,18.2970154 6.90724588,18.2783181 C7.31237327,18.2794867 7.71632638,18.2853296 8.12145378,18.2794867 C8.51248978,18.2748123 8.84128882,18.1240652 9.12663942,17.8552912 C9.49066693,17.5128965 9.56934384,17.0770152 9.57521526,16.6119193 C9.57991238,16.3080878 9.57638954,16.0042563 9.57638954,15.6723788 C9.68559779,15.6969191 9.73609193,15.7039306 9.78306322,15.7202907 C11.9061656,16.4237775 14.1020735,16.7089116 16.3249899,16.7848695 C17.4335124,16.8222641 18.5490805,16.8164212 19.6529059,16.7299461 C20.9516621,16.6282794 22.2468955,16.4494863 23.5327346,16.24031 C24.2737067,16.1187774 24.9947161,15.8698693 25.7239454,15.6782218 C25.7415596,16.1947353 25.7591738,16.7112488 25.7767881,17.2277623" id="Fill-19" fill="#E08F65"></path>
                            <path d="M25.7242977,15.6786892 C24.9938941,15.8703367 24.274059,16.1192448 23.5319126,16.2396088 C22.2460735,16.4499537 20.9520144,16.6275783 19.6532582,16.7304136 C18.5494328,16.8168887 17.4326904,16.8227316 16.3253422,16.7853369 C14.1012515,16.7093791 11.9065179,16.4242449 9.78224122,15.7195896 C9.73526993,15.704398 9.68595008,15.6973865 9.57674182,15.6716777 C9.57674182,16.0035552 9.58026467,16.3073866 9.57556754,16.6123867 C9.56852185,17.076314 9.48984493,17.5133639 9.1269917,17.8557586 C8.84164111,18.1245326 8.51284206,18.2741112 8.12180606,18.2799541 C7.71667867,18.285797 7.31155128,18.2799541 6.90759817,18.2787855 C6.819527,18.2565825 6.73145582,18.2343794 6.64455893,18.2121763 C6.63633896,17.8207011 6.61989901,17.4303945 6.62101358,17.0389194 C6.62459613,15.8820226 6.63399039,14.7262944 6.64221037,13.5705661 C6.6868331,13.4537079 6.73145582,13.3380182 6.78899566,13.1907768 L9.65307017,13.1907768 C15.7886952,13.1907768 21.9243201,13.1919454 28.0599451,13.193114 C28.2572246,13.193114 28.454504,13.1942825 28.6517834,13.1954511 C28.6506091,13.3602213 28.6494348,13.5249914 28.6482606,13.6909301 C28.5719322,13.7633823 28.4909067,13.8334972 28.4204498,13.9117923 C28.2419589,14.1069456 28.0857793,14.3243019 27.8908485,14.5007579 C27.2661303,15.0663519 26.4758383,15.3386316 25.7242977,15.6786892" id="Fill-21" fill="#000000"></path>
                            <path d="M19.8079112,0.127659078 C19.5941918,0.201279783 19.3863438,0.308789385 19.166753,0.345015446 C17.9654622,0.544843075 16.8158399,0.904766522 15.6791346,1.33597351 C14.2911329,1.86417286 13.0123395,2.57583967 11.8357087,3.46513105 C10.3431959,4.5916447 9.12311657,5.9635607 8.31286179,7.65683692 C8.15433368,7.98520863 8.16255366,8.39304397 8.09444528,8.76465324 C7.08221394,8.85346552 6.62541813,9.58382966 6.60897818,10.3141938 C6.59958392,10.7757839 6.60193249,11.2373741 6.59958392,11.7001328 C5.93494014,11.7071443 5.26912208,11.7375274 4.64910103,11.427853 C3.05794852,10.6332169 2.50016443,8.85813985 3.34799625,7.30275638 C4.36022759,5.44354143 5.8116405,3.99333039 7.57658679,2.84578226 C9.87348296,1.35233367 12.4064099,0.505111265 15.1225248,0.165053722 C16.6843203,-0.0289309933 18.2449414,-0.0651570546 19.8079112,0.127659078" id="Fill-23" fill="#061B28"></path>
                            <path d="M22.7820159,29.3178013 C22.7796674,29.8752152 22.7773188,30.4314605 22.7761445,30.9888744 C22.3346144,31.1513074 21.8895614,31.3020546 21.4539027,31.4785105 C20.3442059,31.9284149 19.1804921,32.1387597 17.9932927,32.1562885 C17.2347064,32.1679743 16.4737714,32.02307 15.7140108,32.000867 C15.3887346,31.9915183 15.0434956,32.0756563 14.7370079,32.1936831 C14.3565405,32.3385874 14.1428211,32.6774763 13.9936872,33.047917 C13.4946173,32.7733001 12.9955473,32.4986832 12.4964773,32.2240663 C12.5011744,31.3674952 12.5046973,30.5120927 12.5093944,29.6566902 C12.5105687,29.5433377 12.519963,29.4311538 12.5246601,29.3189699 C12.6526569,29.3715561 12.7830022,29.4171308 12.9063018,29.4778971 C13.892699,29.965196 14.8884904,30.4279548 15.9993614,30.5576674 C16.6416938,30.6324567 17.2863748,30.7002345 17.9322301,30.7341234 C18.1811779,30.7481464 18.4348229,30.6593341 18.6861193,30.6172651 C20.0259754,30.5284529 21.2589718,30.113606 22.4085942,29.4346595 C22.5178024,29.3703875 22.657542,29.3551959 22.7820159,29.3178013" id="Fill-25" fill="#D1815D"></path>
                            <path d="M22.8000999,32.2228977 C21.9898451,32.6786449 21.1819389,33.1378979 20.3693355,33.5889708 C19.5297237,34.0564038 18.6877633,34.5226683 17.8411058,34.9760783 C17.742466,35.027496 17.5733694,35.0461933 17.4829497,34.9959442 C16.3368501,34.377764 15.1989706,33.7432237 14.0587425,33.1110205 C14.0329083,33.0981661 14.015294,33.0689515 13.994157,33.047917 C14.1432908,32.6774763 14.3570102,32.3385874 14.7363034,32.1936831 C15.0439653,32.0756563 15.3892043,31.9915183 15.7133062,32.000867 C16.4742412,32.02307 17.2340018,32.1679743 17.9925882,32.1562885 C19.1797876,32.1387597 20.3435013,31.9284149 21.4543724,31.4785105 C21.8888568,31.3020546 22.3350841,31.1513074 22.77544,30.9888744 C22.7836599,31.4002155 22.7918799,31.8115566 22.8000999,32.2228977" id="Fill-27" fill="#DF8F65"></path>
                            <path d="M9.65307017,13.1904262 L6.78899566,13.1904262 C6.73145582,13.3376676 6.6868331,13.4545259 6.64221037,13.5702156 C6.63399039,13.1203113 6.6269447,12.6715755 6.61755044,12.2228398 C6.61402759,12.0475524 6.60580762,11.8746022 6.59993621,11.6993148 C6.60228477,11.2377246 6.59876192,10.7761345 6.60933046,10.3145444 C6.62577042,9.58418024 7.08139195,8.85264752 8.09479757,8.76383524 C8.59151898,8.7731839 9.08941467,8.78253256 9.58731036,8.79188122 C9.58731036,10.097188 9.5849618,11.4024948 9.58965893,12.706633 C9.59083321,12.8678974 9.63075881,13.0291618 9.65307017,13.1904262" id="Fill-29" fill="#0A2841"></path>
                            <path d="M25.7242977,15.6786892 C26.4758383,15.3386316 27.2661303,15.0663519 27.8908485,14.5007579 C28.0857793,14.3243019 28.2419589,14.1069456 28.4204498,13.9117923 C28.4909067,13.8334972 28.5719322,13.7633823 28.6482606,13.6909301 C28.6529577,15.236965 28.6564805,16.7829998 28.6611777,18.3302032 C28.2266932,18.313843 27.7922088,18.2904714 27.35655,18.2846284 C26.5333782,18.2741112 26.091848,17.9831341 25.7771404,17.2282297 C25.7595261,16.7117162 25.7419119,16.1952027 25.7242977,15.6786892" id="Fill-31" fill="#000000"></path>
                            <path d="M6.64420665,18.2126437 C6.73227782,18.2348468 6.81917471,18.2570499 6.90724588,18.279253 C6.80978045,18.2967817 6.7134893,18.3143104 6.61719816,18.3318392 C6.62541813,18.2921074 6.63481239,18.2523756 6.64420665,18.2126437" id="Fill-33" fill="#584A57"></path>
                            <path d="M17.6570957,25.5964499 C17.1803371,25.5964499 16.7035785,25.5976185 16.2268199,25.5964499 C15.8169954,25.5941127 15.4823249,25.2972928 15.4470964,24.9093233 C15.4130423,24.5447256 15.6608158,24.1918136 16.0671175,24.1696105 C16.9431321,24.1205301 17.8238438,24.1228672 18.7033812,24.1135186 C18.8971378,24.1111814 19.0955915,24.1310473 19.2858253,24.1707791 C19.6486785,24.246737 19.8952778,24.5704344 19.8659207,24.9023118 C19.8342151,25.2634039 19.484279,25.5929442 19.1190772,25.5952813 C18.63175,25.5987871 18.1444229,25.5964499 17.6570957,25.5964499" id="Fill-35" fill="#D2825D"></path>
                            <path d="M14.0063695,19.3770195 C13.9969752,19.5417896 14.0110666,19.7112341 13.9746639,19.8689928 C13.8807213,20.2733223 13.642342,20.4579584 13.2524803,20.4591486 C12.8696642,20.4614641 12.5784422,20.2744909 12.523251,19.8830158 C12.4739311,19.5254295 12.4821511,19.1421344 12.5573051,18.790391 C12.6359821,18.4176131 13.0176238,18.2271342 13.3699085,18.2914062 C13.7198446,18.3556783 13.9817096,18.6641841 13.9969752,19.0357933 C14.0016724,19.1491459 13.9969752,19.263667 13.9969752,19.3770195 C14.0004981,19.3770195 14.0028466,19.3770195 14.0063695,19.3770195" id="Fill-37" fill="#000000"></path>
                            <path d="M22.7950505,19.3868356 C22.7950505,19.4896708 22.7962247,19.5925061 22.7950505,19.6953414 C22.7891791,20.1300541 22.5331855,20.4315484 22.1503695,20.4584258 C21.678308,20.4911461 21.3647746,20.2515867 21.3166291,19.7876594 C21.2896206,19.5130425 21.2907948,19.2302455 21.3166291,18.95446 C21.3565547,18.5396132 21.6959222,18.2649963 22.1033982,18.282525 C22.497957,18.3000537 22.7856562,18.6167396 22.7950505,19.046778 C22.797399,19.1601305 22.7950505,19.2734831 22.7950505,19.3868356" id="Fill-39" fill="#000000"></path>
                            <path d="M19.909604,37.1800252 C19.7757358,37.5563088 19.6219049,37.9267495 19.5150452,38.3100446 C19.3964427,38.740083 19.1545405,39.0614432 18.7858159,39.299834 C18.0319266,39.5896425 17.2768631,39.5837996 16.5217996,39.299834 C16.1777349,39.101175 15.9487498,38.8137037 15.8242759,38.4362515 C15.6810135,38.0003702 15.5295311,37.5656574 15.3815715,37.1309447 C15.5929423,36.9135883 15.7937446,36.6810404 16.0203811,36.4788756 C16.4666083,36.0803889 16.9327984,35.7017681 17.3825485,35.3067872 C17.5539937,35.1560401 17.6784677,35.1116339 17.8804442,35.2904271 C18.5063367,35.8455038 19.1557148,36.3725346 19.7886529,36.9194312 C19.8544127,36.9766918 19.8708527,37.0923815 19.909604,37.1800252" id="Fill-41" fill="#973645"></path>
                            <path d="M15.698158,43.9351339 C15.6136097,44.3943868 15.5302356,44.8536398 15.4456873,45.3128928 L15.3869732,45.3128928 L15.698158,43.9351339 Z" id="Fill-43" fill="#01A2D5"></path>
                            <path d="M19.7243023,44.609406 L19.8663904,45.3140614 L19.852299,45.3140614 C19.8100249,45.0791763 19.7677507,44.8442912 19.7243023,44.609406" id="Fill-45" fill="#01A2D5"></path>
                            <path d="M21.6253479,54.0679138 L13.4077204,54.0679138 L15.386386,45.3128928 L15.6987451,43.9351339 C15.7633307,43.5798848 15.8290905,43.2246356 15.893676,42.8682179 C15.9970128,42.3084669 16.0991754,41.7487158 16.2001637,41.1877961 C16.292932,40.6817998 16.3857003,40.174635 16.4784686,39.6686387 C16.4996057,39.5471061 16.5078256,39.4232364 16.521917,39.3005352 C17.2769805,39.5833322 18.0320441,39.5891751 18.7859333,39.3005352 C18.8939673,39.9292326 18.9984784,40.5590987 19.1076866,41.1877961 C19.1358694,41.3502291 19.1628779,41.5103249 19.192235,41.6715893 C19.3660287,42.6450187 19.5445196,43.6172794 19.720662,44.5895401 L19.7230106,44.6023945 L19.7241848,44.609406 L19.866273,45.3140614 L21.6253479,54.0679138 Z" id="Fill-47" fill="#894956"></path>
                            <path d="M25.7355708,34.3127908 C25.4232117,34.866699 25.1132011,35.4217757 24.7984935,35.9733467 C24.3405234,36.776163 23.8778562,37.5766421 23.4175375,38.3782898 C23.3705662,38.4577534 23.3177235,38.5337113 23.2754494,38.6166806 C22.9689617,39.2033091 22.3923891,39.1694202 21.9766931,38.8165083 C21.4494404,38.3689411 20.9398019,37.9038452 20.4102006,37.4609524 C20.2657638,37.3405884 20.0778787,37.2728106 19.9099563,37.1804926 C19.8700307,37.0916803 19.854765,36.9771592 19.7890052,36.9198987 C19.1560671,36.373002 18.5055147,35.8459712 17.8807965,35.2897259 C17.6788199,35.1109328 17.5531717,35.1565075 17.3817265,35.3072546 C16.9319764,35.7022356 16.4669606,36.0808563 16.0195591,36.479343 C15.7940969,36.6803392 15.5932946,36.9128872 15.3807495,37.1314121 C15.1188845,37.3195539 14.8476253,37.4960099 14.5986775,37.6993433 C14.1277903,38.0861441 13.6686459,38.4857994 13.2095015,38.8854546 C12.8560426,39.1939605 12.200793,39.0817765 11.9729823,38.5804546 C11.6653203,37.9003395 11.2320101,37.2763164 10.8538912,36.627753 C10.7693429,36.4851859 10.6847946,36.3414503 10.6025948,36.1988832 C10.5309636,36.0738448 10.4628552,35.9499751 10.399444,35.8225996 C10.3677384,35.7559904 10.3325099,35.7127528 10.2937586,35.6882126 L9.45179819,34.2999364 C9.55983216,34.2356644 9.65964615,34.1363349 9.71366314,34.0358368 C10.0295451,33.4550512 10.3137214,32.8579055 10.6119891,32.2677712 C10.8973397,31.7045144 11.2825043,31.5876562 11.8379398,31.8856447 C12.055182,32.0013344 12.2771214,32.1111812 12.4967122,32.2233651 C12.9957822,32.4991506 13.4948521,32.7725989 13.9939221,33.0483844 C14.0150592,33.0694189 14.0326734,33.0974649 14.0585076,33.1114879 C15.1987357,33.7436911 16.3366153,34.3770629 17.4827148,34.9964117 C17.5731345,35.0454921 17.7422312,35.0279634 17.8408709,34.9753772 C18.6875284,34.5231357 19.5294888,34.0568712 20.3691007,33.5894382 C21.181704,33.1371967 21.9907845,32.6791123 22.799865,32.2233651 C23.03707,32.0994953 23.2731008,31.9779628 23.5103058,31.8564302 C23.9988072,31.6040163 24.3933661,31.7243803 24.6434882,32.2140164 C24.9464531,32.8076564 25.2411979,33.4059707 25.5418142,34.0019479 C25.5981797,34.1094575 25.6709852,34.2099556 25.7355708,34.3127908" id="Fill-49" fill="#FFFFFF"></path>
                            <g id="Group-53" transform="translate(0, 34.2997)">
                                <mask id="mask-4" fill="white">
                                    <use xlink:href="#path-3"></use>
                                </mask>
                                <g id="Clip-52"></g>
                                <path d="M10.2932889,1.38827616 C10.2228319,1.34387002 10.1382836,1.35555584 10.0255525,1.3917819 C9.05207249,1.7014563 8.07389534,1.99593912 7.09924104,2.30327635 C5.82044762,2.70760594 4.5287371,3.07804663 3.27225504,3.54314251 C2.31873782,3.89488588 1.74216521,4.64628451 1.55780289,5.65009698 C1.4908688,6.01118901 1.49204308,6.38747262 1.48969452,6.75674473 C1.48969452,6.79998228 1.48969452,6.84438842 1.48969452,6.88879456 C1.48969452,6.94956086 1.48852024,7.01149574 1.48852024,7.07226203 C1.48382311,8.18942702 1.48147454,9.39423571 1.48030026,10.5768413 C1.48030026,11.0968606 1.48030026,11.7804814 1.48030026,12.5564203 C1.48030026,13.9143133 1.48030026,15.5538347 1.48147454,17.0846779 C1.48147454,17.5813256 1.48147454,18.0662873 1.48264882,18.5255403 C0.653605525,17.756613 0.106389976,16.6908656 0.0147959569,15.4977427 C0.00775026314,13.797455 0.00187885167,12.0340639 0.000704569377,10.9706537 C-0.000469712918,10.8257494 -0.000469712918,10.6936996 -0.000469712918,10.5768413 L-0.000469712918,10.3606535 C-0.000469712918,9.09274139 0.00892454544,7.82950357 0.0324101913,6.88879456 C0.0488501434,6.24139979 0.0723357893,5.74592076 0.104041411,5.50636132 C0.344769282,3.72193565 1.4579889,2.55802736 3.17831246,2.0041192 C5.22743506,1.34387002 7.28712621,0.710498235 9.33742309,0.052586218 C9.37500012,0.0409003918 9.41375144,0.0222030698 9.45250276,0 L10.2932889,1.38827616 Z" id="Fill-51" fill="#061B28" mask="url(#mask-4)"></path>
                            </g>
                            <path d="M16.5495127,39.2980812 C16.5377698,39.4266253 16.526027,39.5434835 16.5025414,39.6720276 C16.4203416,40.1745181 16.326399,40.6770087 16.2324564,41.191185 C16.126771,41.7521047 16.0210856,42.3130243 15.927143,42.873944 C15.8566861,43.2245188 15.797972,43.5750936 15.7275151,43.9373542 L15.4104588,45.3162817 L13.4376646,54.0689655 L4.68926149,54.0689655 C3.45626508,54.0689655 2.35243972,53.6015325 1.51869929,52.8302679 L1.50695647,52.8302679 L1.48347082,52.8068963 L1.48347082,52.8302679 C0.649730393,52.0590034 0.109560538,50.9955932 0.0156179545,49.7919531 C0.00387513157,48.0975083 0.00387513157,46.3329486 0.00387513157,45.2695384 L0.00387513157,44.6618754 C0.00387513157,43.3881203 0.00387513157,42.1260511 0.0273607775,41.191185 C0.0508464233,40.5367787 0.0743320692,40.045974 0.109560538,39.8005717 C0.344416997,38.0243261 1.45998518,36.8557435 3.17443733,36.3065096 C5.22943134,35.6404176 7.28442536,35.0093829 9.33941937,34.3549767 C9.37464784,34.3432908 9.40987631,34.3199192 9.4568476,34.2965475 L10.2788452,35.675475 C10.2788452,35.6871609 10.290588,35.6871609 10.290588,35.6871609 C10.3493021,35.6988467 10.3962734,35.7339042 10.4315019,35.8273908 C10.560673,36.0961648 10.7250725,36.3649388 10.8777292,36.622027 C11.2652423,37.2764332 11.6997268,37.895782 12.0050402,38.5852458 C12.2281538,39.0760505 12.8857519,39.1929087 13.2380366,38.8890772 C13.6960067,38.4800733 14.1539768,38.0827552 14.6236897,37.697123 C14.8820318,37.4984639 15.1521167,37.3231765 15.4104588,37.1362033 C15.5631155,37.5685789 15.7157722,38.0009545 15.8566861,38.43333 C15.9741143,38.8189623 16.2089708,39.0994221 16.5495127,39.2980812" id="Fill-54" fill="#0A2841"></path>
                            <path d="M16.192296,5.07847622 C16.1159676,5.85441508 16.8545912,6.57893631 17.6378375,6.56257615 C18.4962378,6.54504741 19.1409188,5.93271012 19.1150846,5.07380189 C19.0880761,4.24060248 18.5220721,3.69020006 17.6613231,3.65280542 C16.7806114,3.61424219 16.1535447,4.39952971 16.192296,5.07847622 M18.2696014,7.98123545 C17.8574283,7.98357262 17.4452552,7.98590978 17.0330821,7.98824695 C16.9802394,7.97539254 16.9273967,7.96253813 16.874554,7.94968372 C16.0713449,7.67272964 15.418444,7.2111395 15.0356279,6.43286348 C14.5025038,5.34958739 14.5870521,4.29435728 15.31863,3.34663677 C16.0819134,2.35801587 17.1258504,1.97705794 18.3529754,2.28088942 C19.4814607,2.55901208 20.2130386,3.28820764 20.4913435,4.42173278 C20.8753338,5.97945342 19.9699621,7.49627366 18.4152124,7.93215498 C18.3658925,7.94617797 18.3189212,7.9648753 18.2696014,7.98123545" id="Fill-56" fill="#FEC55B"></path>
                            <path d="M16.192296,5.07847622 C16.1535447,4.39952971 16.7806114,3.61424219 17.6613231,3.65280542 C18.5220721,3.69020006 19.0880761,4.24060248 19.1150846,5.07380189 C19.1409188,5.93271012 18.4962378,6.54504741 17.6378375,6.56257615 C16.8545912,6.57893631 16.1159676,5.85441508 16.192296,5.07847622" id="Fill-58" fill="#FEA65B"></path>
                            <path d="M9.28974723,51.6403003 L7.64222917,51.6403003 C6.2741903,51.6403003 5.16449353,50.5359897 5.16449353,49.1734223 L5.16449353,48.9023112 C5.16449353,47.5397438 6.2741903,46.4366018 7.64222917,46.4366018 L9.28974723,46.4366018 C10.6589604,46.4366018 11.7686572,47.5397438 11.7686572,48.9023112 L11.7686572,49.1734223 C11.7686572,50.5359897 10.6589604,51.6403003 9.28974723,51.6403003" id="Fill-60" fill="#061B28"></path>
                            <path d="M10.4086034,45.8493891 L6.52407757,45.8493891 C5.7725369,45.8493891 5.16425867,45.2440633 5.16425867,44.4961704 L5.16425867,44.4961704 C5.16425867,43.7494461 5.7725369,43.1429517 6.52407757,43.1429517 L10.4086034,43.1429517 C11.1589698,43.1429517 11.7684223,43.7494461 11.7684223,44.4961704 L11.7684223,44.4961704 C11.7684223,45.2440633 11.1589698,45.8493891 10.4086034,45.8493891" id="Fill-62" fill="#FFFFFF"></path>
                            <path d="M27.6710228,51.6403003 L26.0235048,51.6403003 C24.6554659,51.6403003 23.5457691,50.5359897 23.5457691,49.1734223 L23.5457691,48.9023112 C23.5457691,47.5397438 24.6554659,46.4366018 26.0235048,46.4366018 L27.6710228,46.4366018 C29.040236,46.4366018 30.1499328,47.5397438 30.1499328,48.9023112 L30.1499328,49.1734223 C30.1499328,50.5359897 29.040236,51.6403003 27.6710228,51.6403003" id="Fill-64" fill="#061B28"></path>
                            <path d="M28.7899964,45.8493891 L24.9054706,45.8493891 C24.1539299,45.8493891 23.5456517,45.2440633 23.5456517,44.4961704 L23.5456517,44.4961704 C23.5456517,43.7494461 24.1539299,43.1429517 24.9054706,43.1429517 L28.7899964,43.1429517 C29.5403628,43.1429517 30.1498153,43.7494461 30.1498153,44.4961704 L30.1498153,44.4961704 C30.1498153,45.2440633 29.5403628,45.8493891 28.7899964,45.8493891" id="Fill-66" fill="#FFFFFF"></path>
                            <g id="Group-70" transform="translate(0, 34.2997)">
                                <mask id="mask-6" fill="white">
                                    <use xlink:href="#path-5"></use>
                                </mask>
                                <g id="Clip-69"></g>
                                <path d="M10.2932889,1.38827616 C10.2228319,1.34387002 10.1382836,1.35555584 10.0255525,1.3917819 C9.05207249,1.7014563 8.07389534,1.99593912 7.09924104,2.30327635 C5.82044762,2.70760594 4.5287371,3.07804663 3.27225504,3.54314251 C2.31873782,3.89488588 1.74216521,4.64628451 1.55780289,5.65009698 C1.4908688,6.01118901 1.49204308,6.38747262 1.48969452,6.75674473 C1.48969452,6.79998228 1.48969452,6.84438842 1.48969452,6.88879456 C1.48969452,6.94956086 1.48852024,7.01149574 1.48852024,7.07226203 C1.48382311,8.18942702 1.48147454,9.39423571 1.48030026,10.5768413 C1.48030026,11.0968606 1.48030026,11.7804814 1.48030026,12.5564203 C1.48030026,13.9143133 1.48030026,15.5538347 1.48147454,17.0846779 C1.48147454,17.5813256 1.48147454,18.0662873 1.48264882,18.5255403 C0.653605525,17.756613 0.106389976,16.6908656 0.0147959569,15.4977427 C0.00775026314,13.797455 0.00187885167,12.0340639 0.000704569377,10.9706537 C-0.000469712918,10.8257494 -0.000469712918,10.6936996 -0.000469712918,10.5768413 L-0.000469712918,10.3606535 C-0.000469712918,9.09274139 0.00892454544,7.82950357 0.0324101913,6.88879456 C0.0488501434,6.24139979 0.0723357893,5.74592076 0.104041411,5.50636132 C0.344769282,3.72193565 1.4579889,2.55802736 3.17831246,2.0041192 C5.22743506,1.34387002 7.28712621,0.710498235 9.33742309,0.052586218 C9.37500012,0.0409003918 9.41375144,0.0222030698 9.45250276,0 L10.2932889,1.38827616 Z" id="Fill-68" fill="#061B28" mask="url(#mask-6)"></path>
                            </g>
                        </g>
                    </g>
                </g>
            </g>
        </g>
    </g>
</svg>